<svg width="58" height="56" viewBox="0 0 58 56" fill="none" xmlns="http://www.w3.org/2000/svg">
<path d="M40.0194 7.02928L39.8191 6.79012L39.8879 6.69219L40.0898 6.93336L40.0194 7.02928Z" fill="#A6A6A6"/>
<path d="M53.8197 1.735L0.0166626 2.26074L0.537423 55.5543L54.3405 55.0285L53.8197 1.735Z" fill="#C7C7C7"/>
<path d="M54.3405 55.0288L0.53741 55.5545L0 0.557129L42.0951 0.145794L53.9338 13.4069L54.3405 55.0288Z" fill="#EBEBEB"/>
<path d="M15.4926 9.93443L15.5463 15.4249L14.585 15.4342L14.5088 7.63623L15.2642 7.62885L18.8032 13.2189L18.7483 7.60494L19.7191 7.59545L19.7952 15.3833L19.0034 15.3911L15.4926 9.93443Z" fill="#C2B894"/>
<path d="M25.3416 14.243L25.3522 15.3289L21.1714 15.3698L21.0952 7.57178L25.1984 7.53168L25.209 8.61964L22.0734 8.65028L22.0952 10.8789L24.8175 10.8523L24.8274 11.8652L22.1051 11.8919L22.1284 14.2744L25.3416 14.243Z" fill="#C2B894"/>
<path d="M28.4357 7.53272L29.3479 7.52381L30.1212 10.1645L30.8507 7.50912L31.7518 7.50031L30.7469 10.983L31.6855 13.8409L33.5236 7.45058L34.5736 7.44032L32.1334 15.2629L31.3099 15.271L30.1419 11.7893L29.0342 15.2932L28.2107 15.3013L25.618 7.52783L26.6648 7.5176L28.6275 13.8708L29.5101 10.9951L28.4357 7.53272Z" fill="#C2B894"/>
<path d="M38.7756 9.23291C38.6992 9.13589 38.6144 9.05037 38.5228 8.97805C38.401 8.87883 38.2724 8.79396 38.1386 8.72448C37.9847 8.63963 37.825 8.57336 37.6616 8.52653C37.4855 8.47709 37.3057 8.45302 37.1255 8.45477C36.718 8.45875 36.4196 8.5569 36.2304 8.74921C36.1373 8.8426 36.0631 8.9634 36.0143 9.10141C35.9655 9.23942 35.9434 9.39059 35.9499 9.54216C35.9461 9.70602 35.9791 9.86808 36.0447 10.0093C36.1178 10.1415 36.2144 10.2496 36.3266 10.3246C36.478 10.4271 36.6383 10.5064 36.804 10.5611C36.9937 10.6308 37.2146 10.7036 37.4666 10.7795C37.7513 10.8625 38.0321 10.9667 38.3075 11.0914C38.5352 11.1901 38.7502 11.3321 38.9451 11.5127C39.1163 11.6744 39.2551 11.8855 39.3503 12.1288C39.4536 12.4083 39.5054 12.7143 39.5015 13.0229C39.5125 13.3771 39.4556 13.7289 39.3358 14.0477C39.2266 14.327 39.0659 14.5677 38.8675 14.7493C38.6547 14.9384 38.4159 15.0748 38.1634 15.1513C37.88 15.2406 37.589 15.2857 37.2968 15.2854C36.841 15.2913 36.3869 15.2055 35.9513 15.0311C35.5264 14.8616 35.1273 14.5995 34.7717 14.2564L35.1985 13.1966C35.2969 13.3152 35.404 13.4213 35.5183 13.5136C35.6751 13.638 35.8399 13.7448 36.0108 13.833C36.209 13.9335 36.4125 14.0155 36.6198 14.0783C36.8421 14.1474 37.0702 14.1806 37.2987 14.177C37.6036 14.1964 37.9062 14.1057 38.172 13.9152C38.2703 13.8364 38.3501 13.7252 38.4032 13.5932C38.4562 13.4611 38.4805 13.3131 38.4735 13.1646C38.4763 12.9881 38.434 12.8149 38.353 12.6714C38.2625 12.5276 38.1483 12.4111 38.0187 12.3302C37.8507 12.2203 37.6748 12.1317 37.4934 12.0659C37.2852 11.9869 37.05 11.9041 36.7862 11.8195C36.5167 11.734 36.2512 11.6283 35.9912 11.5031C35.7872 11.4094 35.596 11.2744 35.4251 11.1034C35.2796 10.9504 35.162 10.7586 35.0807 10.5415C34.996 10.2939 34.954 10.0262 34.9574 9.7565C34.9495 9.40656 35.0046 9.05939 35.1185 8.74184C35.2287 8.45006 35.3885 8.19375 35.5863 7.99163C35.792 7.78041 36.0283 7.6232 36.2818 7.52895C36.5653 7.4204 36.8598 7.36564 37.1561 7.36641C37.5454 7.35733 37.9331 7.43867 38.3004 7.60648C38.629 7.75812 38.9401 7.96641 39.225 8.22556L38.7756 9.23291Z" fill="#C2B894"/>
<path d="M46.4235 4.99282L2.45333 5.42248L2.43884 3.93945L45.1104 3.52249L46.4235 4.99282Z" fill="#C7C7C7"/>
<path d="M44.7645 3.13656L2.43502 3.55019L2.43213 3.25439L44.5051 2.84328L44.7645 3.13656Z" fill="#C7C7C7"/>
<path d="M47.1729 5.83294L2.46161 6.26984L2.45874 5.97607L46.9119 5.5417L47.1729 5.83294Z" fill="#C7C7C7"/>
<path d="M51.5637 16.905L2.57019 17.3838L2.58466 18.8648L51.5782 18.386L51.5637 16.905Z" fill="#C7C7C7"/>
<path d="M51.557 16.2224L2.56354 16.7012L2.56641 16.9949L51.5599 16.5162L51.557 16.2224Z" fill="#C7C7C7"/>
<path d="M51.5836 18.9436L2.59009 19.4224L2.59294 19.7141L51.5864 19.2354L51.5836 18.9436Z" fill="#C7C7C7"/>
<path d="M11.0991 7.66963L2.47449 7.75391L2.55071 15.5539L11.1753 15.4697L11.0991 7.66963Z" fill="#C7C7C7"/>
<path d="M51.5013 10.6817L51.5443 15.074L42.9213 15.1583L42.8451 7.3623L48.4892 7.30715L51.5013 10.6817Z" fill="#C7C7C7"/>
<path d="M17.1935 44.6161L37.4738 44.418L37.279 24.4823L16.9987 24.6804L17.1935 44.6161Z" fill="#C2B894"/>
<path opacity="0.2" d="M19.2235 29.3341C19.1537 29.8209 19.2081 30.3244 19.3787 30.7702C19.5494 31.216 19.8272 31.5806 20.1712 31.8102C20.5153 32.0398 20.9073 32.1223 21.2896 32.0456C21.6719 31.9688 22.0243 31.7368 22.2947 31.3839C22.5651 31.0309 22.7392 30.5756 22.7915 30.085C22.8438 29.5944 22.7714 29.0946 22.5851 28.6592C22.3987 28.2237 22.1082 27.8757 21.7564 27.6664C21.4046 27.4572 21.01 27.3977 20.631 27.4968C20.2797 27.5891 19.9584 27.8131 19.7078 28.1403C19.4572 28.4674 19.2886 28.8829 19.2235 29.3341Z" fill="black"/>
<path opacity="0.2" d="M22.776 40.3537L37.4327 40.2104L30.0008 29.7692L22.776 40.3537Z" fill="black"/>
<path d="M17.1525 40.4186L29.2532 40.3004L23.1352 33.5117L17.1525 40.4186Z" fill="#C2B894"/>
<path opacity="0.3" d="M17.1525 40.4186L29.2532 40.3004L23.1352 33.5117L17.1525 40.4186Z" fill="black"/>
<path d="M37.4327 40.2105L17.1525 40.4087L17.1936 44.6167L37.4739 44.4185L37.4327 40.2105Z" fill="#C2B894"/>
<path opacity="0.3" d="M37.4327 40.2105L17.1525 40.4087L17.1936 44.6167L37.4739 44.4185L37.4327 40.2105Z" fill="black"/>
<path d="M33.2022 21.2237L16.9666 21.3823L16.9733 22.0772L33.209 21.9186L33.2022 21.2237Z" fill="#A6A6A6"/>
<path d="M28.5958 22.7762L16.9813 22.8896L16.9881 23.5846L28.6026 23.4711L28.5958 22.7762Z" fill="#A6A6A6"/>
<path d="M14.6434 21.4176L2.61078 21.5352L2.61757 22.2301L14.6502 22.1125L14.6434 21.4176Z" fill="#A6A6A6"/>
<path d="M14.666 24.7013L2.63342 24.8188L2.64021 25.5138L14.6728 25.3962L14.666 24.7013Z" fill="#DBDBDB"/>
<path d="M14.6787 25.9977L2.64612 26.1152L2.65291 26.8101L14.6855 26.6926L14.6787 25.9977Z" fill="#DBDBDB"/>
<path d="M14.6914 27.2945L2.65875 27.4121L2.66554 28.107L14.6981 27.9894L14.6914 27.2945Z" fill="#DBDBDB"/>
<path d="M14.704 28.5909L2.67145 28.7085L2.67824 29.4034L14.7108 29.2858L14.704 28.5909Z" fill="#DBDBDB"/>
<path d="M14.7167 29.8878L2.68408 30.0054L2.69087 30.7003L14.7235 30.5827L14.7167 29.8878Z" fill="#DBDBDB"/>
<path d="M14.7294 31.1827L2.69678 31.3003L2.70357 31.9952L14.7362 31.8776L14.7294 31.1827Z" fill="#DBDBDB"/>
<path d="M14.742 32.4791L2.70941 32.5967L2.7162 33.2916L14.7488 33.174L14.742 32.4791Z" fill="#DBDBDB"/>
<path d="M14.7547 33.776L2.72211 33.8936L2.7289 34.5885L14.7615 34.4709L14.7547 33.776Z" fill="#DBDBDB"/>
<path d="M9.78206 35.1211L2.7348 35.1899L2.74159 35.8849L9.78885 35.816L9.78206 35.1211Z" fill="#DBDBDB"/>
<path d="M14.7927 37.6661L2.76013 37.7837L2.76692 38.4786L14.7995 38.361L14.7927 37.6661Z" fill="#DBDBDB"/>
<path d="M14.8054 38.963L2.77277 39.0806L2.77956 39.7755L14.8122 39.6579L14.8054 38.963Z" fill="#DBDBDB"/>
<path d="M14.8181 40.2569L2.78546 40.3745L2.79225 41.0694L14.8249 40.9518L14.8181 40.2569Z" fill="#DBDBDB"/>
<path d="M14.8307 41.5533L2.7981 41.6709L2.80489 42.3658L14.8375 42.2482L14.8307 41.5533Z" fill="#DBDBDB"/>
<path d="M9.85805 42.8984L2.81079 42.9673L2.81758 43.6622L9.86484 43.5933L9.85805 42.8984Z" fill="#DBDBDB"/>
<path d="M11.2342 22.9584L2.62549 23.0425L2.63228 23.7374L11.241 23.6533L11.2342 22.9584Z" fill="#A6A6A6"/>
<path d="M51.6027 21.0563L39.5701 21.1738L39.5769 21.8687L51.6095 21.7512L51.6027 21.0563Z" fill="#A6A6A6"/>
<path d="M51.6253 24.3399L39.5927 24.4575L39.5995 25.1524L51.6321 25.0349L51.6253 24.3399Z" fill="#DBDBDB"/>
<path d="M51.6379 25.6368L39.6053 25.7544L39.6121 26.4493L51.6447 26.3317L51.6379 25.6368Z" fill="#DBDBDB"/>
<path d="M51.6506 26.9332L39.618 27.0508L39.6248 27.7457L51.6574 27.6281L51.6506 26.9332Z" fill="#DBDBDB"/>
<path d="M46.7254 28.2783L39.6307 28.3477L39.6375 29.0426L46.7322 28.9732L46.7254 28.2783Z" fill="#DBDBDB"/>
<path d="M51.6886 30.8214L39.656 30.939L39.6628 31.6339L51.6954 31.5163L51.6886 30.8214Z" fill="#DBDBDB"/>
<path d="M51.7013 32.1183L39.6687 32.2358L39.6755 32.9308L51.7081 32.8132L51.7013 32.1183Z" fill="#DBDBDB"/>
<path d="M51.7139 33.4146L39.6813 33.5322L39.6881 34.2271L51.7207 34.1096L51.7139 33.4146Z" fill="#DBDBDB"/>
<path d="M51.7266 34.7115L39.694 34.8291L39.7008 35.524L51.7334 35.4064L51.7266 34.7115Z" fill="#DBDBDB"/>
<path d="M46.8014 36.0562L39.7067 36.1255L39.7135 36.8204L46.8082 36.7511L46.8014 36.0562Z" fill="#DBDBDB"/>
<path d="M51.7647 38.6017L39.7321 38.7192L39.7388 39.4141L51.7714 39.2966L51.7647 38.6017Z" fill="#DBDBDB"/>
<path d="M51.7773 39.8956L39.7447 40.0132L39.7515 40.7081L51.7841 40.5905L51.7773 39.8956Z" fill="#DBDBDB"/>
<path d="M51.7899 41.192L39.7573 41.3096L39.7641 42.0045L51.7967 41.8869L51.7899 41.192Z" fill="#DBDBDB"/>
<path d="M51.8026 42.4889L39.77 42.6064L39.7768 43.3014L51.8094 43.1838L51.8026 42.4889Z" fill="#DBDBDB"/>
<path d="M46.8775 43.8345L39.7827 43.9038L39.7895 44.5987L46.8843 44.5294L46.8775 43.8345Z" fill="#DBDBDB"/>
<path d="M48.1936 22.597L39.5848 22.6812L39.5916 23.3761L48.2004 23.2919L48.1936 22.597Z" fill="#A6A6A6"/>
<path d="M14.8917 46.8292L2.85907 46.9468L2.86586 47.6417L14.8985 47.5241L14.8917 46.8292Z" fill="#A6A6A6"/>
<path d="M14.9144 50.1158L2.88177 50.2334L2.88857 50.9283L14.9212 50.8107L14.9144 50.1158Z" fill="#DBDBDB"/>
<path d="M14.9271 51.4122L2.89447 51.5298L2.90126 52.2247L14.9339 52.1071L14.9271 51.4122Z" fill="#DBDBDB"/>
<path d="M14.9397 52.7076L2.9071 52.8252L2.91389 53.5201L14.9465 53.4025L14.9397 52.7076Z" fill="#DBDBDB"/>
<path d="M14.9523 54.0035L2.91974 54.1211L2.92653 54.816L14.9591 54.6984L14.9523 54.0035Z" fill="#DBDBDB"/>
<path d="M11.4826 48.3724L2.87384 48.4565L2.88063 49.1515L11.4894 49.0673L11.4826 48.3724Z" fill="#A6A6A6"/>
<path d="M37.4951 46.6079L17.2592 46.8057L17.266 47.5006L37.5019 47.3028L37.4951 46.6079Z" fill="#A6A6A6"/>
<path d="M37.5114 49.895L17.2755 50.0928L17.2823 50.7877L37.5182 50.5899L37.5114 49.895Z" fill="#DBDBDB"/>
<path d="M37.5241 51.1914L17.2882 51.3892L17.295 52.0841L37.5309 51.8863L37.5241 51.1914Z" fill="#DBDBDB"/>
<path d="M37.5368 52.4868L17.3008 52.6846L17.3076 53.3795L37.5436 53.1817L37.5368 52.4868Z" fill="#DBDBDB"/>
<path d="M37.5495 53.7827L17.3135 53.9805L17.3203 54.6754L37.5563 54.4776L37.5495 53.7827Z" fill="#DBDBDB"/>
<path d="M31.7502 48.1745L17.274 48.3159L17.2808 49.0108L31.757 48.8694L31.7502 48.1745Z" fill="#A6A6A6"/>
<path d="M51.851 46.4679L39.8184 46.5854L39.8252 47.2804L51.8578 47.1628L51.851 46.4679Z" fill="#A6A6A6"/>
<path d="M51.8736 49.7545L39.841 49.8721L39.8478 50.567L51.8804 50.4494L51.8736 49.7545Z" fill="#DBDBDB"/>
<path d="M51.8863 51.0509L39.8537 51.1685L39.8605 51.8634L51.8931 51.7458L51.8863 51.0509Z" fill="#DBDBDB"/>
<path d="M51.8989 52.3463L39.8663 52.4639L39.8731 53.1588L51.9057 53.0412L51.8989 52.3463Z" fill="#DBDBDB"/>
<path d="M46.9738 53.6904L39.879 53.7598L39.8858 54.4547L46.9806 54.3853L46.9738 53.6904Z" fill="#DBDBDB"/>
<path d="M48.4419 48.0116L39.8331 48.0957L39.8399 48.7906L48.4487 48.7065L48.4419 48.0116Z" fill="#A6A6A6"/>
<path d="M42.0952 0.145996L42.5259 13.5916L53.9338 13.4071L42.0952 0.145996Z" fill="#DBDBDB"/>
<path d="M52.2191 34.1512L53.5061 32.6392L46.572 22.9888L45.2851 24.5009L52.2191 34.1512Z" fill="#C7C7C7"/>
<path d="M55.414 39.443L57.3603 37.1567L52.5177 30.4163L50.5713 32.7026L55.414 39.443Z" fill="#263238"/>
<path d="M39.4088 26.7134C37.8567 26.3374 36.4244 25.3816 35.2929 23.967C34.1614 22.5523 33.3816 20.7422 33.0521 18.7657C32.7225 16.7891 32.8581 14.7347 33.4416 12.8624C34.0251 10.99 35.0303 9.38371 36.3301 8.24659C37.63 7.10946 39.1661 6.49257 40.7443 6.47392C42.3225 6.45526 43.8718 7.03568 45.1964 8.14178C46.521 9.24788 47.5613 10.83 48.1859 12.6881C48.8106 14.5462 48.9914 16.5968 48.7055 18.5806C48.3201 21.2403 47.1247 23.5906 45.3817 25.1154C43.6386 26.6402 41.4905 27.2149 39.4088 26.7134ZM39.575 25.5649C40.9495 25.8976 42.3684 25.7019 43.652 25.0025C44.9357 24.303 46.0265 23.1314 46.7866 21.6356C47.5467 20.1398 47.9419 18.3872 47.9222 16.5992C47.9025 14.8113 47.4689 13.0684 46.676 11.591C45.8832 10.1135 44.7668 8.96788 43.4681 8.29893C42.1694 7.62997 40.7466 7.46775 39.3798 7.83277C38.0129 8.19779 36.7633 9.07367 35.7891 10.3496C34.8148 11.6256 34.1596 13.2443 33.9063 15.0011C33.5688 17.3565 33.9761 19.7915 35.0388 21.7719C36.1016 23.7523 37.7329 25.1164 39.575 25.5649Z" fill="#37474F"/>
<path d="M48.8137 14.0933C49.3379 16.6529 49.0941 19.3661 48.1303 21.6976C47.1665 24.0292 45.5528 25.8097 43.6076 26.6877C41.6625 27.5658 39.5271 27.4776 37.623 26.4407C35.7189 25.4037 34.1842 23.4933 33.322 21.0864C32.4597 18.6795 32.3325 15.9509 32.9653 13.4391C33.5982 10.9274 34.9452 8.81487 36.7405 7.5185C38.5358 6.22213 40.649 5.83606 42.6631 6.43648C44.6773 7.0369 46.446 8.58019 47.6202 10.7618C48.1675 11.7751 48.5715 12.9028 48.8137 14.0933ZM33.3574 19.1193C33.8351 21.4862 34.9783 23.5484 36.5676 24.9103C38.157 26.2722 40.0806 26.838 41.9695 26.4991C43.8584 26.1602 45.5795 24.9406 46.8029 23.074C48.0263 21.2075 48.6657 18.8255 48.5985 16.385C48.5313 13.9444 47.7622 11.6171 46.4388 9.84952C45.1154 8.08191 43.3308 6.9984 41.4273 6.80683C39.5238 6.61526 37.6354 7.3291 36.1244 8.81145C34.6134 10.2938 33.5861 12.4403 33.2395 14.8392C33.0346 16.2583 33.0748 17.7191 33.3574 19.1193ZM47.928 14.3816C48.2353 15.9041 48.2381 17.4992 47.9362 19.0196C47.6344 20.5401 47.0375 21.9369 46.2008 23.081C45.3641 24.2252 44.3146 25.0798 43.149 25.566C41.9835 26.0522 40.7395 26.1543 39.532 25.8629C38.3501 25.5781 37.24 24.9251 36.3001 23.9617C35.3601 22.9982 34.6194 21.7542 34.1434 20.3398C33.6675 18.9255 33.4711 17.3844 33.5717 15.8533C33.6722 14.3222 34.0666 12.8483 34.7199 11.5623C35.3732 10.2762 36.2652 9.21779 37.3169 8.48073C38.3685 7.74367 39.5473 7.35077 40.7488 7.33686C41.9503 7.32294 43.1373 7.68844 44.2047 8.40096C45.2721 9.11347 46.1869 10.151 46.868 11.4216C47.3529 12.3227 47.7116 13.3244 47.928 14.3816ZM39.618 25.2644C41.1737 25.6432 42.7812 25.3208 44.1667 24.3521C45.5522 23.3833 46.6299 21.8282 47.2159 19.9519C47.802 18.0755 47.8603 15.9941 47.3808 14.0623C46.9012 12.1305 45.9136 10.468 44.5863 9.3582C43.259 8.24838 41.6741 7.75994 40.1018 7.97612C38.5295 8.19231 37.0672 9.09975 35.964 10.5438C34.8608 11.9878 34.1852 13.8789 34.0522 15.8949C33.9192 17.9109 34.3371 19.9269 35.2347 21.5993C36.2617 23.5128 37.838 24.8309 39.618 25.2644Z" fill="#37474F"/>
<g opacity="0.2">
<path d="M34.0709 16.2939C34.0178 18.0099 34.3637 19.71 35.0649 21.1792C35.7661 22.6485 36.7911 23.8209 38.0103 24.5482C39.2295 25.2755 40.5881 25.5251 41.9144 25.2654C43.2407 25.0057 44.4752 24.2484 45.4616 23.0892C46.4481 21.93 47.1423 20.4209 47.4564 18.7529C47.7706 17.0848 47.6906 15.3326 47.2266 13.7179C46.7626 12.1031 45.9355 10.6983 44.8496 9.68098C43.7638 8.6637 42.4682 8.07965 41.1265 8.00268C40.2354 7.95155 39.3459 8.12548 38.509 8.51452C37.6721 8.90356 36.9041 9.5001 36.2489 10.27C35.5937 11.04 35.0641 11.9683 34.6904 13.0019C34.3167 14.0354 34.1062 15.1541 34.0709 16.2939Z" fill="white"/>
<path d="M34.2659 18.7393C34.6994 20.9642 35.8008 22.8847 37.3308 24.0837C38.8608 25.2828 40.6959 25.6635 42.4375 25.1432L34.2659 18.7393Z" fill="#EBEBEB"/>
<path d="M36.1857 10.3387L47.3802 19.106C47.5273 18.4453 47.6126 17.7644 47.6344 17.0773C47.6601 16.2866 47.5991 15.4947 47.453 14.7247L39.1888 8.25073C38.0634 8.60595 37.0295 9.32482 36.1857 10.3387Z" fill="#EBEBEB"/>
<path d="M34.1321 15.431L44.7951 23.7821C45.1576 23.4535 45.4939 23.0804 45.7995 22.668L34.4454 13.7746C34.2973 14.3115 34.1924 14.8665 34.1321 15.431Z" fill="#EBEBEB"/>
<path d="M35.5607 11.2103L47.068 20.2156C47.1019 20.1201 47.1341 20.0124 47.1649 19.9249L35.7168 10.9696C35.6668 11.0431 35.6122 11.1267 35.5607 11.2103Z" fill="#EBEBEB"/>
<path d="M41.4674 8.03369L46.5747 12.0361C46.4664 11.8163 46.3471 11.6027 46.2232 11.3953L42.0735 8.14123C41.8655 8.09261 41.6704 8.05602 41.4674 8.03369Z" fill="#EBEBEB"/>
</g>
<path d="M39.561 23.4881C38.8291 23.2858 38.1368 22.8933 37.5272 22.3348C37.2167 22.057 36.9282 21.7409 36.6659 21.3909C36.405 21.0355 36.1706 20.6498 35.9657 20.2388C35.5662 19.4063 35.3083 18.4759 35.2089 17.5088C35.1135 16.5593 35.1605 15.5961 35.3474 14.6708C35.3487 15.5957 35.4246 16.5184 35.5739 17.4242C35.6537 17.8654 35.7607 18.298 35.8938 18.7179C36.0217 19.1361 36.1811 19.5376 36.3696 19.9168C36.7448 20.685 37.2111 21.3743 37.7516 21.9598C38.3053 22.5594 38.9128 23.0725 39.561 23.4881Z" fill="white"/>
</svg>
