<svg width="69" height="52" viewBox="0 0 69 52" fill="none" xmlns="http://www.w3.org/2000/svg">
<path d="M39.748 1H1V46.033H39.748V1Z" fill="white" stroke="#263238" stroke-width="0.75" stroke-linecap="round" stroke-linejoin="round"/>
<path d="M39.748 1H1V3.68693H39.748V1Z" fill="#263238" stroke="#263238" stroke-width="0.75" stroke-linecap="round" stroke-linejoin="round"/>
<path d="M8.65326 32.4087H2.10364V45.1456H8.65326V32.4087Z" fill="#C2B894"/>
<path opacity="0.6" d="M8.65326 32.4087H2.10364V45.1456H8.65326V32.4087Z" fill="white"/>
<path d="M15.7954 32.4087H9.24579V45.1456H15.7954V32.4087Z" fill="#C2B894"/>
<path opacity="0.6" d="M15.7954 32.4087H9.24579V45.1456H15.7954V32.4087Z" fill="white"/>
<path d="M23.3847 32.4087H16.835V45.1456H23.3847V32.4087Z" fill="#C2B894"/>
<path opacity="0.6" d="M23.3847 32.4087H16.835V45.1456H23.3847V32.4087Z" fill="white"/>
<path d="M30.9717 32.4087H24.4221V45.1456H30.9717V32.4087Z" fill="#C2B894"/>
<path opacity="0.6" d="M30.9717 32.4087H24.4221V45.1456H30.9717V32.4087Z" fill="white"/>
<path d="M38.7448 32.4087H32.1952V45.1456H38.7448V32.4087Z" fill="white" stroke="#263238" stroke-width="0.75" stroke-linecap="round" stroke-linejoin="round"/>
<path d="M38.64 2.06201H2.10583V5.14875H38.64V2.06201Z" fill="#C2B894"/>
<path opacity="0.6" d="M38.64 2.06201H2.10583V5.14875H38.64V2.06201Z" fill="white"/>
<path d="M38.1267 2.6626H2.76251V4.0286H38.1267V2.6626Z" fill="white"/>
<path d="M38.1245 2.6626H34.1203V4.0286H38.1245V2.6626Z" fill="#263238" stroke="#263238" stroke-width="0.75" stroke-linecap="round" stroke-linejoin="round"/>
<path d="M18.3665 7.91587H10.88C10.8034 7.91587 10.73 7.888 10.6758 7.83838C10.6217 7.78876 10.5912 7.72147 10.5912 7.6513C10.5912 7.58113 10.6217 7.51383 10.6758 7.46421C10.73 7.41459 10.8034 7.38672 10.88 7.38672H18.3665C18.4431 7.38672 18.5166 7.41459 18.5707 7.46421C18.6249 7.51383 18.6553 7.58113 18.6553 7.6513C18.6553 7.72147 18.6249 7.78876 18.5707 7.83838C18.5166 7.888 18.4431 7.91587 18.3665 7.91587V7.91587Z" fill="#263238"/>
<path d="M18.3666 9.7606H10.8801C10.8403 9.76375 10.8001 9.75928 10.7622 9.74746C10.7244 9.73565 10.6896 9.71675 10.6601 9.69196C10.6306 9.66718 10.6071 9.63705 10.5909 9.60348C10.5748 9.56992 10.5665 9.53366 10.5665 9.497C10.5665 9.46034 10.5748 9.42407 10.5909 9.39051C10.6071 9.35695 10.6306 9.32682 10.6601 9.30204C10.6896 9.27725 10.7244 9.25835 10.7622 9.24654C10.8001 9.23472 10.8403 9.23025 10.8801 9.2334H18.3666C18.4387 9.2391 18.5057 9.26933 18.5546 9.31814C18.6035 9.36695 18.6306 9.43077 18.6306 9.497C18.6306 9.56323 18.6035 9.62705 18.5546 9.67586C18.5057 9.72466 18.4387 9.7549 18.3666 9.7606Z" fill="#263238"/>
<path d="M18.3665 11.6063H10.88C10.8034 11.6063 10.73 11.5784 10.6758 11.5288C10.6217 11.4792 10.5912 11.4119 10.5912 11.3417C10.5912 11.2716 10.6217 11.2043 10.6758 11.1546C10.73 11.105 10.8034 11.0771 10.88 11.0771H18.3665C18.4431 11.0771 18.5166 11.105 18.5707 11.1546C18.6249 11.2043 18.6553 11.2716 18.6553 11.3417C18.6553 11.4119 18.6249 11.4792 18.5707 11.5288C18.5166 11.5784 18.4431 11.6063 18.3665 11.6063Z" fill="#263238"/>
<path d="M18.3666 13.451H2.82888C2.75686 13.4453 2.68979 13.4151 2.64092 13.3663C2.59205 13.3175 2.56494 13.2537 2.56494 13.1874C2.56494 13.1212 2.59205 13.0574 2.64092 13.0086C2.68979 12.9598 2.75686 12.9295 2.82888 12.9238H18.3666C18.4386 12.9295 18.5057 12.9598 18.5546 13.0086C18.6034 13.0574 18.6305 13.1212 18.6305 13.1874C18.6305 13.2537 18.6034 13.3175 18.5546 13.3663C18.5057 13.4151 18.4386 13.4453 18.3666 13.451Z" fill="#263238"/>
<path d="M18.3666 15.2972H2.82887C2.75228 15.2972 2.67883 15.2693 2.62468 15.2197C2.57052 15.1701 2.5401 15.1028 2.5401 15.0326C2.5401 14.9625 2.57052 14.8952 2.62468 14.8456C2.67883 14.7959 2.75228 14.7681 2.82887 14.7681H18.3666C18.4432 14.7681 18.5166 14.7959 18.5708 14.8456C18.6249 14.8952 18.6554 14.9625 18.6554 15.0326C18.6554 15.1028 18.6249 15.1701 18.5708 15.2197C18.5166 15.2693 18.4432 15.2972 18.3666 15.2972Z" fill="#263238"/>
<path d="M18.3666 17.1429H2.82887C2.75228 17.1429 2.67883 17.115 2.62468 17.0654C2.57052 17.0158 2.5401 16.9485 2.5401 16.8783C2.5401 16.8082 2.57052 16.7409 2.62468 16.6913C2.67883 16.6416 2.75228 16.6138 2.82887 16.6138H18.3666C18.4432 16.6138 18.5166 16.6416 18.5708 16.6913C18.6249 16.7409 18.6554 16.8082 18.6554 16.8783C18.6554 16.9485 18.6249 17.0158 18.5708 17.0654C18.5166 17.115 18.4432 17.1429 18.3666 17.1429V17.1429Z" fill="#263238"/>
<path d="M18.3666 18.9872H2.82888C2.75686 18.9815 2.68979 18.9512 2.64092 18.9024C2.59205 18.8536 2.56494 18.7898 2.56494 18.7236C2.56494 18.6573 2.59205 18.5935 2.64092 18.5447C2.68979 18.4959 2.75686 18.4657 2.82888 18.46H18.3666C18.4386 18.4657 18.5057 18.4959 18.5546 18.5447C18.6034 18.5935 18.6305 18.6573 18.6305 18.7236C18.6305 18.7898 18.6034 18.8536 18.5546 18.9024C18.5057 18.9512 18.4386 18.9815 18.3666 18.9872Z" fill="#263238"/>
<path d="M18.3666 20.6273H2.82888C2.75686 20.6216 2.68979 20.5914 2.64092 20.5426C2.59205 20.4938 2.56494 20.4299 2.56494 20.3637C2.56494 20.2975 2.59205 20.2336 2.64092 20.1848C2.68979 20.136 2.75686 20.1058 2.82888 20.1001H18.3666C18.4386 20.1058 18.5057 20.136 18.5546 20.1848C18.6034 20.2336 18.6305 20.2975 18.6305 20.3637C18.6305 20.4299 18.6034 20.4938 18.5546 20.5426C18.5057 20.5914 18.4386 20.6216 18.3666 20.6273V20.6273Z" fill="#263238"/>
<path d="M18.3666 22.4798H2.82887C2.75228 22.4798 2.67883 22.452 2.62468 22.4023C2.57052 22.3527 2.5401 22.2854 2.5401 22.2153C2.5401 22.1451 2.57052 22.0778 2.62468 22.0282C2.67883 21.9786 2.75228 21.9507 2.82887 21.9507H18.3666C18.4432 21.9507 18.5166 21.9786 18.5708 22.0282C18.6249 22.0778 18.6554 22.1451 18.6554 22.2153C18.6554 22.2854 18.6249 22.3527 18.5708 22.4023C18.5166 22.452 18.4432 22.4798 18.3666 22.4798V22.4798Z" fill="#263238"/>
<path d="M18.3666 24.3177H2.82888C2.75686 24.312 2.68979 24.2818 2.64092 24.233C2.59205 24.1842 2.56494 24.1204 2.56494 24.0541C2.56494 23.9879 2.59205 23.9241 2.64092 23.8753C2.68979 23.8265 2.75686 23.7962 2.82888 23.7905H18.3666C18.4386 23.7962 18.5057 23.8265 18.5546 23.8753C18.6034 23.9241 18.6305 23.9879 18.6305 24.0541C18.6305 24.1204 18.6034 24.1842 18.5546 24.233C18.5057 24.2818 18.4386 24.312 18.3666 24.3177V24.3177Z" fill="#263238"/>
<path d="M18.3666 26.1644H2.82887C2.75228 26.1644 2.67883 26.1365 2.62468 26.0869C2.57052 26.0373 2.5401 25.97 2.5401 25.8998C2.5401 25.8297 2.57052 25.7624 2.62468 25.7127C2.67883 25.6631 2.75228 25.6353 2.82887 25.6353H18.3666C18.4432 25.6353 18.5166 25.6631 18.5708 25.7127C18.6249 25.7624 18.6554 25.8297 18.6554 25.8998C18.6554 25.97 18.6249 26.0373 18.5708 26.0869C18.5166 26.1365 18.4432 26.1644 18.3666 26.1644Z" fill="#263238"/>
<path d="M18.3666 28.0091H2.82888C2.75686 28.0034 2.68979 27.9732 2.64092 27.9244C2.59205 27.8756 2.56494 27.8118 2.56494 27.7455C2.56494 27.6793 2.59205 27.6155 2.64092 27.5667C2.68979 27.5179 2.75686 27.4876 2.82888 27.4819H18.3666C18.4386 27.4876 18.5057 27.5179 18.5546 27.5667C18.6034 27.6155 18.6305 27.6793 18.6305 27.7455C18.6305 27.8118 18.6034 27.8756 18.5546 27.9244C18.5057 27.9732 18.4386 28.0034 18.3666 28.0091Z" fill="#263238"/>
<path d="M18.3666 29.8548H2.82888C2.75686 29.8491 2.68979 29.8189 2.64092 29.7701C2.59205 29.7213 2.56494 29.6575 2.56494 29.5912C2.56494 29.525 2.59205 29.4612 2.64092 29.4124C2.68979 29.3636 2.75686 29.3333 2.82888 29.3276H18.3666C18.4386 29.3333 18.5057 29.3636 18.5546 29.4124C18.6034 29.4612 18.6305 29.525 18.6305 29.5912C18.6305 29.6575 18.6034 29.7213 18.5546 29.7701C18.5057 29.8189 18.4386 29.8491 18.3666 29.8548V29.8548Z" fill="#263238"/>
<path d="M38.3663 7.91587H22.835C22.7584 7.91587 22.6849 7.888 22.6308 7.83838C22.5766 7.78876 22.5462 7.72147 22.5462 7.6513C22.5462 7.58113 22.5766 7.51383 22.6308 7.46421C22.6849 7.41459 22.7584 7.38672 22.835 7.38672H38.3663C38.4429 7.38672 38.5163 7.41459 38.5705 7.46421C38.6246 7.51383 38.655 7.58113 38.655 7.6513C38.655 7.72147 38.6246 7.78876 38.5705 7.83838C38.5163 7.888 38.4429 7.91587 38.3663 7.91587Z" fill="#263238"/>
<path d="M38.3662 9.7606H22.8349C22.795 9.76375 22.7549 9.75928 22.717 9.74746C22.6791 9.73565 22.6443 9.71675 22.6149 9.69196C22.5854 9.66718 22.5618 9.63705 22.5457 9.60348C22.5296 9.56992 22.5213 9.53366 22.5213 9.497C22.5213 9.46034 22.5296 9.42407 22.5457 9.39051C22.5618 9.35695 22.5854 9.32682 22.6149 9.30204C22.6443 9.27725 22.6791 9.25835 22.717 9.24654C22.7549 9.23472 22.795 9.23025 22.8349 9.2334H38.3662C38.4061 9.23025 38.4462 9.23472 38.4841 9.24654C38.522 9.25835 38.5568 9.27725 38.5862 9.30204C38.6157 9.32682 38.6393 9.35695 38.6554 9.39051C38.6715 9.42407 38.6798 9.46034 38.6798 9.497C38.6798 9.53366 38.6715 9.56992 38.6554 9.60348C38.6393 9.63705 38.6157 9.66718 38.5862 9.69196C38.5568 9.71675 38.522 9.73565 38.4841 9.74746C38.4462 9.75928 38.4061 9.76375 38.3662 9.7606Z" fill="#263238"/>
<path d="M38.3663 11.6063H22.835C22.7584 11.6063 22.6849 11.5784 22.6308 11.5288C22.5766 11.4792 22.5462 11.4119 22.5462 11.3417C22.5462 11.2716 22.5766 11.2043 22.6308 11.1546C22.6849 11.105 22.7584 11.0771 22.835 11.0771H38.3663C38.4429 11.0771 38.5163 11.105 38.5705 11.1546C38.6246 11.2043 38.655 11.2716 38.655 11.3417C38.655 11.4119 38.6246 11.4792 38.5705 11.5288C38.5163 11.5784 38.4429 11.6063 38.3663 11.6063Z" fill="#263238"/>
<path d="M38.3662 13.4505H22.8349C22.795 13.4537 22.7549 13.4492 22.717 13.4374C22.6791 13.4256 22.6443 13.4067 22.6149 13.3819C22.5854 13.3571 22.5618 13.327 22.5457 13.2934C22.5296 13.2599 22.5213 13.2236 22.5213 13.1869C22.5213 13.1503 22.5296 13.114 22.5457 13.0805C22.5618 13.0469 22.5854 13.0168 22.6149 12.992C22.6443 12.9672 22.6791 12.9483 22.717 12.9365C22.7549 12.9247 22.795 12.9202 22.8349 12.9233H38.3662C38.4061 12.9202 38.4462 12.9247 38.4841 12.9365C38.522 12.9483 38.5568 12.9672 38.5862 12.992C38.6157 13.0168 38.6393 13.0469 38.6554 13.0805C38.6715 13.114 38.6798 13.1503 38.6798 13.1869C38.6798 13.2236 38.6715 13.2599 38.6554 13.2934C38.6393 13.327 38.6157 13.3571 38.5862 13.3819C38.5568 13.4067 38.522 13.4256 38.4841 13.4374C38.4462 13.4492 38.4061 13.4537 38.3662 13.4505V13.4505Z" fill="#263238"/>
<path d="M38.3663 15.2972H22.835C22.7584 15.2972 22.6849 15.2693 22.6308 15.2197C22.5766 15.1701 22.5462 15.1028 22.5462 15.0326C22.5462 14.9625 22.5766 14.8952 22.6308 14.8456C22.6849 14.7959 22.7584 14.7681 22.835 14.7681H38.3663C38.4429 14.7681 38.5163 14.7959 38.5705 14.8456C38.6246 14.8952 38.655 14.9625 38.655 15.0326C38.655 15.1028 38.6246 15.1701 38.5705 15.2197C38.5163 15.2693 38.4429 15.2972 38.3663 15.2972Z" fill="#263238"/>
<path d="M38.3663 17.1429H22.835C22.797 17.1429 22.7595 17.1361 22.7245 17.1228C22.6894 17.1095 22.6576 17.09 22.6308 17.0654C22.604 17.0409 22.5827 17.0117 22.5682 16.9796C22.5537 16.9475 22.5462 16.9131 22.5462 16.8783C22.5462 16.8436 22.5537 16.8092 22.5682 16.7771C22.5827 16.745 22.604 16.7158 22.6308 16.6913C22.6576 16.6667 22.6894 16.6472 22.7245 16.6339C22.7595 16.6206 22.797 16.6138 22.835 16.6138H38.3663C38.4042 16.6138 38.4417 16.6206 38.4768 16.6339C38.5118 16.6472 38.5436 16.6667 38.5705 16.6913C38.5973 16.7158 38.6185 16.745 38.6331 16.7771C38.6476 16.8092 38.655 16.8436 38.655 16.8783C38.655 16.9131 38.6476 16.9475 38.6331 16.9796C38.6185 17.0117 38.5973 17.0409 38.5705 17.0654C38.5436 17.09 38.5118 17.1095 38.4768 17.1228C38.4417 17.1361 38.4042 17.1429 38.3663 17.1429V17.1429Z" fill="#263238"/>
<path d="M38.3662 18.9867H22.8349C22.795 18.9898 22.7549 18.9854 22.717 18.9735C22.6791 18.9617 22.6443 18.9428 22.6149 18.918C22.5854 18.8933 22.5618 18.8631 22.5457 18.8296C22.5296 18.796 22.5213 18.7597 22.5213 18.7231C22.5213 18.6864 22.5296 18.6501 22.5457 18.6166C22.5618 18.583 22.5854 18.5529 22.6149 18.5281C22.6443 18.5033 22.6791 18.4844 22.717 18.4726C22.7549 18.4608 22.795 18.4563 22.8349 18.4595H38.3662C38.4061 18.4563 38.4462 18.4608 38.4841 18.4726C38.522 18.4844 38.5568 18.5033 38.5862 18.5281C38.6157 18.5529 38.6393 18.583 38.6554 18.6166C38.6715 18.6501 38.6798 18.6864 38.6798 18.7231C38.6798 18.7597 38.6715 18.796 38.6554 18.8296C38.6393 18.8631 38.6157 18.8933 38.5862 18.918C38.5568 18.9428 38.522 18.9617 38.4841 18.9735C38.4462 18.9854 38.4061 18.9898 38.3662 18.9867V18.9867Z" fill="#263238"/>
<path d="M38.6465 20.2275H22.8179V30.3422H38.6465V20.2275Z" fill="#C2B894"/>
<path opacity="0.6" d="M38.6465 20.2275H22.8179V30.3422H38.6465V20.2275Z" fill="white"/>
<path d="M8.24473 8.43943C8.28862 8.31664 8.31171 8.18842 8.31318 8.05922C8.31318 7.5869 7.79126 7.55946 7.27576 7.55946H7.14743V7.44775H9.38268V7.55946C8.80087 7.55946 8.59553 7.89852 8.4073 8.40611L7.21801 11.6712C7.12817 11.9123 7.05331 12.0926 6.7731 12.0926H6.74957L5.69932 8.97446L4.71538 11.6712C4.6234 11.9123 4.54853 12.0926 4.26833 12.0926H4.24908L2.72183 7.55946H2.18494V7.44775H4.15068V7.55946H3.5924L4.72607 11.1362H4.77099L5.62659 8.75104L5.2266 7.55946H4.68971V7.44775H6.65545V7.55946H6.09503L7.23085 11.1362H7.27576L8.24473 8.43943Z" fill="#263238"/>
<path d="M44.178 6.2915H28.0457V45.9409H44.178V6.2915Z" fill="#C2B894"/>
<path opacity="0.4" d="M44.178 6.2915H28.0457V45.9409H44.178V6.2915Z" fill="white"/>
<path d="M68.0001 4.80762H29.252V49.8407H68.0001V4.80762Z" fill="white" stroke="#263238" stroke-width="0.75" stroke-linecap="round" stroke-linejoin="round"/>
<path d="M68.0001 4.80762H29.252V7.49455H68.0001V4.80762Z" fill="#263238" stroke="#263238" stroke-width="0.75" stroke-linecap="round" stroke-linejoin="round"/>
<path d="M55.9103 11.1846H42.3041V34.4889H55.9103V11.1846Z" fill="#C2B894"/>
<path opacity="0.6" d="M55.9103 11.1846H42.3041V34.4889H55.9103V11.1846Z" fill="white"/>
<path d="M66.8942 36.2139H30.36V48.9508H66.8942V36.2139Z" fill="#C2B894"/>
<path opacity="0.6" d="M66.8942 36.2139H30.36V48.9508H66.8942V36.2139Z" fill="white"/>
<path d="M66.8942 5.87061H30.36V8.95734H66.8942V5.87061Z" fill="#C2B894"/>
<path opacity="0.6" d="M66.8942 5.87061H30.36V8.95734H66.8942V5.87061Z" fill="white"/>
<path d="M66.3807 6.46973H31.0166V7.83573H66.3807V6.46973Z" fill="white"/>
<path d="M66.3785 6.46973H62.3743V7.83573H66.3785V6.46973Z" fill="#263238" stroke="#263238" stroke-width="0.75" stroke-linecap="round" stroke-linejoin="round"/>
<path d="M40.0176 11.722H30.6937C30.6538 11.7252 30.6136 11.7207 30.5758 11.7089C30.5379 11.6971 30.5031 11.6782 30.4736 11.6534C30.4441 11.6286 30.4206 11.5985 30.4045 11.5649C30.3884 11.5314 30.3801 11.4951 30.3801 11.4584C30.3801 11.4218 30.3884 11.3855 30.4045 11.3519C30.4206 11.3184 30.4441 11.2882 30.4736 11.2635C30.5031 11.2387 30.5379 11.2198 30.5758 11.208C30.6136 11.1961 30.6538 11.1917 30.6937 11.1948H40.0176C40.0574 11.1917 40.0976 11.1961 40.1355 11.208C40.1733 11.2198 40.2081 11.2387 40.2376 11.2635C40.2671 11.2882 40.2906 11.3184 40.3067 11.3519C40.3229 11.3855 40.3312 11.4218 40.3312 11.4584C40.3312 11.4951 40.3229 11.5314 40.3067 11.5649C40.2906 11.5985 40.2671 11.6286 40.2376 11.6534C40.2081 11.6782 40.1733 11.6971 40.1355 11.7089C40.0976 11.7207 40.0574 11.7252 40.0176 11.722V11.722Z" fill="#263238"/>
<path d="M40.0176 13.5677H30.6937C30.6171 13.5677 30.5436 13.5399 30.4895 13.4902C30.4353 13.4406 30.4049 13.3733 30.4049 13.3031C30.4049 13.233 30.4353 13.1657 30.4895 13.1161C30.5436 13.0664 30.6171 13.0386 30.6937 13.0386H40.0176C40.0942 13.0386 40.1676 13.0664 40.2218 13.1161C40.2759 13.1657 40.3064 13.233 40.3064 13.3031C40.3064 13.3733 40.2759 13.4406 40.2218 13.4902C40.1676 13.5399 40.0942 13.5677 40.0176 13.5677V13.5677Z" fill="#263238"/>
<path d="M40.0176 15.4125H30.6937C30.6538 15.4156 30.6136 15.4111 30.5758 15.3993C30.5379 15.3875 30.5031 15.3686 30.4736 15.3438C30.4441 15.319 30.4206 15.2889 30.4045 15.2553C30.3884 15.2218 30.3801 15.1855 30.3801 15.1489C30.3801 15.1122 30.3884 15.0759 30.4045 15.0424C30.4206 15.0088 30.4441 14.9787 30.4736 14.9539C30.5031 14.9291 30.5379 14.9102 30.5758 14.8984C30.6136 14.8866 30.6538 14.8821 30.6937 14.8853H40.0176C40.0574 14.8821 40.0976 14.8866 40.1355 14.8984C40.1733 14.9102 40.2081 14.9291 40.2376 14.9539C40.2671 14.9787 40.2906 15.0088 40.3067 15.0424C40.3229 15.0759 40.3312 15.1122 40.3312 15.1489C40.3312 15.1855 40.3229 15.2218 40.3067 15.2553C40.2906 15.2889 40.2671 15.319 40.2376 15.3438C40.2081 15.3686 40.1733 15.3875 40.1355 15.3993C40.0976 15.4111 40.0574 15.4156 40.0176 15.4125V15.4125Z" fill="#263238"/>
<path d="M40.0176 17.2591H30.6937C30.6558 17.2591 30.6182 17.2523 30.5832 17.239C30.5481 17.2257 30.5163 17.2062 30.4895 17.1816C30.4627 17.1571 30.4414 17.1279 30.4269 17.0958C30.4124 17.0637 30.4049 17.0293 30.4049 16.9946C30.4049 16.9598 30.4124 16.9254 30.4269 16.8933C30.4414 16.8612 30.4627 16.832 30.4895 16.8075C30.5163 16.7829 30.5481 16.7634 30.5832 16.7501C30.6182 16.7368 30.6558 16.73 30.6937 16.73H40.0176C40.0942 16.73 40.1676 16.7579 40.2218 16.8075C40.2759 16.8571 40.3064 16.9244 40.3064 16.9946C40.3064 17.0647 40.2759 17.132 40.2218 17.1816C40.1676 17.2313 40.0942 17.2591 40.0176 17.2591V17.2591Z" fill="#263238"/>
<path d="M40.0176 19.1029H30.6937C30.6538 19.106 30.6136 19.1016 30.5758 19.0897C30.5379 19.0779 30.5031 19.059 30.4736 19.0342C30.4441 19.0095 30.4206 18.9793 30.4045 18.9458C30.3884 18.9122 30.3801 18.8759 30.3801 18.8393C30.3801 18.8026 30.3884 18.7664 30.4045 18.7328C30.4206 18.6992 30.4441 18.6691 30.4736 18.6443C30.5031 18.6195 30.5379 18.6006 30.5758 18.5888C30.6136 18.577 30.6538 18.5725 30.6937 18.5757H40.0176C40.0574 18.5725 40.0976 18.577 40.1355 18.5888C40.1733 18.6006 40.2081 18.6195 40.2376 18.6443C40.2671 18.6691 40.2906 18.6992 40.3067 18.7328C40.3229 18.7664 40.3312 18.8026 40.3312 18.8393C40.3312 18.8759 40.3229 18.9122 40.3067 18.9458C40.2906 18.9793 40.2671 19.0095 40.2376 19.0342C40.2081 19.059 40.1733 19.0779 40.1355 19.0897C40.0976 19.1016 40.0574 19.106 40.0176 19.1029V19.1029Z" fill="#263238"/>
<path d="M40.0176 20.9496H30.6937C30.6538 20.9527 30.6136 20.9482 30.5758 20.9364C30.5379 20.9246 30.5031 20.9057 30.4736 20.8809C30.4441 20.8561 30.4206 20.826 30.4045 20.7925C30.3884 20.7589 30.3801 20.7226 30.3801 20.686C30.3801 20.6493 30.3884 20.613 30.4045 20.5795C30.4206 20.5459 30.4441 20.5158 30.4736 20.491C30.5031 20.4662 30.5379 20.4473 30.5758 20.4355C30.6136 20.4237 30.6538 20.4192 30.6937 20.4224H40.0176C40.0574 20.4192 40.0976 20.4237 40.1355 20.4355C40.1733 20.4473 40.2081 20.4662 40.2376 20.491C40.2671 20.5158 40.2906 20.5459 40.3067 20.5795C40.3229 20.613 40.3312 20.6493 40.3312 20.686C40.3312 20.7226 40.3229 20.7589 40.3067 20.7925C40.2906 20.826 40.2671 20.8561 40.2376 20.8809C40.2081 20.9057 40.1733 20.9246 40.1355 20.9364C40.0976 20.9482 40.0574 20.9527 40.0176 20.9496V20.9496Z" fill="#263238"/>
<path d="M40.0176 22.7953H30.6937C30.6558 22.7953 30.6182 22.7884 30.5832 22.7751C30.5481 22.7618 30.5163 22.7423 30.4895 22.7178C30.4627 22.6932 30.4414 22.664 30.4269 22.6319C30.4124 22.5998 30.4049 22.5654 30.4049 22.5307C30.4049 22.4959 30.4124 22.4615 30.4269 22.4294C30.4414 22.3973 30.4627 22.3682 30.4895 22.3436C30.5163 22.319 30.5481 22.2995 30.5832 22.2863C30.6182 22.273 30.6558 22.2661 30.6937 22.2661H40.0176C40.0942 22.2661 40.1676 22.294 40.2218 22.3436C40.2759 22.3932 40.3064 22.4605 40.3064 22.5307C40.3064 22.6009 40.2759 22.6682 40.2218 22.7178C40.1676 22.7674 40.0942 22.7953 40.0176 22.7953V22.7953Z" fill="#263238"/>
<path d="M40.0176 24.4393H30.6937C30.6171 24.4393 30.5436 24.4114 30.4895 24.3618C30.4353 24.3122 30.4049 24.2449 30.4049 24.1747C30.4049 24.1046 30.4353 24.0373 30.4895 23.9876C30.5436 23.938 30.6171 23.9102 30.6937 23.9102H40.0176C40.0942 23.9102 40.1676 23.938 40.2218 23.9876C40.2759 24.0373 40.3064 24.1046 40.3064 24.1747C40.3064 24.2449 40.2759 24.3122 40.2218 24.3618C40.1676 24.4114 40.0942 24.4393 40.0176 24.4393Z" fill="#263238"/>
<path d="M40.0176 26.2801H30.6937C30.6538 26.2833 30.6136 26.2788 30.5758 26.267C30.5379 26.2552 30.5031 26.2363 30.4736 26.2115C30.4441 26.1867 30.4206 26.1566 30.4045 26.123C30.3884 26.0895 30.3801 26.0532 30.3801 26.0165C30.3801 25.9799 30.3884 25.9436 30.4045 25.91C30.4206 25.8765 30.4441 25.8464 30.4736 25.8216C30.5031 25.7968 30.5379 25.7779 30.5758 25.7661C30.6136 25.7543 30.6538 25.7498 30.6937 25.7529H40.0176C40.0574 25.7498 40.0976 25.7543 40.1355 25.7661C40.1733 25.7779 40.2081 25.7968 40.2376 25.8216C40.2671 25.8464 40.2906 25.8765 40.3067 25.91C40.3229 25.9436 40.3312 25.9799 40.3312 26.0165C40.3312 26.0532 40.3229 26.0895 40.3067 26.123C40.2906 26.1566 40.2671 26.1867 40.2376 26.2115C40.2081 26.2363 40.1733 26.2552 40.1355 26.267C40.0976 26.2788 40.0574 26.2833 40.0176 26.2801V26.2801Z" fill="#263238"/>
<path d="M40.0176 28.1258H30.6937C30.6171 28.1258 30.5436 28.098 30.4895 28.0483C30.4353 27.9987 30.4049 27.9314 30.4049 27.8613C30.4049 27.7911 30.4353 27.7238 30.4895 27.6742C30.5436 27.6246 30.6171 27.5967 30.6937 27.5967H40.0176C40.0942 27.5967 40.1676 27.6246 40.2218 27.6742C40.2759 27.7238 40.3064 27.7911 40.3064 27.8613C40.3064 27.9314 40.2759 27.9987 40.2218 28.0483C40.1676 28.098 40.0942 28.1258 40.0176 28.1258Z" fill="#263238"/>
<path d="M40.0176 29.9696H30.6937C30.6538 29.9727 30.6136 29.9683 30.5758 29.9564C30.5379 29.9446 30.5031 29.9257 30.4736 29.9009C30.4441 29.8762 30.4206 29.846 30.4045 29.8125C30.3884 29.7789 30.3801 29.7426 30.3801 29.706C30.3801 29.6693 30.3884 29.6331 30.4045 29.5995C30.4206 29.5659 30.4441 29.5358 30.4736 29.511C30.5031 29.4862 30.5379 29.4673 30.5758 29.4555C30.6136 29.4437 30.6538 29.4392 30.6937 29.4424H40.0176C40.0574 29.4392 40.0976 29.4437 40.1355 29.4555C40.1733 29.4673 40.2081 29.4862 40.2376 29.511C40.2671 29.5358 40.2906 29.5659 40.3067 29.5995C40.3229 29.6331 40.3312 29.6693 40.3312 29.706C40.3312 29.7426 40.3229 29.7789 40.3067 29.8125C40.2906 29.846 40.2671 29.8762 40.2376 29.9009C40.2081 29.9257 40.1733 29.9446 40.1355 29.9564C40.0976 29.9683 40.0574 29.9727 40.0176 29.9696Z" fill="#263238"/>
<path d="M40.0176 31.8163H30.6937C30.6171 31.8163 30.5436 31.7884 30.4895 31.7388C30.4353 31.6892 30.4049 31.6219 30.4049 31.5517C30.4049 31.4815 30.4353 31.4142 30.4895 31.3646C30.5436 31.315 30.6171 31.2871 30.6937 31.2871H40.0176C40.0942 31.2871 40.1676 31.315 40.2218 31.3646C40.2759 31.4142 40.3064 31.4815 40.3064 31.5517C40.3064 31.6219 40.2759 31.6892 40.2218 31.7388C40.1676 31.7884 40.0942 31.8163 40.0176 31.8163Z" fill="#263238"/>
<path d="M40.0176 33.6605H30.6937C30.6538 33.6637 30.6136 33.6592 30.5758 33.6474C30.5379 33.6355 30.5031 33.6167 30.4736 33.5919C30.4441 33.5671 30.4206 33.537 30.4045 33.5034C30.3884 33.4698 30.3801 33.4336 30.3801 33.3969C30.3801 33.3602 30.3884 33.324 30.4045 33.2904C30.4206 33.2569 30.4441 33.2267 30.4736 33.2019C30.5031 33.1772 30.5379 33.1583 30.5758 33.1464C30.6136 33.1346 30.6538 33.1302 30.6937 33.1333H40.0176C40.0574 33.1302 40.0976 33.1346 40.1355 33.1464C40.1733 33.1583 40.2081 33.1772 40.2376 33.2019C40.2671 33.2267 40.2906 33.2569 40.3067 33.2904C40.3229 33.324 40.3312 33.3602 40.3312 33.3969C40.3312 33.4336 40.3229 33.4698 40.3067 33.5034C40.2906 33.537 40.2671 33.5671 40.2376 33.5919C40.2081 33.6167 40.1733 33.6355 40.1355 33.6474C40.0976 33.6592 40.0574 33.6637 40.0176 33.6605V33.6605Z" fill="#263238"/>
<path d="M40.0176 35.5067H30.6937C30.6538 35.5098 30.6136 35.5054 30.5758 35.4936C30.5379 35.4817 30.5031 35.4628 30.4736 35.4381C30.4441 35.4133 30.4206 35.3831 30.4045 35.3496C30.3884 35.316 30.3801 35.2798 30.3801 35.2431C30.3801 35.2064 30.3884 35.1702 30.4045 35.1366C30.4206 35.103 30.4441 35.0729 30.4736 35.0481C30.5031 35.0233 30.5379 35.0044 30.5758 34.9926C30.6136 34.9808 30.6538 34.9763 30.6937 34.9795H40.0176C40.0574 34.9763 40.0976 34.9808 40.1355 34.9926C40.1733 35.0044 40.2081 35.0233 40.2376 35.0481C40.2671 35.0729 40.2906 35.103 40.3067 35.1366C40.3229 35.1702 40.3312 35.2064 40.3312 35.2431C40.3312 35.2798 40.3229 35.316 40.3067 35.3496C40.2906 35.3831 40.2671 35.4133 40.2376 35.4381C40.2081 35.4628 40.1733 35.4817 40.1355 35.4936C40.0976 35.5054 40.0574 35.5098 40.0176 35.5067V35.5067Z" fill="#263238"/>
<path d="M66.8235 11.722H57.5103C57.4704 11.7252 57.4302 11.7207 57.3924 11.7089C57.3545 11.6971 57.3197 11.6782 57.2902 11.6534C57.2607 11.6286 57.2372 11.5985 57.2211 11.5649C57.205 11.5314 57.1967 11.4951 57.1967 11.4584C57.1967 11.4218 57.205 11.3855 57.2211 11.3519C57.2372 11.3184 57.2607 11.2882 57.2902 11.2635C57.3197 11.2387 57.3545 11.2198 57.3924 11.208C57.4302 11.1961 57.4704 11.1917 57.5103 11.1948H66.8342C66.874 11.1917 66.9142 11.1961 66.9521 11.208C66.9899 11.2198 67.0247 11.2387 67.0542 11.2635C67.0837 11.2882 67.1072 11.3184 67.1233 11.3519C67.1395 11.3855 67.1478 11.4218 67.1478 11.4584C67.1478 11.4951 67.1395 11.5314 67.1233 11.5649C67.1072 11.5985 67.0837 11.6286 67.0542 11.6534C67.0247 11.6782 66.9899 11.6971 66.9521 11.7089C66.9142 11.7207 66.874 11.7252 66.8342 11.722H66.8235Z" fill="#263238"/>
<path d="M66.8236 13.5677H57.5104C57.4725 13.5677 57.4349 13.5609 57.3999 13.5476C57.3648 13.5343 57.333 13.5148 57.3062 13.4902C57.2794 13.4657 57.2581 13.4365 57.2436 13.4044C57.2291 13.3723 57.2216 13.3379 57.2216 13.3031C57.2216 13.2684 57.2291 13.234 57.2436 13.2019C57.2581 13.1698 57.2794 13.1406 57.3062 13.1161C57.333 13.0915 57.3648 13.072 57.3999 13.0587C57.4349 13.0454 57.4725 13.0386 57.5104 13.0386H66.8343C66.9109 13.0386 66.9843 13.0664 67.0385 13.1161C67.0926 13.1657 67.1231 13.233 67.1231 13.3031C67.1231 13.3733 67.0926 13.4406 67.0385 13.4902C66.9843 13.5399 66.9109 13.5677 66.8343 13.5677H66.8236Z" fill="#263238"/>
<path d="M66.8235 15.4125H57.5103C57.4704 15.4156 57.4302 15.4111 57.3924 15.3993C57.3545 15.3875 57.3197 15.3686 57.2902 15.3438C57.2607 15.319 57.2372 15.2889 57.2211 15.2553C57.205 15.2218 57.1967 15.1855 57.1967 15.1489C57.1967 15.1122 57.205 15.0759 57.2211 15.0424C57.2372 15.0088 57.2607 14.9787 57.2902 14.9539C57.3197 14.9291 57.3545 14.9102 57.3924 14.8984C57.4302 14.8866 57.4704 14.8821 57.5103 14.8853H66.8342C66.874 14.8821 66.9142 14.8866 66.9521 14.8984C66.9899 14.9102 67.0247 14.9291 67.0542 14.9539C67.0837 14.9787 67.1072 15.0088 67.1233 15.0424C67.1395 15.0759 67.1478 15.1122 67.1478 15.1489C67.1478 15.1855 67.1395 15.2218 67.1233 15.2553C67.1072 15.2889 67.0837 15.319 67.0542 15.3438C67.0247 15.3686 66.9899 15.3875 66.9521 15.3993C66.9142 15.4111 66.874 15.4156 66.8342 15.4125H66.8235Z" fill="#263238"/>
<path d="M66.8236 17.2591H57.5104C57.4725 17.2591 57.4349 17.2523 57.3999 17.239C57.3648 17.2257 57.333 17.2062 57.3062 17.1816C57.2794 17.1571 57.2581 17.1279 57.2436 17.0958C57.2291 17.0637 57.2216 17.0293 57.2216 16.9946C57.2216 16.9598 57.2291 16.9254 57.2436 16.8933C57.2581 16.8612 57.2794 16.832 57.3062 16.8075C57.333 16.7829 57.3648 16.7634 57.3999 16.7501C57.4349 16.7368 57.4725 16.73 57.5104 16.73H66.8343C66.9109 16.73 66.9843 16.7579 67.0385 16.8075C67.0926 16.8571 67.1231 16.9244 67.1231 16.9946C67.1231 17.0647 67.0926 17.132 67.0385 17.1816C66.9843 17.2313 66.9109 17.2591 66.8343 17.2591H66.8236Z" fill="#263238"/>
<path d="M66.8235 19.1029H57.5103C57.4704 19.106 57.4302 19.1016 57.3924 19.0897C57.3545 19.0779 57.3197 19.059 57.2902 19.0342C57.2607 19.0095 57.2372 18.9793 57.2211 18.9458C57.205 18.9122 57.1967 18.8759 57.1967 18.8393C57.1967 18.8026 57.205 18.7664 57.2211 18.7328C57.2372 18.6992 57.2607 18.6691 57.2902 18.6443C57.3197 18.6195 57.3545 18.6006 57.3924 18.5888C57.4302 18.577 57.4704 18.5725 57.5103 18.5757H66.8342C66.874 18.5725 66.9142 18.577 66.9521 18.5888C66.9899 18.6006 67.0247 18.6195 67.0542 18.6443C67.0837 18.6691 67.1072 18.6992 67.1233 18.7328C67.1395 18.7664 67.1478 18.8026 67.1478 18.8393C67.1478 18.8759 67.1395 18.9122 67.1233 18.9458C67.1072 18.9793 67.0837 19.0095 67.0542 19.0342C67.0247 19.059 66.9899 19.0779 66.9521 19.0897C66.9142 19.1016 66.874 19.106 66.8342 19.1029H66.8235Z" fill="#263238"/>
<path d="M66.8235 20.9496H57.5103C57.4704 20.9527 57.4302 20.9482 57.3924 20.9364C57.3545 20.9246 57.3197 20.9057 57.2902 20.8809C57.2607 20.8561 57.2372 20.826 57.2211 20.7925C57.205 20.7589 57.1967 20.7226 57.1967 20.686C57.1967 20.6493 57.205 20.613 57.2211 20.5795C57.2372 20.5459 57.2607 20.5158 57.2902 20.491C57.3197 20.4662 57.3545 20.4473 57.3924 20.4355C57.4302 20.4237 57.4704 20.4192 57.5103 20.4224H66.8342C66.874 20.4192 66.9142 20.4237 66.9521 20.4355C66.9899 20.4473 67.0247 20.4662 67.0542 20.491C67.0837 20.5158 67.1072 20.5459 67.1233 20.5795C67.1395 20.613 67.1478 20.6493 67.1478 20.686C67.1478 20.7226 67.1395 20.7589 67.1233 20.7925C67.1072 20.826 67.0837 20.8561 67.0542 20.8809C67.0247 20.9057 66.9899 20.9246 66.9521 20.9364C66.9142 20.9482 66.874 20.9527 66.8342 20.9496H66.8235Z" fill="#263238"/>
<path d="M66.8236 22.7953H57.5104C57.4725 22.7953 57.4349 22.7884 57.3999 22.7751C57.3648 22.7618 57.333 22.7423 57.3062 22.7178C57.2794 22.6932 57.2581 22.664 57.2436 22.6319C57.2291 22.5998 57.2216 22.5654 57.2216 22.5307C57.2216 22.4959 57.2291 22.4615 57.2436 22.4294C57.2581 22.3973 57.2794 22.3682 57.3062 22.3436C57.333 22.319 57.3648 22.2995 57.3999 22.2863C57.4349 22.273 57.4725 22.2661 57.5104 22.2661H66.8343C66.9109 22.2661 66.9843 22.294 67.0385 22.3436C67.0926 22.3932 67.1231 22.4605 67.1231 22.5307C67.1231 22.6009 67.0926 22.6682 67.0385 22.7178C66.9843 22.7674 66.9109 22.7953 66.8343 22.7953H66.8236Z" fill="#263238"/>
<path d="M66.9005 24.0337H57.2772V34.1484H66.9005V24.0337Z" fill="#C2B894"/>
<path opacity="0.6" d="M66.9005 24.0337H57.2772V34.1484H66.9005V24.0337Z" fill="white"/>
<path d="M45.8612 40.1186C45.6069 40.0315 45.4007 39.8554 45.288 39.629C45.1753 39.4026 45.1653 39.1445 45.2602 38.9114L48.1478 31.8384C48.1949 31.7225 48.2664 31.6163 48.3582 31.5258C48.4501 31.4353 48.5605 31.3623 48.6831 31.3109C48.8058 31.2595 48.9383 31.2307 49.0731 31.2262C49.2078 31.2217 49.3423 31.2416 49.4687 31.2847C49.5951 31.3278 49.711 31.3933 49.8098 31.4775C49.9085 31.5616 49.9883 31.6628 50.0444 31.7751C50.1005 31.8875 50.1319 32.0089 50.1368 32.1324C50.1417 32.2559 50.12 32.3791 50.0729 32.4949L47.1853 39.5679C47.1382 39.684 47.0665 39.7904 46.9744 39.881C46.8822 39.9716 46.7714 40.0446 46.6484 40.0958C46.5253 40.147 46.3924 40.1754 46.2573 40.1793C46.1222 40.1832 45.9876 40.1626 45.8612 40.1186V40.1186Z" fill="white" stroke="#263238" stroke-width="0.75" stroke-linecap="round" stroke-linejoin="round"/>
<path d="M49.1853 33.1118L47.5639 37.0158" stroke="#263238" stroke-width="0.75" stroke-linecap="round" stroke-linejoin="round"/>
<path d="M41.4678 50.8968C41.2438 50.8203 41.0384 50.7041 40.8634 50.5548C40.6884 50.4055 40.5472 50.2261 40.4478 50.0268C40.3485 49.8275 40.293 49.6123 40.2845 49.3933C40.276 49.1744 40.3147 48.956 40.3983 48.7508L44.5202 38.6518C44.6904 38.2372 45.0333 37.9016 45.4736 37.7188C45.9138 37.5359 46.4153 37.5208 46.8677 37.6768C47.3202 37.8327 47.6864 38.1469 47.886 38.5503C48.0856 38.9537 48.1021 39.4131 47.9319 39.8277L43.8015 49.9169C43.6327 50.3296 43.2925 50.6643 42.8553 50.8479C42.418 51.0315 41.9192 51.0491 41.4678 50.8968V50.8968Z" fill="#263238" stroke="#263238" stroke-width="0.75" stroke-linecap="round" stroke-linejoin="round"/>
<path d="M56.7681 13.6961C54.7131 12.992 52.4764 12.8621 50.3408 13.3227C48.2052 13.7833 46.2667 14.8138 44.7703 16.2839C43.2739 17.7539 42.287 19.5976 41.9342 21.5816C41.5814 23.5656 41.8786 25.6009 42.7883 27.4302C43.698 29.2594 45.1793 30.8004 47.0448 31.8583C48.9104 32.9162 51.0764 33.4435 53.2691 33.3735C55.4617 33.3035 57.5824 32.6393 59.3631 31.4649C61.1437 30.2906 62.5043 28.6589 63.2728 26.776C64.3027 24.2512 64.196 21.4549 62.9762 19.0021C61.7564 16.5492 59.5234 14.6407 56.7681 13.6961V13.6961ZM49.6687 31.0877C47.9698 30.5052 46.4974 29.4742 45.438 28.1251C44.3785 26.776 43.7794 25.1694 43.7165 23.5083C43.6535 21.8473 44.1296 20.2064 45.0844 18.7933C46.0393 17.3801 47.43 16.2581 49.0808 15.5691C50.7316 14.8801 52.5684 14.6551 54.3587 14.9225C56.1491 15.19 57.8127 15.9378 59.1392 17.0715C60.4657 18.2051 61.3955 19.6738 61.8111 21.2916C62.2267 22.9095 62.1093 24.6039 61.4739 26.1606C60.6212 28.2481 58.8986 29.9398 56.6848 30.8638C54.471 31.7877 51.9473 31.8683 49.6687 31.0877V31.0877Z" fill="#263238" stroke="#263238" stroke-width="0.75" stroke-linecap="round" stroke-linejoin="round"/>
<path d="M45.4443 20.1282C45.8894 19.229 46.5246 18.4196 47.3132 17.7468C48.1019 17.074 49.0283 16.5512 50.0389 16.2085" stroke="#263238" stroke-width="0.75" stroke-linecap="round" stroke-linejoin="round"/>
<path d="M44.7105 23.2406C44.7082 22.4783 44.8338 21.7201 45.0827 20.9927" stroke="#263238" stroke-width="0.75" stroke-linecap="round" stroke-linejoin="round"/>
<path d="M42.3663 25.314C41.8139 22.9831 42.2024 20.5477 43.4596 18.459C44.7169 16.3704 46.7577 14.77 49.2041 13.9544C51.6505 13.1387 54.3366 13.1631 56.7649 14.023C59.1932 14.8828 61.199 16.5199 62.4109 18.631" stroke="white" stroke-miterlimit="10"/>
<path d="M63.5701 22.041C63.8837 24.3895 63.2652 26.763 61.8277 28.7285C60.3901 30.694 58.2292 32.1204 55.7393 32.7476C53.2494 33.3747 50.5963 33.1607 48.2642 32.1447C45.9321 31.1287 44.0764 29.3784 43.0357 27.213" stroke="white" stroke-miterlimit="10"/>
<path d="M62.8428 19.4829C63.1221 20.1065 63.3307 20.7546 63.4653 21.4173" stroke="white" stroke-miterlimit="10"/>
</svg>
