<svg width="77" height="67" viewBox="0 0 77 67" fill="none" xmlns="http://www.w3.org/2000/svg">
<path d="M74.1724 38.8698L56.5181 28.6793C56.2381 28.5217 55.9218 28.4397 55.6005 28.4416C55.319 28.4375 55.0413 28.5068 54.7947 28.6426L43.9923 34.8793C43.9609 34.8968 43.9329 34.9142 43.9049 34.9335L43.8665 34.9597L43.8333 34.9876L43.7791 35.0348C43.7442 35.0663 43.7109 35.0995 43.6795 35.1345C43.5754 35.2524 43.4979 35.3913 43.4522 35.5417C43.4209 35.6419 43.405 35.7462 43.405 35.8511C43.4126 36.0654 43.4763 36.274 43.5898 36.4559C43.7033 36.6378 43.8626 36.7867 44.0518 36.8877L61.7061 47.0765C61.9868 47.2339 62.3036 47.3158 62.6255 47.3142C62.9076 47.319 63.1861 47.2497 63.433 47.1132L74.2424 40.8782C74.4146 40.7816 74.5586 40.6415 74.6598 40.4719C74.761 40.3023 74.816 40.1091 74.8192 39.9116C74.8126 39.6964 74.7493 39.4868 74.6357 39.3039C74.5222 39.121 74.3624 38.9712 74.1724 38.8698Z" fill="#E0E0E0"/>
<path d="M34.7196 35.3316C26.7751 30.7397 13.8997 30.7397 5.95704 35.3316C1.99094 37.6214 0.00526592 40.6209 0.00177002 43.6239C0.00177002 44.1972 0.00177002 46.4783 0.00177002 47.0481C0.00177002 50.0546 1.98569 53.0611 5.95704 55.3561L7.19633 54.6395V51.2205L6.56532 50.8831C3.85949 49.3187 2.11155 47.3959 1.48403 45.3439C2.11155 43.29 3.85949 41.3655 6.56532 39.8046C13.9557 35.5361 25.854 35.4207 33.4838 39.455L34.7073 38.7453L34.7196 35.3316Z" fill="#D7CEAF"/>
<path opacity="0.15" d="M34.7196 35.3316C26.7751 30.7397 13.8997 30.7397 5.95704 35.3316C1.99094 37.6214 0.00526592 40.6209 0.00177002 43.6239C0.00177002 44.1972 0.00177002 46.4783 0.00177002 47.0481C0.00177002 50.0546 1.98569 53.0611 5.95704 55.3561L7.19633 54.6395V51.2205L6.56532 50.8831C3.85949 49.3187 2.11155 47.3959 1.48403 45.3439C2.11155 43.29 3.85949 41.3655 6.56532 39.8046C13.9557 35.5361 25.854 35.4207 33.4838 39.455L34.7073 38.7453L34.7196 35.3316Z" fill="black"/>
<path d="M5.95701 35.332C-1.98567 39.9169 -1.98567 47.3509 5.95701 51.9375L7.19631 51.2208L6.5653 50.8835C3.11834 48.8908 1.21832 46.3178 1.21832 43.6347C1.21832 40.9516 3.11834 38.3752 6.5653 36.386C13.9556 32.1175 25.8539 32.0039 33.4837 36.0364L34.7073 35.325C26.7751 30.7401 13.8997 30.7401 5.95701 35.332Z" fill="#D7CEAF"/>
<path opacity="0.15" d="M5.95703 51.9374L7.19633 51.2207V54.6397L5.95703 55.3563V51.9374Z" fill="black"/>
<path opacity="0.15" d="M33.4872 36.043L34.7195 35.3315V38.7505L33.4872 39.4602V36.043Z" fill="black"/>
<path d="M7.19628 51.2207L5.72626 52.0702L9.68362 54.3548L11.1519 53.5053L7.19628 51.2207Z" fill="#455A64"/>
<path d="M5.72626 55.4963V52.0703L9.68362 54.3549V57.7809L5.72626 55.4963Z" fill="#37474F"/>
<path d="M11.1519 53.5054V56.9314L9.68363 57.7809L9.68188 54.3549L11.1519 53.5054Z" fill="#263238"/>
<path d="M8.69429 53.7832L8.46881 54.3163C8.4502 54.3629 8.44186 54.413 8.44434 54.4632V57.8717C8.44187 57.9342 8.45622 57.9962 8.4859 58.0513C8.51558 58.1064 8.55949 58.1525 8.61306 58.1848C8.66663 58.2171 8.72788 58.2344 8.79044 58.235C8.853 58.2356 8.91457 58.2194 8.96872 58.188L9.6679 57.7808V54.3548L8.69429 53.7832Z" fill="#263238"/>
<path d="M9.68191 54.3549L8.98273 54.7622C8.90606 54.8085 8.81454 54.8237 8.72705 54.8045C8.63956 54.7853 8.56277 54.7332 8.51253 54.6591C8.47608 54.6092 8.45349 54.5506 8.44704 54.4892C8.44059 54.4278 8.45052 54.3658 8.47582 54.3095L8.70131 53.7764L9.68191 54.3549Z" fill="#455A64"/>
<path d="M10.7464 54.0767V56.8297L10.0892 57.209V54.456L10.7464 54.0767Z" fill="black"/>
<path d="M39.7099 36.945C39.6924 36.889 39.605 36.8349 39.4547 36.7982C39.2593 36.7567 39.0582 36.7496 38.8604 36.7772L37.9375 36.9065V40.371H38.0039L38.9268 40.8953L39.626 40.4863C39.6942 40.4479 39.7169 40.4042 39.7029 40.3622L39.7099 36.945Z" fill="#263238"/>
<path d="M34.9573 35.1938L33.4872 36.0433L37.4429 38.3262L38.9129 37.4784L34.9573 35.1938Z" fill="#455A64"/>
<path d="M33.4872 39.469V36.043L37.4429 38.3258V41.7518L33.4872 39.469Z" fill="#37474F"/>
<path d="M38.9128 37.478V40.904L37.4428 41.7518V38.3258L38.9128 37.478Z" fill="#263238"/>
<path d="M38.9129 37.4781L39.6208 37.0691C39.7816 36.9764 39.7029 36.8593 39.446 36.7982C39.2506 36.7567 39.0495 36.7496 38.8517 36.7772L37.9288 36.9065L38.9129 37.4781Z" fill="#455A64"/>
<path d="M38.6996 37.9399V40.6912L38.0441 41.0705V38.3175L38.6996 37.9399Z" fill="black"/>
<path d="M10.2657 54.6465V56.5815L15.4064 58.4448V56.5115L10.2657 54.6465Z" fill="#EBEBEB"/>
<path d="M38.3815 38.4849V40.4198L42.4577 45.1603V43.2271L38.3815 38.4849Z" fill="#E0E0E0"/>
<path d="M5.72626 52.8007C4.15193 52.0735 2.65409 51.1911 1.255 50.1665V52.0997C2.65146 53.1246 4.14701 54.007 5.71927 54.7339L5.72626 52.8007Z" fill="#EBEBEB"/>
<path d="M29.2222 55.7095C28.4636 52.8796 25.5515 49.9587 22.7129 49.2001C21.9847 48.9788 21.211 48.954 20.4702 49.1285C20.0208 49.2411 19.6102 49.473 19.2816 49.7997C19.1068 49.9745 17.4375 51.6385 17.254 51.8255C16.5111 52.5772 16.2769 53.8025 16.6649 55.248C17.4236 58.078 20.3356 60.9988 23.1743 61.7574C23.9024 61.9784 24.6759 62.0037 25.4169 61.8308C25.8646 61.7148 26.2732 61.4813 26.6003 61.1544C26.7751 60.9796 28.4321 59.326 28.6157 59.1425C29.3655 58.3891 29.6015 57.1603 29.2222 55.7095Z" fill="#D7CEAF"/>
<path opacity="0.15" d="M25.4082 61.8307C24.6672 62.0035 23.8937 61.9782 23.1656 61.7573C20.3357 60.9987 17.4148 58.0778 16.6562 55.2479C16.1056 53.1958 16.8065 51.586 18.4409 51.149C19.1816 50.9745 19.9554 50.9993 20.6835 51.2206C23.5134 51.9792 26.4343 54.9001 27.1929 57.73C27.7435 59.7838 27.0425 61.3919 25.4082 61.8307Z" fill="black"/>
<path d="M20.5734 53.0107C18.4549 52.4443 17.2243 53.6487 17.7767 55.7707L17.7871 55.8109C17.8165 55.9198 17.8146 56.0348 17.7817 56.1427C17.7488 56.2506 17.6862 56.3471 17.6011 56.4212C17.5159 56.4952 17.4117 56.5438 17.3002 56.5613C17.1888 56.5789 17.0747 56.5648 16.9709 56.5205L14.7719 55.5784L13.9714 56.379L15.2823 57.4837C15.2823 57.4837 19.5613 59.8574 22.6132 60.63C22.6971 60.6527 22.7793 60.6702 22.8597 60.6876C23.0926 60.7469 23.3327 60.7728 23.5729 60.7646C25.0761 60.7646 25.8732 59.6022 25.4012 57.842C24.8384 55.7357 22.6762 53.5752 20.5734 53.0107Z" fill="#FAFAFA"/>
<path d="M20.6101 52.974C19.5456 52.6891 18.7013 52.8674 18.1979 53.3883C17.9812 53.612 17.6211 53.9721 17.3974 54.1889C16.873 54.6905 16.6982 55.5365 16.9831 56.601V56.6133C17.0144 56.7217 17.0143 56.8368 16.9827 56.9451C16.9512 57.0535 16.8896 57.1507 16.805 57.2254C16.7204 57.3001 16.6163 57.3493 16.5049 57.3671C16.3935 57.385 16.2793 57.3709 16.1755 57.3264L13.9661 56.379L14.4765 58.2861C14.4765 58.2861 18.7555 60.658 21.8074 61.4324C21.8913 61.4551 21.9717 61.4743 22.0521 61.4901C22.2861 61.5501 22.5275 61.576 22.7688 61.567C23.4925 61.567 24.0518 61.296 24.3839 60.8188C24.5111 60.643 24.6671 60.4899 24.8454 60.3661C25.4974 59.8924 25.7491 58.9835 25.4344 57.8071C24.8751 55.6991 22.7146 53.5369 20.6101 52.974Z" fill="#FAFAFA"/>
<path d="M19.771 53.8127C17.6543 53.2446 16.422 54.4489 16.9743 56.5709L16.9848 56.6111C17.0149 56.7202 17.0136 56.8355 16.9809 56.9438C16.9482 57.0521 16.8856 57.1489 16.8003 57.2231C16.7149 57.2973 16.6103 57.3459 16.4985 57.3632C16.3867 57.3805 16.2723 57.3658 16.1685 57.3208L13.9696 56.3787L14.48 58.2857C14.48 58.2857 18.759 60.6576 21.8109 61.432C21.8948 61.4547 21.9752 61.4739 22.0574 61.4897C22.2895 61.5498 22.5292 61.5757 22.7688 61.5666C24.2738 61.5666 25.0708 60.4042 24.5989 58.644C24.0378 56.5377 21.8808 54.3755 19.771 53.8127Z" fill="#EBEBEB"/>
<path d="M23.7039 58.6916C23.2372 56.9436 21.4508 55.166 19.7116 54.6993C18.8376 54.4668 18.1385 54.6084 17.7294 55.0296L17.3886 55.3687C16.9691 55.7865 16.8257 56.4804 17.06 57.3509C17.5249 59.0901 19.3131 60.8783 21.0505 61.3432C21.9245 61.5774 22.6149 61.4341 23.0327 61.0146L23.3823 60.665C23.8036 60.2525 23.9364 59.5603 23.7039 58.6916Z" fill="#FAFAFA"/>
<path d="M19.3638 55.0468C21.1118 55.5118 22.8894 57.2999 23.3561 59.0391C23.8228 60.7783 22.7898 61.8096 21.0506 61.3429C19.3114 60.8762 17.525 59.0898 17.06 57.3506C16.5951 55.6114 17.6246 54.5801 19.3638 55.0468Z" fill="#F0F0F0"/>
<path d="M49.6121 46.821C50.077 45.0818 49.4233 42.6399 48.1508 41.3674C47.5128 40.7294 46.8398 40.5057 46.2682 40.6682L45.805 40.7923C45.2334 40.9444 44.7563 41.474 44.5273 42.3445C44.0623 44.0837 44.7161 46.5256 45.9886 47.7981C46.6266 48.4361 47.2995 48.6599 47.8693 48.4973L48.3413 48.3715C48.9111 48.2194 49.3796 47.695 49.6121 46.821Z" fill="#E0E0E0"/>
<path d="M47.6771 41.5001C48.9496 42.7727 49.5998 45.2145 49.1366 46.952C48.6734 48.6895 47.2628 49.0688 45.9903 47.7963C44.7178 46.5238 44.0676 44.0819 44.529 42.3427C44.9905 40.6034 46.4028 40.2276 47.6771 41.5001Z" fill="#F0F0F0"/>
<path d="M47.5163 40.9251C45.9659 39.3747 44.2966 39.8029 43.7163 41.918L43.7058 41.9564C43.6767 42.0657 43.6175 42.1647 43.5349 42.242C43.4523 42.3193 43.3496 42.3717 43.2386 42.3934C43.1276 42.4151 43.0127 42.4052 42.9071 42.3647C42.8014 42.3242 42.7093 42.2548 42.6413 42.1644L41.2097 40.2417L40.1155 40.5353L40.6993 42.1487C40.6993 42.1487 43.2181 46.3438 45.4747 48.5374C45.5359 48.5986 45.597 48.6546 45.66 48.7122C45.8318 48.88 46.0266 49.0224 46.2385 49.1352C47.5425 49.8851 48.8115 49.2786 49.2835 47.5184C49.8481 45.4226 49.0562 42.4651 47.5163 40.9251Z" fill="#FAFAFA"/>
<path d="M47.5757 40.9128C46.7961 40.1332 45.9746 39.864 45.2807 40.065C44.98 40.1507 44.4888 40.2818 44.1865 40.3569C43.4873 40.5317 42.907 41.175 42.622 42.2395V42.2517C42.5947 42.3601 42.5373 42.4586 42.4565 42.5359C42.3757 42.6131 42.2747 42.666 42.1652 42.6885C42.0556 42.7109 41.942 42.702 41.8373 42.6628C41.7326 42.6236 41.6411 42.5556 41.5733 42.4667L40.133 40.544L39.6033 42.451C39.6033 42.451 42.1221 46.6461 44.3805 48.8397C44.4417 48.9009 44.5028 48.9569 44.5553 49.0145C44.728 49.1833 44.924 49.3263 45.1373 49.4393C45.7649 49.7994 46.3854 49.8466 46.9115 49.5984C47.1093 49.5108 47.3201 49.4565 47.5355 49.4375C48.3378 49.3536 49.0108 48.6929 49.3254 47.5148C49.8988 45.405 49.1069 42.451 47.5757 40.9128Z" fill="#FAFAFA"/>
<path d="M46.4221 41.2275C44.8717 39.677 43.2024 40.1053 42.622 42.2186C42.619 42.2323 42.6149 42.2457 42.6098 42.2588C42.5809 42.368 42.5218 42.4669 42.4392 42.5441C42.3567 42.6213 42.254 42.6736 42.1431 42.6951C42.0322 42.7167 41.9174 42.7065 41.812 42.6658C41.7066 42.6251 41.6147 42.5555 41.5471 42.465L40.1155 40.5423L39.6033 42.451C39.6033 42.451 42.1221 46.6461 44.3805 48.8398C44.4417 48.901 44.5028 48.9569 44.5658 49.0146C44.7363 49.1838 44.9313 49.3264 45.1443 49.4376C46.4483 50.1875 47.7173 49.5809 48.1893 47.8225C48.7538 45.7127 47.962 42.7587 46.4221 41.2275Z" fill="#EBEBEB"/>
<path d="M49.4285 46.5203C49.3817 46.4539 49.3179 46.4012 49.2438 46.3677C49.1698 46.3342 49.0881 46.3211 49.0073 46.3297C48.7814 46.3416 48.5616 46.4067 48.3656 46.5197C48.1697 46.6327 48.0032 46.7904 47.8799 46.98C47.8315 47.0457 47.8019 47.1234 47.7942 47.2047C47.7865 47.2859 47.801 47.3678 47.8362 47.4414L48.3605 48.3609L49.9529 47.4379L49.4285 46.5203Z" fill="#37474F"/>
<path opacity="0.1" d="M48.1456 46.6777C48.0401 46.7623 47.9501 46.8646 47.8799 46.9801C47.8315 47.0459 47.8019 47.1235 47.7942 47.2048C47.7865 47.2861 47.801 47.3679 47.8362 47.4416L48.3605 48.361L48.9234 48.0359L48.1456 46.6777Z" fill="black"/>
<path d="M48.413 47.9009C48.5363 47.7117 48.7025 47.5542 48.8981 47.4412C49.0937 47.3282 49.3131 47.263 49.5387 47.2507C49.6199 47.2346 49.7041 47.2444 49.7795 47.2786C49.8549 47.3128 49.9177 47.3697 49.9591 47.4414C50.0006 47.5131 50.0185 47.5959 50.0105 47.6783C50.0025 47.7607 49.9689 47.8386 49.9145 47.9009C49.7911 48.0905 49.6246 48.2482 49.4287 48.3612C49.2328 48.4742 49.0129 48.5393 48.787 48.5512C48.7057 48.5679 48.6211 48.5586 48.5453 48.5244C48.4696 48.4903 48.4065 48.4332 48.3651 48.3612C48.3236 48.2892 48.306 48.206 48.3146 48.1233C48.3232 48.0407 48.3576 47.9629 48.413 47.9009Z" fill="#455A64"/>
<path d="M49.8271 47.6651C49.7912 47.6154 49.743 47.576 49.6872 47.5509C49.6313 47.5257 49.5699 47.5157 49.5089 47.5217C49.3388 47.5307 49.1732 47.5797 49.0256 47.6647C48.8779 47.7498 48.7525 47.8685 48.6594 48.0112C48.6235 48.0613 48.6016 48.1201 48.5957 48.1815C48.5899 48.2429 48.6004 48.3047 48.6262 48.3608L48.995 48.9988L50.1959 48.2996L49.8271 47.6651Z" fill="#37474F"/>
<path opacity="0.1" d="M48.8587 47.7842C48.7799 47.8481 48.7125 47.9249 48.6594 48.0114C48.6235 48.0616 48.6016 48.1203 48.5957 48.1817C48.5899 48.2431 48.6004 48.305 48.6262 48.361L48.995 48.999L49.4198 48.7543L48.8587 47.7842Z" fill="black"/>
<path d="M49.03 48.653C49.123 48.5101 49.2484 48.3911 49.396 48.3058C49.5436 48.2204 49.7093 48.1711 49.8795 48.1618C49.94 48.1559 50.001 48.1658 50.0565 48.1906C50.112 48.2155 50.16 48.2543 50.1959 48.3034C50.2217 48.3594 50.2322 48.4213 50.2264 48.4827C50.2206 48.5441 50.1986 48.6028 50.1627 48.653C50.0696 48.7958 49.9442 48.9147 49.7966 49.0001C49.649 49.0854 49.4834 49.1348 49.3132 49.1442C49.2518 49.1567 49.188 49.1495 49.1308 49.1237C49.0737 49.0979 49.0261 49.0549 48.9948 49.0005C48.9635 48.9462 48.95 48.8835 48.9564 48.8211C48.9627 48.7587 48.9885 48.6999 49.03 48.653Z" fill="#455A64"/>
<path d="M48.9321 48.8506C49.6907 46.0189 48.621 42.0336 46.5496 39.957C46.0296 39.4019 45.3725 38.9938 44.6444 38.7737C44.198 38.6474 43.726 38.6432 43.2775 38.7614C43.031 38.8296 40.7622 39.4326 40.5087 39.5026C39.4897 39.7822 38.6751 40.7261 38.2888 42.1717C37.5302 45.0016 38.5982 48.9887 40.6713 51.0635C41.1921 51.616 41.8492 52.0217 42.5766 52.2399C43.0252 52.3673 43.4999 52.3709 43.9504 52.2504C44.1952 52.1822 46.45 51.5826 46.7017 51.5145C47.7243 51.2453 48.5441 50.2996 48.9321 48.8506Z" fill="#D7CEAF"/>
<path opacity="0.15" d="M42.5766 52.2399C41.8485 52.0198 41.1913 51.6117 40.6713 51.0566C38.5982 48.9835 37.525 44.9947 38.2889 42.1648C38.8377 40.1109 40.2501 39.0691 41.8844 39.5061C42.6123 39.7266 43.2694 40.1347 43.7897 40.6895C45.861 42.7626 46.936 46.7514 46.1721 49.5831C45.6215 51.6421 44.2109 52.6857 42.5766 52.2399Z" fill="black"/>
<path d="M25.4135 58.1462C25.3335 58.1325 25.2514 58.1403 25.1755 58.1689C25.0996 58.1975 25.0327 58.2458 24.9817 58.3088C24.8308 58.4771 24.7216 58.6786 24.663 58.8969C24.6044 59.1152 24.598 59.3443 24.6444 59.5656C24.6583 59.645 24.6931 59.7193 24.7454 59.7808C24.7976 59.8422 24.8653 59.8886 24.9415 59.9151L25.9658 60.1896L26.4378 58.4119L25.4135 58.1462Z" fill="#37474F"/>
<path opacity="0.1" d="M24.6181 59.1636C24.6036 59.2981 24.6124 59.4341 24.6444 59.5656C24.6583 59.6451 24.6931 59.7194 24.7454 59.7808C24.7976 59.8423 24.8653 59.8887 24.9415 59.9152L25.9658 60.1896L26.1406 59.5621L24.6181 59.1636Z" fill="black"/>
<path d="M25.6721 59.8417C25.6258 59.6204 25.6322 59.3914 25.6908 59.173C25.7494 58.9547 25.8586 58.7532 26.0095 58.5849C26.0602 58.5224 26.1265 58.4744 26.2017 58.4455C26.2768 58.4167 26.3582 58.4081 26.4377 58.4206C26.5152 58.4477 26.5838 58.4953 26.6361 58.5585C26.6885 58.6216 26.7226 58.6978 26.7349 58.779C26.7816 59.0002 26.7755 59.2294 26.7168 59.4478C26.6582 59.6662 26.5488 59.8676 26.3975 60.0357C26.3514 60.1045 26.285 60.1571 26.2075 60.1862C26.1301 60.2153 26.0454 60.2194 25.9655 60.198C25.8855 60.1766 25.8143 60.1308 25.7617 60.0669C25.7091 60.003 25.6778 59.9243 25.6721 59.8417Z" fill="#455A64"/>
<path d="M26.5059 58.6742C26.4455 58.6641 26.3835 58.6701 26.3261 58.6916C26.2687 58.7131 26.218 58.7493 26.179 58.7965C26.0658 58.9237 25.9838 59.0756 25.9398 59.2401C25.8958 59.4046 25.8909 59.5772 25.9256 59.7439C25.9356 59.8048 25.9616 59.8619 26.0009 59.9095C26.0402 59.9571 26.0914 59.9934 26.1493 60.0148L26.8607 60.2054L27.2103 58.8647L26.5059 58.6742Z" fill="#37474F"/>
<path opacity="0.1" d="M25.9012 59.4414C25.891 59.5427 25.8981 59.6449 25.9221 59.7438C25.9322 59.8047 25.9582 59.8618 25.9975 59.9094C26.0368 59.957 26.088 59.9933 26.1459 60.0147L26.8573 60.2053L26.9831 59.7316L25.9012 59.4414Z" fill="black"/>
<path d="M26.6405 59.931C26.6056 59.7643 26.6103 59.5917 26.6544 59.4271C26.6984 59.2625 26.7805 59.1106 26.894 58.9836C26.9325 58.9366 26.9825 58.9004 27.0392 58.8787C27.0959 58.8569 27.1573 58.8503 27.2174 58.8595C27.2752 58.8809 27.3264 58.9172 27.3657 58.9648C27.405 59.0124 27.431 59.0695 27.4411 59.1304C27.4767 59.2971 27.4723 59.4699 27.4283 59.6346C27.3842 59.7993 27.3018 59.9512 27.1876 60.0778C27.153 60.1299 27.1028 60.1698 27.0443 60.1918C26.9858 60.2139 26.9218 60.2171 26.8614 60.2009C26.8009 60.1846 26.7471 60.1499 26.7075 60.1015C26.6679 60.053 26.6445 59.9934 26.6405 59.931Z" fill="#455A64"/>
<path d="M48.1613 66.1427C39.2258 66.1427 30.937 62.0997 26.9185 59.7802L27.1632 59.3589C32.9891 62.7272 47.8991 69.7575 60.5106 62.472C69.1402 57.4904 71.6275 56.0553 73.3265 55.0764L73.7845 54.8125L74.0275 55.2338L73.5695 55.4994C71.8722 56.4783 69.3831 57.9116 60.7553 62.8933C56.6651 65.2565 52.3441 66.1427 48.1613 66.1427Z" fill="#37474F"/>
<path d="M74.8192 53.0788C74.9187 53.0328 75.0287 53.0142 75.1378 53.0249C75.2469 53.0357 75.3512 53.0754 75.4398 53.14C75.6949 53.3072 75.9069 53.5322 76.0588 53.7967C76.2106 54.0612 76.298 54.3578 76.3137 54.6624C76.3257 54.7723 76.3078 54.8834 76.2619 54.9839C76.2161 55.0845 76.144 55.1709 76.0533 55.234L72.019 57.592L70.7797 55.4368L74.8192 53.0788Z" fill="#37474F"/>
<path opacity="0.1" d="M76.2141 54.1294C76.2793 54.2998 76.3148 54.4801 76.319 54.6625C76.3309 54.7724 76.313 54.8835 76.2672 54.984C76.2214 55.0846 76.1493 55.171 76.0586 55.2341L72.0243 57.5921L71.5646 56.7845L76.2141 54.1294Z" fill="black"/>
<path d="M72.2813 57.0223C72.2651 56.7178 72.1776 56.4214 72.0258 56.1569C71.8739 55.8924 71.6621 55.6674 71.4073 55.4999C71.323 55.4272 71.2181 55.3826 71.1073 55.3724C70.9965 55.3621 70.8852 55.3867 70.789 55.4427C70.6928 55.4987 70.6165 55.5833 70.5707 55.6847C70.5248 55.7861 70.5118 55.8993 70.5333 56.0085C70.5497 56.313 70.6374 56.6093 70.7892 56.8737C70.941 57.1381 71.1527 57.3632 71.4073 57.531C71.4919 57.6025 71.5966 57.6461 71.7069 57.6558C71.8173 57.6655 71.928 57.6408 72.0238 57.5851C72.1195 57.5293 72.1957 57.4453 72.2418 57.3445C72.2879 57.2438 72.3017 57.1312 72.2813 57.0223Z" fill="#455A64"/>
<path d="M71.5541 56.6096C71.5509 56.5494 71.5334 56.4909 71.503 56.4389C71.4726 56.3869 71.4302 56.3429 71.3793 56.3107C71.3621 56.298 71.3419 56.2902 71.3207 56.288C71.2994 56.2859 71.278 56.2895 71.2587 56.2984L70.1977 56.8788C68.6786 57.8714 66.9568 58.5121 65.1584 58.754C63.3599 58.996 61.5301 58.833 59.8026 58.2771C55.4327 56.9032 51.797 53.3619 49.8183 48.562L49.3708 48.7438C51.4037 53.6783 55.1548 57.321 59.6593 58.7386C60.9226 59.1407 62.2402 59.3464 63.566 59.3486C66.0088 59.3446 68.3987 58.6364 70.4494 57.3088L71.4981 56.7354H71.5086C71.528 56.7214 71.5426 56.702 71.5508 56.6795C71.5589 56.6571 71.56 56.6327 71.5541 56.6096Z" fill="#37474F"/>
<path d="M61.7288 43.0124L59.7886 44.9841L46.838 37.5064L50.2518 36.3877L61.7288 43.0124Z" fill="#D7CEAF"/>
<path opacity="0.8" d="M61.7288 43.0124L59.7886 44.9841L46.838 37.5064L50.2518 36.3877L61.7288 43.0124Z" fill="white"/>
<path d="M46.838 37.5063V37.8297L59.7886 45.3057V44.9841L46.838 37.5063Z" fill="#D7CEAF"/>
<path opacity="0.6" d="M46.838 37.5063V37.8297L59.7886 45.3057V44.9841L46.838 37.5063Z" fill="white"/>
<path d="M61.7288 43.0122V43.3356L59.7886 45.3055V44.9839L61.7288 43.0122Z" fill="#D7CEAF"/>
<path opacity="0.5" d="M61.7288 43.0122V43.3356L59.7886 45.3055V44.9839L61.7288 43.0122Z" fill="white"/>
<path d="M73.9435 37.5569C73.936 37.4965 73.9129 37.4391 73.8764 37.3903C73.8399 37.3416 73.7913 37.3032 73.7355 37.279L56.0812 27.0867C55.9511 27.0151 55.8061 26.9747 55.6577 26.969C55.5093 26.9632 55.3617 26.9922 55.2264 27.0535L44.4293 33.2919C44.4168 33.2981 44.4051 33.3057 44.3944 33.3147L44.3647 33.3391C44.3552 33.3466 44.347 33.3554 44.3402 33.3653C44.3172 33.3881 44.3003 33.4164 44.2912 33.4475C44.2849 33.4655 44.2814 33.4844 44.2808 33.5034C44.2808 33.6258 44.2808 35.7845 44.2808 35.8649C44.2878 35.9262 44.3109 35.9844 44.3478 36.0339C44.3846 36.0833 44.4338 36.1221 44.4905 36.1463L62.1448 46.3369C62.2747 46.4088 62.4197 46.4494 62.568 46.4555C62.7164 46.4616 62.8642 46.4329 62.9996 46.3718L73.7949 40.1369C73.8359 40.1178 73.8711 40.0882 73.8969 40.051C73.9227 40.0139 73.9382 39.9705 73.9417 39.9254C73.947 39.8293 73.9435 37.6391 73.9435 37.5569ZM62.449 36.8875C62.8089 36.7039 63.2073 36.6082 63.6113 36.6082C64.0154 36.6082 64.4137 36.7039 64.7737 36.8875C65.4152 37.2563 65.4152 37.8576 64.7737 38.2299C64.4133 38.4118 64.0151 38.5066 63.6113 38.5066C63.2076 38.5066 62.8094 38.4118 62.449 38.2299C61.8057 37.8593 61.8057 37.258 62.449 36.8892V36.8875ZM54.4381 32.2606C54.7986 32.0787 55.1967 31.984 55.6005 31.984C56.0043 31.984 56.4024 32.0787 56.7629 32.2606C57.4061 32.633 57.4061 33.2343 56.7629 33.6048C56.4026 33.7875 56.0044 33.8828 55.6005 33.8828C55.1966 33.8828 54.7983 33.7875 54.4381 33.6048C53.7966 33.236 53.7966 32.6347 54.4381 32.2624V32.2606Z" fill="#D7CEAF"/>
<path opacity="0.6" d="M73.9435 37.5569C73.936 37.4965 73.9129 37.4391 73.8764 37.3903C73.8399 37.3416 73.7913 37.3032 73.7355 37.279L56.0812 27.0867C55.9511 27.0151 55.8061 26.9747 55.6577 26.969C55.5093 26.9632 55.3617 26.9922 55.2264 27.0535L44.4293 33.2919C44.4168 33.2981 44.4051 33.3057 44.3944 33.3147L44.3647 33.3391C44.3552 33.3466 44.347 33.3554 44.3402 33.3653C44.3172 33.3881 44.3003 33.4164 44.2912 33.4475C44.2849 33.4655 44.2814 33.4844 44.2808 33.5034C44.2808 33.6258 44.2808 35.7845 44.2808 35.8649C44.2878 35.9262 44.3109 35.9844 44.3478 36.0339C44.3846 36.0833 44.4338 36.1221 44.4905 36.1463L62.1448 46.3369C62.2747 46.4088 62.4197 46.4494 62.568 46.4555C62.7164 46.4616 62.8642 46.4329 62.9996 46.3718L73.7949 40.1369C73.8359 40.1178 73.8711 40.0882 73.8969 40.051C73.9227 40.0139 73.9382 39.9705 73.9417 39.9254C73.947 39.8293 73.9435 37.6391 73.9435 37.5569ZM62.449 36.8875C62.8089 36.7039 63.2073 36.6082 63.6113 36.6082C64.0154 36.6082 64.4137 36.7039 64.7737 36.8875C65.4152 37.2563 65.4152 37.8576 64.7737 38.2299C64.4133 38.4118 64.0151 38.5066 63.6113 38.5066C63.2076 38.5066 62.8094 38.4118 62.449 38.2299C61.8057 37.8593 61.8057 37.258 62.449 36.8892V36.8875ZM54.4381 32.2606C54.7986 32.0787 55.1967 31.984 55.6005 31.984C56.0043 31.984 56.4024 32.0787 56.7629 32.2606C57.4061 32.633 57.4061 33.2343 56.7629 33.6048C56.4026 33.7875 56.0044 33.8828 55.6005 33.8828C55.1966 33.8828 54.7983 33.7875 54.4381 33.6048C53.7966 33.236 53.7966 32.6347 54.4381 32.2624V32.2606Z" fill="white"/>
<path opacity="0.5" d="M73.9435 39.9253C73.9399 39.9704 73.9245 40.0138 73.8987 40.0509C73.8729 40.0881 73.8377 40.1177 73.7966 40.1368L62.9926 46.3753C62.8698 46.437 62.7331 46.4659 62.5958 46.4592V44.0942C62.7331 44.102 62.8701 44.073 62.9926 44.0103L73.7949 37.7736C73.8363 37.7541 73.8717 37.7239 73.8975 37.6861C73.9234 37.6483 73.9386 37.6043 73.9417 37.5586C73.9435 37.639 73.947 39.8292 73.9435 39.9253Z" fill="#D7CEAF"/>
<path d="M73.7355 37.281L56.0812 27.0887C55.9511 27.017 55.8061 26.9767 55.6577 26.9709C55.5093 26.9652 55.3617 26.9941 55.2264 27.0555L44.4293 33.2921C44.4168 33.2983 44.4051 33.3059 44.3944 33.3149L44.3647 33.3393C44.3552 33.3468 44.347 33.3556 44.3402 33.3655C44.3172 33.3883 44.3003 33.4166 44.2912 33.4477C44.2849 33.4657 44.2814 33.4846 44.2808 33.5036C44.2884 33.5643 44.3118 33.6218 44.3486 33.6706C44.3854 33.7193 44.4343 33.7576 44.4905 33.7816L62.1448 43.9721C62.2747 44.044 62.4197 44.0847 62.568 44.0907C62.7164 44.0968 62.8642 44.0681 62.9996 44.0071L73.7949 37.7739C73.8363 37.7544 73.8717 37.7242 73.8976 37.6864C73.9234 37.6486 73.9386 37.6046 73.9417 37.5589C73.9344 37.4986 73.9116 37.4413 73.8754 37.3926C73.8392 37.3439 73.791 37.3054 73.7355 37.281ZM56.7629 33.6103C56.4026 33.793 56.0044 33.8882 55.6005 33.8882C55.1966 33.8882 54.7983 33.793 54.4381 33.6103C53.7966 33.2397 53.7966 32.6384 54.4381 32.2661C54.7986 32.0842 55.1967 31.9894 55.6005 31.9894C56.0043 31.9894 56.4024 32.0842 56.7629 32.2661C57.4061 32.6349 57.4061 33.2362 56.7629 33.6068V33.6103ZM64.7737 38.2353C64.4133 38.4173 64.0151 38.512 63.6113 38.512C63.2076 38.512 62.8094 38.4173 62.449 38.2353C61.8057 37.863 61.8057 37.2617 62.449 36.8929C62.8089 36.7094 63.2073 36.6137 63.6113 36.6137C64.0154 36.6137 64.4137 36.7094 64.7737 36.8929C65.4152 37.2582 65.4152 37.8595 64.7737 38.2318V38.2353Z" fill="#D7CEAF"/>
<path opacity="0.75" d="M73.7355 37.281L56.0812 27.0887C55.9511 27.017 55.8061 26.9767 55.6577 26.9709C55.5093 26.9652 55.3617 26.9941 55.2264 27.0555L44.4293 33.2921C44.4168 33.2983 44.4051 33.3059 44.3944 33.3149L44.3647 33.3393C44.3552 33.3468 44.347 33.3556 44.3402 33.3655C44.3172 33.3883 44.3003 33.4166 44.2912 33.4477C44.2849 33.4657 44.2814 33.4846 44.2808 33.5036C44.2884 33.5643 44.3118 33.6218 44.3486 33.6706C44.3854 33.7193 44.4343 33.7576 44.4905 33.7816L62.1448 43.9721C62.2747 44.044 62.4197 44.0847 62.568 44.0907C62.7164 44.0968 62.8642 44.0681 62.9996 44.0071L73.7949 37.7739C73.8363 37.7544 73.8717 37.7242 73.8976 37.6864C73.9234 37.6486 73.9386 37.6046 73.9417 37.5589C73.9344 37.4986 73.9116 37.4413 73.8754 37.3926C73.8392 37.3439 73.791 37.3054 73.7355 37.281ZM62.449 36.8894C62.8089 36.7059 63.2073 36.6102 63.6113 36.6102C64.0154 36.6102 64.4137 36.7059 64.7737 36.8894C65.1373 37.0992 65.2981 37.3823 65.2457 37.655C65.2278 37.7512 65.1884 37.842 65.1303 37.9207C65.1146 37.9434 65.1006 37.9627 65.0831 37.9836C65.0351 38.0378 64.9818 38.087 64.9241 38.1305C64.8758 38.1669 64.8256 38.2007 64.7737 38.2318C64.4133 38.4138 64.0151 38.5085 63.6113 38.5085C63.2076 38.5085 62.8094 38.4138 62.449 38.2318L62.4297 38.2196L62.3249 38.1514L62.2986 38.1305C62.2405 38.0874 62.1871 38.0382 62.1396 37.9836C62.1228 37.9647 62.107 37.9449 62.0924 37.9242C62.0345 37.8452 61.9946 37.7545 61.9753 37.6585C61.9263 37.3823 62.0836 37.0992 62.449 36.8894ZM54.4381 32.2626C54.7986 32.0807 55.1967 31.9859 55.6005 31.9859C56.0043 31.9859 56.4024 32.0807 56.7629 32.2626C57.1282 32.4741 57.2873 32.7573 57.2366 33.0317C57.2187 33.1278 57.1792 33.2187 57.1212 33.2974L57.074 33.3586C57.0265 33.4131 56.9731 33.4624 56.9149 33.5054C56.8672 33.5434 56.8163 33.5773 56.7629 33.6068C56.4026 33.7895 56.0044 33.8847 55.6005 33.8847C55.1966 33.8847 54.7983 33.7895 54.4381 33.6068L54.4206 33.5963C54.3835 33.5754 54.3479 33.5521 54.314 33.5264L54.2895 33.5071C54.2309 33.464 54.1775 33.4141 54.1305 33.3586C54.1126 33.3399 54.0968 33.3194 54.0833 33.2974C54.0233 33.2196 53.9831 33.1284 53.9662 33.0317C53.9172 32.7573 54.0763 32.4741 54.4381 32.2626Z" fill="white"/>
<path d="M71.8722 37.4574L55.7753 28.1635C55.6976 28.12 55.6107 28.0954 55.5217 28.0918C55.4328 28.0881 55.3442 28.1055 55.2632 28.1426L47.899 32.3936C47.768 32.4687 47.7837 32.6016 47.9358 32.689L64.0326 41.9828C64.1102 42.0259 64.1967 42.0503 64.2853 42.0539C64.374 42.0576 64.4622 42.0404 64.543 42.0038L71.9089 37.7528C72.047 37.6759 72.0277 37.5448 71.8722 37.4574ZM65.4362 38.4974L65.2282 38.6163C64.4609 39.0602 63.1184 39.0043 62.2287 38.4922L53.9872 33.729C53.0974 33.2169 53.0013 32.4408 53.7704 31.9968L53.9767 31.8797C54.7475 31.4339 56.0899 31.4916 56.9761 32.002L65.23 36.7652C66.1127 37.2791 66.2106 38.0517 65.4415 38.4974H65.4362Z" fill="#455A64"/>
<path d="M45.9588 33.5522C45.9495 33.5199 45.9335 33.49 45.9118 33.4644C45.8901 33.4388 45.8632 33.4181 45.833 33.4036C45.7369 33.3545 45.6306 33.3289 45.5227 33.3289C45.4148 33.3289 45.3085 33.3545 45.2125 33.4036C45.1824 33.4183 45.1556 33.4392 45.134 33.4647C45.1123 33.4903 45.0962 33.5201 45.0866 33.5522C45.0818 33.508 45.0914 33.4635 45.1141 33.4254C45.1369 33.3872 45.1714 33.3575 45.2125 33.3407C45.3089 33.2929 45.4151 33.2681 45.5227 33.2681C45.6303 33.2681 45.7365 33.2929 45.833 33.3407C45.8741 33.3575 45.9086 33.3872 45.9313 33.4254C45.954 33.4635 45.9636 33.508 45.9588 33.5522Z" fill="#D7CEAF"/>
<path d="M45.9588 33.5524C45.9497 33.5845 45.9337 33.6143 45.912 33.6396C45.8902 33.665 45.8633 33.6853 45.8329 33.6992C45.7371 33.7491 45.6307 33.7752 45.5227 33.7752C45.4146 33.7752 45.3082 33.7491 45.2124 33.6992C45.1822 33.685 45.1554 33.6646 45.1337 33.6393C45.112 33.614 45.096 33.5843 45.0865 33.5524C45.0961 33.5203 45.1123 33.4905 45.1339 33.4649C45.1556 33.4394 45.1823 33.4185 45.2124 33.4038C45.3085 33.3547 45.4148 33.3291 45.5227 33.3291C45.6305 33.3291 45.7369 33.3547 45.8329 33.4038C45.8632 33.4183 45.8901 33.439 45.9118 33.4646C45.9334 33.4902 45.9495 33.5201 45.9588 33.5524Z" fill="#455A64"/>
<path d="M45.7351 33.5194H45.5603V33.4302C45.5603 33.4214 45.5568 33.413 45.5505 33.4067C45.5443 33.4005 45.5359 33.397 45.5271 33.397C45.5226 33.3968 45.5182 33.3975 45.514 33.399C45.5099 33.4006 45.5061 33.4031 45.503 33.4062C45.4999 33.4093 45.4974 33.4131 45.4959 33.4172C45.4943 33.4214 45.4936 33.4258 45.4938 33.4302V33.5194H45.319C45.3148 33.5194 45.3105 33.5202 45.3066 33.5219C45.3027 33.5236 45.2991 33.5261 45.2962 33.5292C45.2932 33.5323 45.2909 33.536 45.2895 33.54C45.288 33.544 45.2873 33.5483 45.2876 33.5526C45.2876 33.5611 45.2908 33.5693 45.2967 33.5755C45.3025 33.5817 45.3105 33.5854 45.319 33.5858H45.4938V33.6749C45.4938 33.6838 45.4973 33.6922 45.5036 33.6984C45.5098 33.7047 45.5182 33.7082 45.5271 33.7082C45.5357 33.7077 45.5439 33.7041 45.5501 33.698C45.5562 33.6918 45.5598 33.6836 45.5603 33.6749V33.5858H45.7351C45.7439 33.5858 45.7523 33.5823 45.7585 33.5761C45.7648 33.5698 45.7683 33.5614 45.7683 33.5526C45.7685 33.5482 45.7678 33.5437 45.7663 33.5396C45.7647 33.5354 45.7622 33.5317 45.7591 33.5285C45.756 33.5254 45.7522 33.523 45.7481 33.5214C45.7439 33.5198 45.7395 33.5191 45.7351 33.5194Z" fill="#37474F"/>
<path d="M56.0654 27.7176C56.0555 27.6856 56.0392 27.656 56.0176 27.6305C55.996 27.605 55.9694 27.5841 55.9396 27.569C55.8429 27.521 55.7364 27.496 55.6285 27.496C55.5205 27.496 55.414 27.521 55.3173 27.569C55.2574 27.5999 55.2121 27.6534 55.1915 27.7176C55.1868 27.6737 55.1965 27.6294 55.2192 27.5916C55.2419 27.5537 55.2764 27.5243 55.3173 27.5078C55.4137 27.4587 55.5203 27.4331 55.6285 27.4331C55.7366 27.4331 55.8432 27.4587 55.9396 27.5078C55.9805 27.5243 56.015 27.5537 56.0377 27.5916C56.0604 27.6294 56.0702 27.6737 56.0654 27.7176Z" fill="#D7CEAF"/>
<path d="M56.0654 27.7177C56.056 27.7499 56.04 27.7798 56.0183 27.8054C55.9966 27.831 55.9698 27.8517 55.9396 27.8663C55.8432 27.9154 55.7366 27.941 55.6285 27.941C55.5203 27.941 55.4137 27.9154 55.3173 27.8663C55.2874 27.8514 55.2607 27.8305 55.2391 27.805C55.2175 27.7794 55.2013 27.7497 55.1915 27.7177C55.2121 27.6535 55.2574 27.6001 55.3173 27.5691C55.414 27.5211 55.5205 27.4961 55.6285 27.4961C55.7364 27.4961 55.8429 27.5211 55.9396 27.5691C55.9694 27.5842 55.996 27.6051 56.0176 27.6307C56.0392 27.6562 56.0555 27.6858 56.0654 27.7177Z" fill="#455A64"/>
<path d="M55.8417 27.6847H55.6669V27.5938C55.6669 27.585 55.6634 27.5765 55.6572 27.5703C55.651 27.564 55.6425 27.5605 55.6337 27.5605C55.6251 27.561 55.6169 27.5646 55.6107 27.5707C55.6046 27.5769 55.6009 27.5851 55.6005 27.5938V27.6829H55.4257C55.4169 27.6829 55.4085 27.6864 55.4022 27.6926C55.396 27.6989 55.3925 27.7073 55.3925 27.7161C55.3923 27.7205 55.3929 27.725 55.3945 27.7291C55.3961 27.7333 55.3985 27.737 55.4017 27.7402C55.4048 27.7433 55.4086 27.7457 55.4127 27.7473C55.4169 27.7489 55.4213 27.7496 55.4257 27.7493H55.6005V27.8385C55.6005 27.8473 55.604 27.8557 55.6102 27.862C55.6165 27.8682 55.6249 27.8717 55.6337 27.8717C55.6382 27.8719 55.6426 27.8713 55.6467 27.8697C55.6509 27.8681 55.6546 27.8657 55.6578 27.8625C55.6609 27.8594 55.6633 27.8556 55.6649 27.8515C55.6665 27.8473 55.6672 27.8429 55.6669 27.8385V27.7493H55.8417C55.8505 27.7493 55.859 27.7458 55.8652 27.7396C55.8714 27.7334 55.8749 27.7249 55.8749 27.7161C55.8741 27.7078 55.8703 27.7 55.8642 27.6942C55.8581 27.6884 55.8501 27.685 55.8417 27.6847Z" fill="#37474F"/>
<path d="M63.031 43.4163C63.021 43.3844 63.0048 43.3548 62.9831 43.3293C62.9615 43.3037 62.935 43.2828 62.9051 43.2677C62.8085 43.2197 62.702 43.1947 62.594 43.1947C62.4861 43.1947 62.3796 43.2197 62.2829 43.2677C62.2532 43.2828 62.2268 43.3037 62.2055 43.3292C62.1842 43.3548 62.1683 43.3844 62.1588 43.4163C62.1413 43.3429 62.1832 43.2642 62.2829 43.2065C62.3792 43.1574 62.4859 43.1318 62.594 43.1318C62.7022 43.1318 62.8088 43.1574 62.9051 43.2065C62.9461 43.223 62.9805 43.2524 63.0033 43.2903C63.026 43.3282 63.0357 43.3724 63.031 43.4163Z" fill="#D7CEAF"/>
<path d="M63.031 43.416C63.0216 43.4481 63.0056 43.478 62.9839 43.5036C62.9622 43.5292 62.9354 43.55 62.9052 43.5645C62.8088 43.6136 62.7022 43.6392 62.5941 43.6392C62.4859 43.6392 62.3793 43.6136 62.2829 43.5645C62.2529 43.5499 62.2263 43.5292 62.2049 43.5036C62.1835 43.4779 62.1678 43.4481 62.1588 43.416C62.1683 43.384 62.1842 43.3544 62.2056 43.3289C62.2269 43.3033 62.2532 43.2824 62.2829 43.2674C62.3796 43.2193 62.4861 43.1943 62.5941 43.1943C62.702 43.1943 62.8085 43.2193 62.9052 43.2674C62.935 43.2825 62.9616 43.3034 62.9832 43.3289C63.0048 43.3544 63.0211 43.384 63.031 43.416Z" fill="#455A64"/>
<path d="M62.8073 43.3826H62.6325V43.2935C62.6325 43.2891 62.6317 43.2848 62.63 43.2808C62.6283 43.2767 62.6259 43.2731 62.6228 43.27C62.6197 43.2669 62.616 43.2645 62.612 43.2628C62.608 43.2611 62.6037 43.2603 62.5993 43.2603C62.5906 43.2607 62.5824 43.2643 62.5763 43.2705C62.5702 43.2766 62.5665 43.2848 62.5661 43.2935V43.3826H62.3913C62.3826 43.383 62.3744 43.3867 62.3683 43.3928C62.3621 43.3989 62.3585 43.4071 62.3581 43.4158C62.3581 43.4246 62.3616 43.4331 62.3678 43.4393C62.374 43.4455 62.3825 43.449 62.3913 43.449H62.5661V43.5382C62.5661 43.547 62.5696 43.5554 62.5758 43.5617C62.5821 43.5679 62.5905 43.5714 62.5993 43.5714C62.6037 43.5716 62.6082 43.571 62.6123 43.5694C62.6165 43.5678 62.6202 43.5654 62.6234 43.5622C62.6265 43.5591 62.6289 43.5553 62.6305 43.5512C62.6321 43.547 62.6328 43.5426 62.6325 43.5382V43.449H62.8073C62.8161 43.449 62.8246 43.4455 62.8308 43.4393C62.837 43.4331 62.8405 43.4246 62.8405 43.4158C62.8401 43.4071 62.8365 43.3989 62.8303 43.3928C62.8242 43.3867 62.816 43.383 62.8073 43.3826Z" fill="#37474F"/>
<path d="M73.136 37.5829C73.127 37.5503 73.1111 37.52 73.0894 37.4941C73.0677 37.4682 73.0406 37.4472 73.0101 37.4326C72.9136 37.3849 72.8075 37.36 72.6998 37.36C72.5922 37.36 72.486 37.3849 72.3896 37.4326C72.3592 37.4475 72.3324 37.4685 72.3107 37.4944C72.289 37.5203 72.273 37.5505 72.2637 37.5829C72.2589 37.5388 72.2686 37.4943 72.2913 37.4561C72.314 37.418 72.3485 37.3883 72.3896 37.3714C72.486 37.3237 72.5922 37.2988 72.6998 37.2988C72.8075 37.2988 72.9136 37.3237 73.0101 37.3714C73.0514 37.388 73.086 37.4177 73.1088 37.4559C73.1315 37.4941 73.1411 37.5388 73.136 37.5829Z" fill="#D7CEAF"/>
<path d="M73.1359 37.5833C73.1268 37.6154 73.1108 37.6452 73.0891 37.6705C73.0674 37.6959 73.0404 37.7162 73.01 37.7301C72.914 37.7792 72.8077 37.8048 72.6998 37.8048C72.5919 37.8048 72.4856 37.7792 72.3895 37.7301C72.3594 37.7159 72.3326 37.6955 72.3109 37.6702C72.2892 37.6449 72.2731 37.6153 72.2637 37.5833C72.273 37.5508 72.289 37.5207 72.3106 37.4948C72.3323 37.4689 72.3592 37.4478 72.3895 37.433C72.486 37.3852 72.5922 37.3604 72.6998 37.3604C72.8074 37.3604 72.9136 37.3852 73.01 37.433C73.0406 37.4475 73.0676 37.4685 73.0893 37.4944C73.111 37.5204 73.1269 37.5507 73.1359 37.5833Z" fill="#455A64"/>
<path d="M72.9209 37.557H72.7461V37.4678C72.7461 37.459 72.7426 37.4506 72.7364 37.4444C72.7301 37.4381 72.7217 37.4346 72.7129 37.4346C72.7085 37.4344 72.704 37.4351 72.6999 37.4366C72.6957 37.4382 72.692 37.4407 72.6888 37.4438C72.6857 37.4469 72.6833 37.4507 72.6817 37.4548C72.6801 37.459 72.6794 37.4634 72.6797 37.4678V37.557H72.5049C72.5005 37.5567 72.496 37.5574 72.4919 37.559C72.4877 37.5606 72.484 37.563 72.4808 37.5661C72.4777 37.5693 72.4753 37.573 72.4737 37.5772C72.4721 37.5813 72.4714 37.5858 72.4717 37.5902C72.4717 37.599 72.4752 37.6074 72.4814 37.6137C72.4876 37.6199 72.4961 37.6234 72.5049 37.6234H72.6797V37.7126C72.6797 37.7214 72.6832 37.7298 72.6894 37.736C72.6956 37.7423 72.7041 37.7458 72.7129 37.7458C72.7216 37.7453 72.7298 37.7417 72.7359 37.7356C72.742 37.7294 72.7457 37.7212 72.7461 37.7126V37.6234H72.9209C72.9297 37.6234 72.9381 37.6199 72.9444 37.6137C72.9506 37.6074 72.9541 37.599 72.9541 37.5902C72.9544 37.5858 72.9537 37.5813 72.9521 37.5772C72.9505 37.573 72.9481 37.5693 72.9449 37.5661C72.9418 37.563 72.938 37.5606 72.9339 37.559C72.9298 37.5574 72.9253 37.5567 72.9209 37.557Z" fill="#37474F"/>
<path d="M62.9471 35.912L60.7587 37.1758L60.0648 36.7755L59.8708 36.6619L56.2665 34.5818L58.4532 33.3198L61.381 35.0083L61.5261 35.0905L62.9471 35.912Z" fill="#FAFAFA"/>
<path d="M62.8825 35.8755C62.3917 35.9377 61.9172 36.0925 61.4841 36.3317C61.1406 36.5086 60.8634 36.7919 60.694 37.1393L60.7587 37.176L62.9454 35.9122L62.8825 35.8755Z" fill="#37474F"/>
<path d="M61.5261 35.0904C61.3233 35.7005 60.8356 36.286 60.0648 36.7754L59.8708 36.6636L56.2665 34.5853L58.4532 33.3232L61.3845 35.0065L61.5261 35.0904Z" fill="#263238"/>
<path d="M58.6315 35.9473C59.0604 35.8053 59.4743 35.6215 59.8673 35.3984C60.2136 35.2019 60.5332 34.9616 60.8181 34.6835L58.4532 33.3184L56.2665 34.5856L58.6315 35.9473Z" fill="#37474F"/>
<path d="M65.2457 37.6547C65.1389 37.4965 64.9956 37.3664 64.8279 37.2754C64.4508 37.0845 64.034 36.985 63.6113 36.985C63.1886 36.985 62.7719 37.0845 62.3948 37.2754C62.2265 37.3663 62.0826 37.4964 61.9753 37.6547C61.9263 37.382 62.0854 37.0988 62.4489 36.8891C62.8089 36.7055 63.2073 36.6099 63.6113 36.6099C64.0154 36.6099 64.4137 36.7055 64.7737 36.8891C65.1373 37.0988 65.2964 37.382 65.2457 37.6547Z" fill="#37474F"/>
<path d="M64.9817 38.0815C64.9646 38.1007 64.9453 38.1177 64.924 38.1322C64.8757 38.1686 64.8256 38.2025 64.7737 38.2336C64.7545 38.2446 64.7346 38.2545 64.7143 38.2633C64.3663 38.1107 63.9904 38.0319 63.6105 38.0319C63.2305 38.0319 62.8546 38.1107 62.5066 38.2633L62.4489 38.2336L62.4297 38.2214L62.3248 38.1532L62.2986 38.1322C62.2772 38.1173 62.2573 38.1003 62.2392 38.0815C62.3046 38.027 62.3748 37.9784 62.4489 37.9365C62.8089 37.7529 63.2073 37.6572 63.6113 37.6572C64.0154 37.6572 64.4137 37.7529 64.7737 37.9365C64.8473 37.9784 64.9169 38.027 64.9817 38.0815Z" fill="#37474F"/>
<path d="M64.8279 37.2757C64.4508 37.0848 64.0341 36.9854 63.6114 36.9854C63.1887 36.9854 62.7719 37.0848 62.3948 37.2757C62.2266 37.3667 62.0827 37.4968 61.9753 37.655C61.9939 37.7507 62.034 37.841 62.0924 37.919L62.1396 37.9784C62.1882 38.0326 62.2421 38.0817 62.3004 38.1252C62.3481 38.0822 62.3996 38.0436 62.4542 38.0099L62.643 38.1182L62.851 37.9959L62.6762 37.8963C62.9726 37.7763 63.2899 37.7168 63.6096 37.7215C63.6865 37.7215 63.7634 37.7215 63.8403 37.7337L63.7827 37.8596L64.0676 37.905L64.1288 37.7757C64.3351 37.8136 64.5339 37.8845 64.7178 37.9854C64.791 38.0269 64.8596 38.0761 64.9223 38.1322C64.9793 38.0878 65.0325 38.0387 65.0814 37.9854C65.0552 37.9609 65.0255 37.94 64.9992 37.9155L65.1181 37.898C65.1181 37.9068 65.1181 37.9137 65.1181 37.9225C65.1767 37.8448 65.2162 37.7543 65.2335 37.6585C65.1306 37.5005 64.9916 37.3693 64.8279 37.2757Z" fill="#E0E0E0"/>
<path opacity="0.1" d="M64.8279 37.2757C64.4508 37.0848 64.0341 36.9854 63.6114 36.9854C63.1887 36.9854 62.7719 37.0848 62.3948 37.2757C62.2266 37.3667 62.0827 37.4968 61.9753 37.655C61.9939 37.7507 62.034 37.841 62.0924 37.919L62.1396 37.9784C62.1882 38.0326 62.2421 38.0817 62.3004 38.1252C62.3481 38.0822 62.3996 38.0436 62.4542 38.0099L62.643 38.1182L62.851 37.9959L62.6762 37.8963C62.9726 37.7763 63.2899 37.7168 63.6096 37.7215C63.6865 37.7215 63.7634 37.7215 63.8403 37.7337L63.7827 37.8596L64.0676 37.905L64.1288 37.7757C64.3351 37.8136 64.5339 37.8845 64.7178 37.9854C64.791 38.0269 64.8596 38.0761 64.9223 38.1322C64.9793 38.0878 65.0325 38.0387 65.0814 37.9854C65.0552 37.9609 65.0255 37.94 64.9992 37.9155L65.1181 37.898C65.1181 37.9068 65.1181 37.9137 65.1181 37.9225C65.1767 37.8448 65.2162 37.7543 65.2335 37.6585C65.1306 37.5005 64.9916 37.3693 64.8279 37.2757Z" fill="black"/>
<path d="M64.8279 37.2757C64.4508 37.0848 64.0341 36.9854 63.6114 36.9854C63.1887 36.9854 62.7719 37.0848 62.3948 37.2757C62.2266 37.3667 62.0827 37.4968 61.9753 37.655C61.9939 37.7507 62.034 37.841 62.0924 37.919C62.1559 37.7369 62.2849 37.5849 62.4542 37.4925L62.643 37.6009L62.851 37.4785L62.6762 37.3789C62.9726 37.2589 63.2899 37.1994 63.6096 37.2041C63.6865 37.2041 63.7634 37.2041 63.8403 37.2163L63.7827 37.3422L64.0676 37.3876L64.1288 37.2583C64.3351 37.2963 64.5339 37.3671 64.7178 37.468C64.8409 37.5338 64.9497 37.6236 65.0377 37.732L64.7807 37.7722H64.7528L64.8297 37.9382L65.0045 37.9102L65.1233 37.8928C65.1233 37.9015 65.1233 37.9085 65.1233 37.9172C65.182 37.8395 65.2215 37.7491 65.2387 37.6533C65.1337 37.4966 64.9929 37.3672 64.8279 37.2757Z" fill="#F5F5F5"/>
<path d="M62.4542 37.4941L62.643 37.6025V38.1234L62.4542 38.015V37.4941Z" fill="#EBEBEB"/>
<path d="M62.851 37.48V38.0009L62.643 38.1232V37.6023L62.851 37.48Z" fill="#E0E0E0"/>
<path d="M63.7844 37.3369V37.8578L64.0693 37.9033V37.3824L63.7844 37.3369Z" fill="#EBEBEB"/>
<path d="M64.1305 37.2529V37.7738L64.0693 37.9032V37.3823L64.1305 37.2529Z" fill="#EBEBEB"/>
<path d="M64.1305 37.2529V37.7738L64.0693 37.9032V37.3823L64.1305 37.2529Z" fill="#E0E0E0"/>
<path d="M64.7527 37.7754V38.2421C64.779 38.2299 64.8052 38.2106 64.8297 38.1966V37.9414L64.7527 37.7754Z" fill="#EBEBEB"/>
<path d="M65.1233 37.896V37.9327C65.0425 38.038 64.9429 38.1275 64.8297 38.1966V37.9414L65.1233 37.896Z" fill="#E0E0E0"/>
<path d="M65.1234 37.9327V37.896L65.1303 37.9205L65.1234 37.9327Z" fill="#E0E0E0"/>
<path opacity="0.1" d="M65.1234 37.9327V37.896L65.1303 37.9205L65.1234 37.9327Z" fill="black"/>
<path d="M57.2366 33.0297C57.1295 32.8713 56.9863 32.7407 56.8188 32.6486C56.4417 32.4577 56.0249 32.3582 55.6022 32.3582C55.1796 32.3582 54.7628 32.4577 54.3857 32.6486C54.2174 32.7402 54.0735 32.8709 53.9662 33.0297C53.9172 32.757 54.0763 32.4721 54.4399 32.2623C54.7998 32.0796 55.1977 31.9844 55.6014 31.9844C56.005 31.9844 56.403 32.0796 56.7629 32.2623C57.1282 32.4721 57.2855 32.757 57.2366 33.0297Z" fill="#37474F"/>
<path d="M56.9726 33.4545C56.9547 33.4728 56.9354 33.4898 56.915 33.5052C56.8663 33.5414 56.8155 33.5747 56.7629 33.6049C56.7444 33.6168 56.7252 33.6273 56.7052 33.6363C56.3572 33.4837 55.9814 33.4049 55.6014 33.4049C55.2214 33.4049 54.8455 33.4837 54.4975 33.6363L54.4399 33.6049L54.4206 33.5944C54.3839 33.5699 54.349 33.5489 54.3158 33.5245L54.2895 33.5052C54.2685 33.4898 54.2487 33.4729 54.2301 33.4545C54.2955 33.3994 54.3657 33.3503 54.4399 33.3077C54.7998 33.125 55.1977 33.0298 55.6014 33.0298C56.005 33.0298 56.403 33.125 56.7629 33.3077C56.8373 33.3499 56.9076 33.399 56.9726 33.4545Z" fill="#37474F"/>
<path d="M56.8188 32.6488C56.4417 32.4579 56.025 32.3584 55.6023 32.3584C55.1796 32.3584 54.7628 32.4579 54.3857 32.6488C54.2174 32.7404 54.0735 32.8711 53.9662 33.0298C53.9836 33.1259 54.0238 33.2164 54.0833 33.2938C54.0973 33.3148 54.1148 33.334 54.1305 33.355C54.1791 33.4091 54.233 33.4583 54.2913 33.5018C54.3394 33.4587 54.3908 33.4196 54.4451 33.3847L54.6322 33.4948L54.8419 33.3724L54.6671 33.2728C54.9635 33.1529 55.2808 33.0934 55.6005 33.098C55.6757 33.098 55.7543 33.098 55.8313 33.112L55.7736 33.2378L56.0585 33.2833L56.1197 33.1539C56.3261 33.1913 56.5251 33.2621 56.7087 33.3637C56.7819 33.4052 56.8505 33.4544 56.9132 33.5105C56.9703 33.4661 57.0235 33.417 57.0723 33.3637C57.0461 33.3392 57.0164 33.3165 56.9901 33.2938L57.1073 33.2763C57.1109 33.2842 57.1139 33.2924 57.116 33.3008C57.1743 33.2229 57.2138 33.1325 57.2314 33.0368C57.1266 32.8766 56.9852 32.7436 56.8188 32.6488Z" fill="#E0E0E0"/>
<path opacity="0.1" d="M56.8188 32.6488C56.4417 32.4579 56.025 32.3584 55.6023 32.3584C55.1796 32.3584 54.7628 32.4579 54.3857 32.6488C54.2174 32.7404 54.0735 32.8711 53.9662 33.0298C53.9836 33.1259 54.0238 33.2164 54.0833 33.2938C54.0973 33.3148 54.1148 33.334 54.1305 33.355C54.1791 33.4091 54.233 33.4583 54.2913 33.5018C54.3394 33.4587 54.3908 33.4196 54.4451 33.3847L54.6322 33.4948L54.8419 33.3724L54.6671 33.2728C54.9635 33.1529 55.2808 33.0934 55.6005 33.098C55.6757 33.098 55.7543 33.098 55.8313 33.112L55.7736 33.2378L56.0585 33.2833L56.1197 33.1539C56.3261 33.1913 56.5251 33.2621 56.7087 33.3637C56.7819 33.4052 56.8505 33.4544 56.9132 33.5105C56.9703 33.4661 57.0235 33.417 57.0723 33.3637C57.0461 33.3392 57.0164 33.3165 56.9901 33.2938L57.1073 33.2763C57.1109 33.2842 57.1139 33.2924 57.116 33.3008C57.1743 33.2229 57.2138 33.1325 57.2314 33.0368C57.1266 32.8766 56.9852 32.7436 56.8188 32.6488Z" fill="black"/>
<path d="M56.8188 32.6488C56.4417 32.4579 56.025 32.3584 55.6023 32.3584C55.1796 32.3584 54.7628 32.4579 54.3857 32.6488C54.2174 32.7404 54.0735 32.8711 53.9662 33.0298C53.9836 33.1259 54.0238 33.2164 54.0833 33.2938C54.1472 33.1114 54.276 32.959 54.4451 32.8655L54.6322 32.9757L54.8419 32.8533L54.6671 32.7537C54.9629 32.6307 55.2802 32.5683 55.6005 32.5701C55.6757 32.5701 55.7543 32.5701 55.8313 32.5841L55.7736 32.71L56.0585 32.7554L56.1197 32.6261C56.3261 32.6634 56.5251 32.7342 56.7087 32.8358C56.832 32.9029 56.9403 32.9945 57.0268 33.105L56.7699 33.1452H56.7419L56.8188 33.32L56.9936 33.292L57.1107 33.2746C57.1144 33.2824 57.1174 33.2906 57.1195 33.299C57.1778 33.2211 57.2173 33.1308 57.2349 33.0351C57.1289 32.8751 56.9863 32.7426 56.8188 32.6488Z" fill="#F5F5F5"/>
<path d="M54.4451 32.8672L54.6321 32.9773V33.4982L54.4451 33.3881V32.8672Z" fill="#EBEBEB"/>
<path d="M54.8419 32.855V33.3759L54.6321 33.4982V32.9773L54.8419 32.855Z" fill="#E0E0E0"/>
<path d="M55.7753 32.7114V33.2323L56.0602 33.2778V32.7569L55.7753 32.7114Z" fill="#EBEBEB"/>
<path d="M56.1214 32.6279V33.1488L56.0602 33.2782V32.7573L56.1214 32.6279Z" fill="#EBEBEB"/>
<path d="M56.1214 32.6279V33.1488L56.0602 33.2782V32.7573L56.1214 32.6279Z" fill="#E0E0E0"/>
<path d="M56.7437 33.1504V33.6171C56.7699 33.6031 56.7961 33.5856 56.8206 33.5699V33.3164L56.7437 33.1504Z" fill="#EBEBEB"/>
<path d="M57.1125 33.271V33.306C57.0332 33.4121 56.9341 33.5017 56.8206 33.5699V33.3164L57.1125 33.271Z" fill="#E0E0E0"/>
<path d="M57.1125 33.306V33.271L57.1212 33.2955L57.1125 33.306Z" fill="#E0E0E0"/>
<path opacity="0.1" d="M57.1125 33.306V33.271L57.1212 33.2955L57.1125 33.306Z" fill="black"/>
<path d="M61.7288 40.3257L59.7886 42.2956L46.838 34.8197L50.2518 33.6992L61.7288 40.3257Z" fill="#D7CEAF"/>
<path opacity="0.8" d="M61.7288 40.3257L59.7886 42.2956L46.838 34.8197L50.2518 33.6992L61.7288 40.3257Z" fill="white"/>
<path d="M46.838 34.8198V35.1432L59.7886 42.6192V42.2958L46.838 34.8198Z" fill="#D7CEAF"/>
<path opacity="0.6" d="M46.838 34.8198V35.1432L59.7886 42.6192V42.2958L46.838 34.8198Z" fill="white"/>
<path d="M61.7288 40.3257V40.6491L59.7886 42.619V42.2956L61.7288 40.3257Z" fill="#D7CEAF"/>
<path opacity="0.5" d="M61.7288 40.3257V40.6491L59.7886 42.619V42.2956L61.7288 40.3257Z" fill="white"/>
<g opacity="0.5">
<path d="M52.3458 36.5624L51.7585 36.9015C51.7261 36.916 51.6907 36.9227 51.6552 36.9212C51.6197 36.9197 51.5851 36.91 51.554 36.8927L50.9964 36.5711C50.937 36.5362 50.93 36.4837 50.9824 36.454L51.5697 36.1149C51.6012 36.0991 51.6359 36.0908 51.6711 36.0908C51.7063 36.0908 51.741 36.0991 51.7725 36.1149L52.3301 36.4383C52.3913 36.4802 52.3983 36.5327 52.3458 36.5624Z" fill="#D7CEAF"/>
<path d="M49.9301 35.3963C50.1521 35.5239 50.1521 35.7319 49.9301 35.8612C49.8055 35.9242 49.6678 35.9571 49.5281 35.9571C49.3885 35.9571 49.2507 35.9242 49.1261 35.8612C48.9041 35.7319 48.9041 35.5239 49.1261 35.3963C49.2503 35.3319 49.3882 35.2983 49.5281 35.2983C49.668 35.2983 49.8059 35.3319 49.9301 35.3963Z" fill="#D7CEAF"/>
<path d="M56.7681 39.1158L56.1808 39.4549C56.1284 39.4847 56.1353 39.5371 56.1965 39.5721L56.7541 39.8954C56.7849 39.9126 56.8192 39.9224 56.8545 39.9239C56.8897 39.9254 56.9248 39.9187 56.9569 39.9042L57.5442 39.5633C57.5966 39.5336 57.5896 39.4812 57.5302 39.4462L56.9726 39.1298C56.942 39.1118 56.9075 39.1011 56.872 39.0987C56.8365 39.0963 56.8009 39.1021 56.7681 39.1158Z" fill="#D7CEAF"/>
<path d="M58.7887 40.511C58.6645 40.4467 58.5266 40.4131 58.3867 40.4131C58.2468 40.4131 58.1089 40.4467 57.9847 40.511C57.7627 40.6386 57.7627 40.8466 57.9847 40.976C58.1093 41.039 58.247 41.0718 58.3867 41.0718C58.5264 41.0718 58.6641 41.039 58.7887 40.976C59.0107 40.8466 59.0107 40.6386 58.7887 40.511Z" fill="#D7CEAF"/>
</g>
<g opacity="0.5">
<path d="M51.7585 36.9016L52.1204 36.6936L51.7708 36.4926C51.74 36.4753 51.7056 36.4656 51.6704 36.4641C51.6352 36.4626 51.6001 36.4693 51.568 36.4838L51.2062 36.6936L51.5558 36.8928C51.5866 36.9098 51.621 36.9194 51.6561 36.9209C51.6913 36.9224 51.7263 36.9158 51.7585 36.9016Z" fill="#D7CEAF"/>
<path d="M49.1261 35.7652C49.1025 35.7797 49.0798 35.7955 49.0579 35.8124C49.0793 35.8305 49.1021 35.8469 49.1261 35.8614C49.2507 35.9244 49.3885 35.9572 49.5281 35.9572C49.6678 35.9572 49.8055 35.9244 49.9301 35.8614C49.9541 35.8469 49.9769 35.8305 49.9983 35.8124C49.9765 35.7955 49.9537 35.7797 49.9301 35.7652C49.8055 35.7022 49.6678 35.6694 49.5281 35.6694C49.3885 35.6694 49.2507 35.7022 49.1261 35.7652Z" fill="#D7CEAF"/>
<path d="M56.9569 39.9046L57.3187 39.6948L56.9691 39.4938C56.9374 39.478 56.9024 39.4697 56.8669 39.4697C56.8314 39.4697 56.7964 39.478 56.7646 39.4938L56.4045 39.7018L56.7541 39.9028C56.7854 39.9189 56.8201 39.9275 56.8553 39.9278C56.8905 39.9281 56.9253 39.9202 56.9569 39.9046Z" fill="#D7CEAF"/>
<path d="M57.9847 40.878C57.9611 40.8925 57.9384 40.9083 57.9165 40.9252C57.9379 40.9433 57.9607 40.9597 57.9847 40.9742C58.1093 41.0371 58.247 41.07 58.3867 41.07C58.5264 41.07 58.6641 41.0371 58.7887 40.9742C58.8127 40.9597 58.8355 40.9433 58.8569 40.9252C58.835 40.9083 58.8123 40.8925 58.7887 40.878C58.6641 40.815 58.5264 40.7822 58.3867 40.7822C58.247 40.7822 58.1093 40.815 57.9847 40.878Z" fill="#D7CEAF"/>
</g>
<path d="M55.417 37.6181C55.4077 37.5859 55.3916 37.5559 55.3699 37.5303C55.3483 37.5047 55.3214 37.484 55.2911 37.4695C55.1951 37.4204 55.0887 37.3948 54.9808 37.3948C54.873 37.3948 54.7666 37.4204 54.6706 37.4695C54.6405 37.4843 54.6138 37.5051 54.5921 37.5307C54.5705 37.5562 54.5543 37.586 54.5447 37.6181C54.5399 37.574 54.5496 37.5294 54.5723 37.4913C54.595 37.4531 54.6295 37.4234 54.6706 37.4066C54.767 37.3588 54.8732 37.334 54.9808 37.334C55.0885 37.334 55.1947 37.3588 55.2911 37.4066C55.3925 37.4643 55.4414 37.5429 55.417 37.6181Z" fill="#D7CEAF"/>
<path d="M55.417 37.6183C55.4079 37.6504 55.3919 37.6802 55.3702 37.7055C55.3484 37.7309 55.3215 37.7512 55.2911 37.7651C55.1953 37.8151 55.0889 37.8411 54.9809 37.8411C54.8728 37.8411 54.7664 37.8151 54.6706 37.7651C54.6404 37.7509 54.6136 37.7305 54.5919 37.7052C54.5702 37.6799 54.5542 37.6503 54.5447 37.6183C54.5543 37.5862 54.5705 37.5564 54.5921 37.5308C54.6138 37.5053 54.6405 37.4845 54.6706 37.4697C54.7666 37.4206 54.873 37.395 54.9809 37.395C55.0887 37.395 55.1951 37.4206 55.2911 37.4697C55.3214 37.4842 55.3483 37.5049 55.37 37.5305C55.3916 37.5561 55.4077 37.586 55.417 37.6183Z" fill="#455A64"/>
<path d="M55.1932 37.5848H55.0184V37.4957C55.0187 37.4912 55.018 37.4868 55.0164 37.4827C55.0148 37.4785 55.0124 37.4748 55.0093 37.4716C55.0061 37.4685 55.0024 37.466 54.9982 37.4645C54.9941 37.4629 54.9897 37.4622 54.9852 37.4625C54.9764 37.4625 54.968 37.466 54.9617 37.4722C54.9555 37.4784 54.952 37.4869 54.952 37.4957V37.5848H54.7772C54.7728 37.5846 54.7684 37.5852 54.7642 37.5868C54.7601 37.5884 54.7563 37.5908 54.7532 37.594C54.75 37.5971 54.7476 37.6009 54.746 37.605C54.7444 37.6092 54.7438 37.6136 54.744 37.618C54.744 37.6268 54.7475 37.6353 54.7537 37.6415C54.76 37.6477 54.7684 37.6512 54.7772 37.6512H54.952V37.7404C54.9524 37.749 54.9561 37.7573 54.9622 37.7634C54.9683 37.7695 54.9766 37.7732 54.9852 37.7736C54.994 37.7736 55.0025 37.7701 55.0087 37.7639C55.0149 37.7576 55.0184 37.7492 55.0184 37.7404V37.6512H55.1932C55.202 37.6512 55.2105 37.6477 55.2167 37.6415C55.2229 37.6353 55.2264 37.6268 55.2264 37.618C55.2267 37.6136 55.226 37.6092 55.2244 37.605C55.2228 37.6009 55.2204 37.5971 55.2173 37.594C55.2141 37.5908 55.2104 37.5884 55.2062 37.5868C55.2021 37.5852 55.1977 37.5846 55.1932 37.5848Z" fill="#37474F"/>
<path opacity="0.5" d="M51.8896 38.3628V40.1177L54.737 41.7626V40.0076L51.8896 38.3628Z" fill="#D7CEAF"/>
<path opacity="0.5" d="M54.737 40.0076L53.4086 39.2402L51.8896 40.1177L54.737 41.7625V40.0076Z" fill="#D7CEAF"/>
<path opacity="0.5" d="M47.0023 35.5415V37.2964L49.8515 38.9413V37.1863L47.0023 35.5415Z" fill="#D7CEAF"/>
<path opacity="0.5" d="M49.8515 37.1863L48.5213 36.4189L47.0023 37.2964L49.8515 38.9412V37.1863Z" fill="#D7CEAF"/>
<path opacity="0.5" d="M56.7786 41.1855V42.9405L59.6278 44.5853V42.8304L56.7786 41.1855Z" fill="#D7CEAF"/>
<path opacity="0.5" d="M59.6278 42.8303L58.2993 42.063L56.7786 42.9405L59.6278 44.5853V42.8303Z" fill="#D7CEAF"/>
<path opacity="0.5" d="M56.1476 40.8204L55.3645 40.3677V42.1244L56.1476 42.5753V40.8204Z" fill="#D7CEAF"/>
<path opacity="0.5" d="M56.1476 41.6714L55.3645 42.1241L56.1476 42.5751V41.6714Z" fill="#D7CEAF"/>
<path opacity="0.5" d="M51.2621 38.0011L50.479 37.5483V39.3033L51.2621 39.756V38.0011Z" fill="#D7CEAF"/>
<path opacity="0.5" d="M51.2621 38.8506L50.479 39.3033L51.2621 39.756V38.8506Z" fill="#D7CEAF"/>
<path d="M47.0023 36.8404L49.848 38.4834V37.6409L47.0005 35.9961L47.0023 36.8404ZM50.479 38.847L51.2621 39.2997V38.4555L50.479 38.0027V38.847ZM51.8878 39.6598L54.7422 41.3064V40.4621L51.8913 38.8173L51.8878 39.6598ZM56.7821 41.6402V42.4827L59.6365 44.1293V43.285L56.7821 41.6402ZM55.368 41.6682L56.1511 42.1209V41.2766L55.368 40.8239V41.6682Z" fill="#37474F"/>
<path d="M49.848 38.2279V37.6406L49.5089 37.4449L49.848 38.2279ZM50.4772 38.0024V38.8467L51.2603 39.2994V38.9691L50.9632 38.2839L50.4772 38.0024ZM47.9916 36.5674L48.4793 37.6931L49.2274 38.1248L48.7398 36.9991L47.9916 36.5674ZM52.9943 39.455L53.4837 40.5807L54.2318 41.0124L53.7424 39.885L52.9943 39.455ZM58.3517 42.5454L58.8394 43.6711L59.5875 44.1028L59.0981 42.9754L58.3517 42.5454ZM56.0986 42.0909L56.1493 42.1206V41.2764L55.6162 40.9635L56.0986 42.0909ZM57.0635 41.8025L56.7803 41.6399V42.4824L57.5512 42.9282L57.0635 41.8025Z" fill="#455A64"/>
<path d="M35.8723 27.9677L34.1477 25.2836L35.5322 21.9699V19.9419L31.2906 21.9699V23.9979L33.1153 26.6157C33.1443 26.6556 33.1877 26.6869 33.2394 26.7052L35.8723 27.9677Z" fill="#D7CEAF"/>
<path opacity="0.2" d="M35.8723 27.9677L34.1477 25.2836L35.5322 21.9699V19.9419L31.2906 21.9699V23.9979L33.1153 26.6157C33.1443 26.6556 33.1877 26.6869 33.2394 26.7052L35.8723 27.9677Z" fill="black"/>
<path d="M46 2.59391C45.9765 2.22854 45.849 1.87295 45.6278 1.5562C45.4067 1.23944 45.0982 0.97051 44.7275 0.771358L43.6912 0.274299C43.2976 0.108433 42.8623 0.0219727 42.4207 0.0219727C41.9791 0.0219727 41.5438 0.108433 41.1502 0.274299L25.2725 7.86935C24.9013 8.06883 24.5925 8.33829 24.3713 8.65566C24.1501 8.97303 24.0229 9.32927 24 9.69521V25.3989C24.0229 25.7649 24.1501 26.1211 24.3713 26.4385C24.5925 26.7559 24.9013 27.0253 25.2725 27.2248L26.3048 27.7186C26.6994 27.8837 27.1352 27.9697 27.5773 27.9697C28.0194 27.9697 28.4552 27.8837 28.8498 27.7186L33.9556 25.2763L35.7763 27.8876C35.8025 27.9248 35.8411 27.955 35.8874 27.9747C35.9338 27.9943 35.9859 28.0025 36.0378 27.9983C36.0896 27.9941 36.1389 27.9777 36.1797 27.951C36.2206 27.9244 36.2514 27.8885 36.2685 27.8478L38.1892 23.2483L44.7275 20.1301C45.0982 19.931 45.4067 19.662 45.6278 19.3453C45.849 19.0285 45.9765 18.673 46 18.3076V2.59391Z" fill="#D7CEAF"/>
<path opacity="0.2" d="M24 25.3999C24.0229 25.7659 24.1501 26.1221 24.3713 26.4395C24.5925 26.7569 24.9013 27.0263 25.2725 27.2258L26.3048 27.7195C26.6636 27.8695 27.0567 27.9547 27.4581 27.9695C27.8595 27.9844 28.2602 27.9285 28.6337 27.8057C28.0335 27.9913 27.5773 27.7129 27.5773 27.1131V11.416C27.5933 11.0498 27.7213 10.6929 27.9494 10.3788L24.3721 8.66895C24.1419 8.98222 24.0137 9.33958 24 9.70614V25.3999Z" fill="black"/>
<path opacity="0.3" d="M45.956 2.29628C45.8079 1.84893 45.3158 1.70644 44.7276 1.98479L28.8498 9.60635C28.4715 9.79696 28.1619 10.0682 27.9535 10.3917L24.3762 8.68182C24.5826 8.35008 24.8919 8.06985 25.2725 7.86996L41.1463 0.248398C41.5414 0.0850387 41.977 0 42.4187 0C42.8604 0 43.296 0.0850387 43.6912 0.248398L44.7276 0.745456C45.0501 0.920066 45.3257 1.14792 45.5371 1.41476C45.7485 1.68161 45.8911 1.98171 45.956 2.29628Z" fill="white"/>
<path d="M33.4394 11.7703V18.6795C33.2674 18.685 33.1002 18.7285 32.9552 18.8054C32.1549 19.1765 31.5347 20.2866 31.5347 21.2874C31.5347 22.2881 32.1549 22.7818 32.9552 22.4074C33.7555 22.0329 34.3718 20.9228 34.3758 19.9254L34.3958 13.7321L39.2815 9.78211V15.9158C39.1152 15.9196 38.9527 15.9583 38.8094 16.0285C38.0291 16.3996 37.3929 17.5097 37.3929 18.5071C37.3929 19.5046 38.0211 20.0149 38.8054 19.6404C39.5897 19.266 40.2219 18.1592 40.2259 17.1618V6.92236L33.4394 11.7703Z" fill="#FAFAFA"/>
</svg>
