<svg width="260" height="43" viewBox="0 0 260 43" fill="none" xmlns="http://www.w3.org/2000/svg">
<path d="M4.39949 14L0.955492 4.13H2.17349L5.18349 13.02H4.69349L7.85749 4.13H8.78149L11.7775 13.02H11.3295L14.4235 4.13H15.5715L12.0995 14H11.0635L8.15149 5.446H8.44549L5.40749 14H4.39949ZM19.2214 14.126C18.5494 14.126 17.9614 13.9813 17.4574 13.692C16.9628 13.3933 16.5801 12.9733 16.3094 12.432C16.0388 11.8813 15.9034 11.2327 15.9034 10.486C15.9034 9.73 16.0388 9.08133 16.3094 8.54C16.5801 7.99867 16.9628 7.58333 17.4574 7.294C17.9614 6.99533 18.5494 6.846 19.2214 6.846C19.9028 6.846 20.4908 6.99533 20.9854 7.294C21.4894 7.58333 21.8768 7.99867 22.1474 8.54C22.4274 9.08133 22.5674 9.73 22.5674 10.486C22.5674 11.2327 22.4274 11.8813 22.1474 12.432C21.8768 12.9733 21.4894 13.3933 20.9854 13.692C20.4908 13.9813 19.9028 14.126 19.2214 14.126ZM19.2214 13.202C19.8934 13.202 20.4254 12.9733 20.8174 12.516C21.2094 12.0493 21.4054 11.3727 21.4054 10.486C21.4054 9.59 21.2048 8.91333 20.8034 8.456C20.4114 7.98933 19.8841 7.756 19.2214 7.756C18.5588 7.756 18.0314 7.98933 17.6394 8.456C17.2474 8.91333 17.0514 9.59 17.0514 10.486C17.0514 11.3727 17.2474 12.0493 17.6394 12.516C18.0314 12.9733 18.5588 13.202 19.2214 13.202ZM24.3075 14V8.666C24.3075 8.386 24.2982 8.10133 24.2795 7.812C24.2702 7.52267 24.2515 7.24267 24.2235 6.972H25.3155L25.4555 8.68L25.2595 8.694C25.3528 8.274 25.5162 7.92867 25.7495 7.658C25.9828 7.38733 26.2582 7.18667 26.5755 7.056C26.8928 6.916 27.2242 6.846 27.5695 6.846C27.7095 6.846 27.8308 6.85067 27.9335 6.86C28.0455 6.86933 28.1482 6.89267 28.2415 6.93L28.2275 7.938C28.0875 7.89133 27.9568 7.86333 27.8355 7.854C27.7235 7.83533 27.5928 7.826 27.4435 7.826C27.0328 7.826 26.6735 7.924 26.3655 8.12C26.0668 8.316 25.8382 8.568 25.6795 8.876C25.5302 9.184 25.4555 9.51067 25.4555 9.856V14H24.3075ZM29.4214 14V3.696H30.5554V10.094H30.5834L33.8454 6.972H35.2734L31.4234 10.64L31.4514 10.066L35.6374 14H34.1674L30.5834 10.696H30.5554V14H29.4214Z" fill="black"/>
<path d="M199.32 14V4.13H205.48V5.082H200.482V8.54H205.172V9.492H200.482V14H199.32ZM209.679 14.126C209.007 14.126 208.419 13.9813 207.915 13.692C207.421 13.3933 207.038 12.9733 206.767 12.432C206.497 11.8813 206.361 11.2327 206.361 10.486C206.361 9.73 206.497 9.08133 206.767 8.54C207.038 7.99867 207.421 7.58333 207.915 7.294C208.419 6.99533 209.007 6.846 209.679 6.846C210.361 6.846 210.949 6.99533 211.443 7.294C211.947 7.58333 212.335 7.99867 212.605 8.54C212.885 9.08133 213.025 9.73 213.025 10.486C213.025 11.2327 212.885 11.8813 212.605 12.432C212.335 12.9733 211.947 13.3933 211.443 13.692C210.949 13.9813 210.361 14.126 209.679 14.126ZM209.679 13.202C210.351 13.202 210.883 12.9733 211.275 12.516C211.667 12.0493 211.863 11.3727 211.863 10.486C211.863 9.59 211.663 8.91333 211.261 8.456C210.869 7.98933 210.342 7.756 209.679 7.756C209.017 7.756 208.489 7.98933 208.097 8.456C207.705 8.91333 207.509 9.59 207.509 10.486C207.509 11.3727 207.705 12.0493 208.097 12.516C208.489 12.9733 209.017 13.202 209.679 13.202ZM214.794 14V3.696H215.928V14H214.794ZM218.129 14V3.696H219.263V14H218.129ZM224.349 14.126C223.677 14.126 223.089 13.9813 222.585 13.692C222.091 13.3933 221.708 12.9733 221.437 12.432C221.167 11.8813 221.031 11.2327 221.031 10.486C221.031 9.73 221.167 9.08133 221.437 8.54C221.708 7.99867 222.091 7.58333 222.585 7.294C223.089 6.99533 223.677 6.846 224.349 6.846C225.031 6.846 225.619 6.99533 226.113 7.294C226.617 7.58333 227.005 7.99867 227.275 8.54C227.555 9.08133 227.695 9.73 227.695 10.486C227.695 11.2327 227.555 11.8813 227.275 12.432C227.005 12.9733 226.617 13.3933 226.113 13.692C225.619 13.9813 225.031 14.126 224.349 14.126ZM224.349 13.202C225.021 13.202 225.553 12.9733 225.945 12.516C226.337 12.0493 226.533 11.3727 226.533 10.486C226.533 9.59 226.333 8.91333 225.931 8.456C225.539 7.98933 225.012 7.756 224.349 7.756C223.687 7.756 223.159 7.98933 222.767 8.456C222.375 8.91333 222.179 9.59 222.179 10.486C222.179 11.3727 222.375 12.0493 222.767 12.516C223.159 12.9733 223.687 13.202 224.349 13.202ZM231.244 14L228.64 6.972H229.844L232.014 13.16H231.65L233.89 6.972H234.87L237.068 13.16H236.718L238.902 6.972H240.05L237.432 14H236.34L234.072 7.714H234.632L232.35 14H231.244ZM244.562 14.126C243.461 14.126 242.593 13.8087 241.958 13.174C241.323 12.53 241.006 11.6387 241.006 10.5C241.006 9.76267 241.146 9.12333 241.426 8.582C241.706 8.03133 242.098 7.60667 242.602 7.308C243.106 7 243.685 6.846 244.338 6.846C244.982 6.846 245.523 6.98133 245.962 7.252C246.401 7.52267 246.737 7.91 246.97 8.414C247.203 8.90867 247.32 9.49667 247.32 10.178V10.598H241.874V9.884H246.578L246.34 10.066C246.34 9.31933 246.172 8.736 245.836 8.316C245.5 7.896 245.001 7.686 244.338 7.686C243.638 7.686 243.092 7.93333 242.7 8.428C242.308 8.91333 242.112 9.57133 242.112 10.402V10.528C242.112 11.4053 242.327 12.0727 242.756 12.53C243.195 12.978 243.806 13.202 244.59 13.202C245.01 13.202 245.402 13.1413 245.766 13.02C246.139 12.8893 246.494 12.6793 246.83 12.39L247.222 13.188C246.914 13.4867 246.522 13.72 246.046 13.888C245.579 14.0467 245.085 14.126 244.562 14.126ZM249.027 14V8.666C249.027 8.386 249.018 8.10133 248.999 7.812C248.99 7.52267 248.971 7.24267 248.943 6.972H250.035L250.175 8.68L249.979 8.694C250.073 8.274 250.236 7.92867 250.469 7.658C250.703 7.38733 250.978 7.18667 251.295 7.056C251.613 6.916 251.944 6.846 252.289 6.846C252.429 6.846 252.551 6.85067 252.653 6.86C252.765 6.86933 252.868 6.89267 252.961 6.93L252.947 7.938C252.807 7.89133 252.677 7.86333 252.555 7.854C252.443 7.83533 252.313 7.826 252.163 7.826C251.753 7.826 251.393 7.924 251.085 8.12C250.787 8.316 250.558 8.568 250.399 8.876C250.25 9.184 250.175 9.51067 250.175 9.856V14H249.027ZM256.411 14.126C255.851 14.126 255.328 14.0513 254.843 13.902C254.357 13.7433 253.956 13.524 253.639 13.244L254.031 12.446C254.376 12.7167 254.749 12.9173 255.151 13.048C255.561 13.1787 255.986 13.244 256.425 13.244C256.985 13.244 257.405 13.146 257.685 12.95C257.974 12.7447 258.119 12.4647 258.119 12.11C258.119 11.8393 258.025 11.6247 257.839 11.466C257.661 11.298 257.367 11.1673 256.957 11.074L255.655 10.808C255.057 10.6773 254.609 10.458 254.311 10.15C254.012 9.83267 253.863 9.43133 253.863 8.946C253.863 8.53533 253.97 8.176 254.185 7.868C254.399 7.55067 254.712 7.30333 255.123 7.126C255.533 6.93933 256.014 6.846 256.565 6.846C257.078 6.846 257.549 6.92533 257.979 7.084C258.417 7.23333 258.781 7.45267 259.071 7.742L258.665 8.526C258.385 8.25533 258.063 8.05467 257.699 7.924C257.344 7.784 256.975 7.714 256.593 7.714C256.042 7.714 255.627 7.826 255.347 8.05C255.076 8.26467 254.941 8.54933 254.941 8.904C254.941 9.17467 255.025 9.39867 255.193 9.576C255.37 9.744 255.641 9.87 256.005 9.954L257.307 10.22C257.941 10.36 258.413 10.5793 258.721 10.878C259.038 11.1673 259.197 11.5593 259.197 12.054C259.197 12.474 259.08 12.8427 258.847 13.16C258.613 13.468 258.287 13.706 257.867 13.874C257.456 14.042 256.971 14.126 256.411 14.126Z" fill="black"/>
<path d="M95.7242 14V4.13H99.7562C100.792 4.13 101.595 4.37733 102.164 4.872C102.734 5.35733 103.018 6.03867 103.018 6.916C103.018 7.49467 102.888 7.98933 102.626 8.4C102.374 8.80133 102.015 9.10933 101.548 9.324C101.091 9.53867 100.554 9.646 99.9382 9.646L100.19 9.464H100.47C100.853 9.464 101.194 9.55733 101.492 9.744C101.8 9.93067 102.043 10.2433 102.22 10.682L103.62 14H102.346L101.002 10.738C100.844 10.318 100.606 10.0473 100.288 9.926C99.9709 9.79533 99.5742 9.73 99.0982 9.73H96.8862V14H95.7242ZM96.8862 8.82H99.5882C100.335 8.82 100.9 8.66133 101.282 8.344C101.674 8.01733 101.87 7.55067 101.87 6.944C101.87 6.33733 101.674 5.87533 101.282 5.558C100.9 5.24067 100.335 5.082 99.5882 5.082H96.8862V8.82ZM108.263 14.126C107.162 14.126 106.294 13.8087 105.659 13.174C105.024 12.53 104.707 11.6387 104.707 10.5C104.707 9.76267 104.847 9.12333 105.127 8.582C105.407 8.03133 105.799 7.60667 106.303 7.308C106.807 7 107.386 6.846 108.039 6.846C108.683 6.846 109.224 6.98133 109.663 7.252C110.102 7.52267 110.438 7.91 110.671 8.414C110.904 8.90867 111.021 9.49667 111.021 10.178V10.598H105.575V9.884H110.279L110.041 10.066C110.041 9.31933 109.873 8.736 109.537 8.316C109.201 7.896 108.702 7.686 108.039 7.686C107.339 7.686 106.793 7.93333 106.401 8.428C106.009 8.91333 105.813 9.57133 105.813 10.402V10.528C105.813 11.4053 106.028 12.0727 106.457 12.53C106.896 12.978 107.507 13.202 108.291 13.202C108.711 13.202 109.103 13.1413 109.467 13.02C109.84 12.8893 110.195 12.6793 110.531 12.39L110.923 13.188C110.615 13.4867 110.223 13.72 109.747 13.888C109.28 14.0467 108.786 14.126 108.263 14.126ZM115.43 14.126C114.805 14.126 114.259 13.9813 113.792 13.692C113.326 13.3933 112.962 12.9733 112.7 12.432C112.448 11.8907 112.322 11.242 112.322 10.486C112.322 9.72067 112.448 9.06733 112.7 8.526C112.962 7.98467 113.326 7.56933 113.792 7.28C114.259 6.99067 114.805 6.846 115.43 6.846C116.065 6.846 116.611 7.00933 117.068 7.336C117.535 7.65333 117.843 8.08733 117.992 8.638H117.824L117.978 6.972H119.07C119.042 7.24267 119.014 7.518 118.986 7.798C118.968 8.06867 118.958 8.33467 118.958 8.596V14H117.824V12.348H117.978C117.829 12.8987 117.521 13.3327 117.054 13.65C116.588 13.9673 116.046 14.126 115.43 14.126ZM115.654 13.202C116.326 13.202 116.858 12.9733 117.25 12.516C117.642 12.0493 117.838 11.3727 117.838 10.486C117.838 9.59 117.642 8.91333 117.25 8.456C116.858 7.98933 116.326 7.756 115.654 7.756C114.992 7.756 114.46 7.98933 114.058 8.456C113.666 8.91333 113.47 9.59 113.47 10.486C113.47 11.3727 113.666 12.0493 114.058 12.516C114.46 12.9733 114.992 13.202 115.654 13.202ZM123.811 14.126C123.195 14.126 122.654 13.9813 122.187 13.692C121.72 13.3933 121.356 12.9733 121.095 12.432C120.843 11.8907 120.717 11.242 120.717 10.486C120.717 9.72067 120.843 9.06733 121.095 8.526C121.356 7.98467 121.72 7.56933 122.187 7.28C122.654 6.99067 123.195 6.846 123.811 6.846C124.446 6.846 124.992 7.00467 125.449 7.322C125.916 7.63933 126.228 8.06867 126.387 8.61H126.219V3.696H127.353V14H126.233V12.32H126.387C126.238 12.88 125.93 13.3233 125.463 13.65C124.996 13.9673 124.446 14.126 123.811 14.126ZM124.049 13.202C124.712 13.202 125.244 12.9733 125.645 12.516C126.046 12.0493 126.247 11.3727 126.247 10.486C126.247 9.59 126.046 8.91333 125.645 8.456C125.244 7.98933 124.712 7.756 124.049 7.756C123.386 7.756 122.854 7.98933 122.453 8.456C122.061 8.91333 121.865 9.59 121.865 10.486C121.865 11.3727 122.061 12.0493 122.453 12.516C122.854 12.9733 123.386 13.202 124.049 13.202ZM129.545 14V6.972H130.679V14H129.545ZM129.405 5.376V4.102H130.805V5.376H129.405ZM132.881 14V8.596C132.881 8.33467 132.867 8.06867 132.839 7.798C132.821 7.518 132.797 7.24267 132.769 6.972H133.861L134.001 8.512H133.833C134.039 7.97067 134.365 7.56 134.813 7.28C135.271 6.99067 135.798 6.846 136.395 6.846C137.226 6.846 137.851 7.07 138.271 7.518C138.701 7.95667 138.915 8.652 138.915 9.604V14H137.781V9.674C137.781 9.01133 137.646 8.53067 137.375 8.232C137.114 7.924 136.703 7.77 136.143 7.77C135.49 7.77 134.972 7.97067 134.589 8.372C134.207 8.77333 134.015 9.31 134.015 9.982V14H132.881ZM144.179 17.122C143.572 17.122 143.012 17.0473 142.499 16.898C141.985 16.7487 141.523 16.52 141.113 16.212L141.449 15.358C141.738 15.5633 142.023 15.7267 142.303 15.848C142.583 15.9693 142.872 16.058 143.171 16.114C143.469 16.1793 143.787 16.212 144.123 16.212C144.813 16.212 145.336 16.03 145.691 15.666C146.045 15.302 146.223 14.784 146.223 14.112V12.054H146.363C146.213 12.6047 145.905 13.0433 145.439 13.37C144.972 13.6873 144.426 13.846 143.801 13.846C143.157 13.846 142.597 13.706 142.121 13.426C141.654 13.1367 141.29 12.7307 141.029 12.208C140.777 11.676 140.651 11.0507 140.651 10.332C140.651 9.62267 140.777 9.00667 141.029 8.484C141.29 7.96133 141.654 7.56 142.121 7.28C142.597 6.99067 143.157 6.846 143.801 6.846C144.435 6.846 144.981 7.00467 145.439 7.322C145.905 7.63933 146.213 8.078 146.363 8.638L146.223 8.498L146.349 6.972H147.455C147.417 7.24267 147.389 7.518 147.371 7.798C147.352 8.06867 147.343 8.33467 147.343 8.596V13.958C147.343 15.0033 147.072 15.792 146.531 16.324C145.999 16.856 145.215 17.122 144.179 17.122ZM144.011 12.922C144.692 12.922 145.229 12.698 145.621 12.25C146.013 11.7927 146.209 11.1533 146.209 10.332C146.209 9.51067 146.013 8.876 145.621 8.428C145.229 7.98 144.692 7.756 144.011 7.756C143.339 7.756 142.802 7.98 142.401 8.428C141.999 8.876 141.799 9.51067 141.799 10.332C141.799 11.1533 141.999 11.7927 142.401 12.25C142.802 12.698 143.339 12.922 144.011 12.922ZM153.17 14V3.696H154.304V14H153.17ZM156.506 14V6.972H157.64V14H156.506ZM156.366 5.376V4.102H157.766V5.376H156.366ZM162.18 14.126C161.62 14.126 161.098 14.0513 160.612 13.902C160.127 13.7433 159.726 13.524 159.408 13.244L159.8 12.446C160.146 12.7167 160.519 12.9173 160.92 13.048C161.331 13.1787 161.756 13.244 162.194 13.244C162.754 13.244 163.174 13.146 163.454 12.95C163.744 12.7447 163.888 12.4647 163.888 12.11C163.888 11.8393 163.795 11.6247 163.608 11.466C163.431 11.298 163.137 11.1673 162.726 11.074L161.424 10.808C160.827 10.6773 160.379 10.458 160.08 10.15C159.782 9.83267 159.632 9.43133 159.632 8.946C159.632 8.53533 159.74 8.176 159.954 7.868C160.169 7.55067 160.482 7.30333 160.892 7.126C161.303 6.93933 161.784 6.846 162.334 6.846C162.848 6.846 163.319 6.92533 163.748 7.084C164.187 7.23333 164.551 7.45267 164.84 7.742L164.434 8.526C164.154 8.25533 163.832 8.05467 163.468 7.924C163.114 7.784 162.745 7.714 162.362 7.714C161.812 7.714 161.396 7.826 161.116 8.05C160.846 8.26467 160.71 8.54933 160.71 8.904C160.71 9.17467 160.794 9.39867 160.962 9.576C161.14 9.744 161.41 9.87 161.774 9.954L163.076 10.22C163.711 10.36 164.182 10.5793 164.49 10.878C164.808 11.1673 164.966 11.5593 164.966 12.054C164.966 12.474 164.85 12.8427 164.616 13.16C164.383 13.468 164.056 13.706 163.636 13.874C163.226 14.042 162.74 14.126 162.18 14.126ZM169.211 14.126C168.521 14.126 167.993 13.93 167.629 13.538C167.265 13.1367 167.083 12.5347 167.083 11.732V7.854H165.711V6.972H167.083V5.054L168.217 4.732V6.972H170.233V7.854H168.217V11.606C168.217 12.166 168.311 12.5673 168.497 12.81C168.693 13.0433 168.983 13.16 169.365 13.16C169.543 13.16 169.701 13.146 169.841 13.118C169.981 13.0807 170.107 13.0387 170.219 12.992V13.944C170.089 14 169.93 14.042 169.743 14.07C169.566 14.1073 169.389 14.126 169.211 14.126Z" fill="black"/>
<path d="M11.4467 35.126C10.7841 35.126 10.1494 35.0233 9.54273 34.818C8.93607 34.6127 8.4274 34.3187 8.01673 33.936L8.45073 33.04C8.90807 33.4133 9.3794 33.684 9.86473 33.852C10.3501 34.02 10.8727 34.104 11.4327 34.104C12.1701 34.104 12.7301 33.95 13.1127 33.642C13.4954 33.3247 13.6867 32.8627 13.6867 32.256C13.6867 31.6773 13.4907 31.2387 13.0987 30.94C12.7067 30.632 12.1327 30.478 11.3767 30.478H9.89273V29.512H11.2787C11.9321 29.512 12.4501 29.344 12.8327 29.008C13.2154 28.672 13.4067 28.2147 13.4067 27.636C13.4067 27.1133 13.2294 26.7167 12.8747 26.446C12.5294 26.166 12.0301 26.026 11.3767 26.026C10.3127 26.026 9.3934 26.404 8.61873 27.16L8.18473 26.25C8.5674 25.858 9.04807 25.5547 9.62673 25.34C10.2054 25.116 10.8121 25.004 11.4467 25.004C12.4174 25.004 13.1781 25.228 13.7287 25.676C14.2794 26.124 14.5547 26.7447 14.5547 27.538C14.5547 28.1447 14.3821 28.6673 14.0367 29.106C13.6914 29.5353 13.2247 29.8293 12.6367 29.988V29.834C13.3367 29.946 13.8781 30.226 14.2607 30.674C14.6434 31.1127 14.8347 31.668 14.8347 32.34C14.8347 33.1987 14.5314 33.88 13.9247 34.384C13.3274 34.8787 12.5014 35.126 11.4467 35.126Z" fill="black"/>
<path d="M129.081 40V39.006H131.405V31.124H132.021L129.305 32.818V31.656L131.727 30.13H132.567V39.006H134.751V40H129.081Z" fill="black"/>
<path d="M219.052 40V39.006H221.376V31.124H221.992L219.276 32.818V31.656L221.698 30.13H222.538V39.006H224.722V40H219.052ZM229.211 40.126C228.698 40.126 228.18 40.0187 227.657 39.804C227.134 39.58 226.7 39.2907 226.355 38.936L226.789 38.026C227.144 38.39 227.531 38.6607 227.951 38.838C228.371 39.0153 228.796 39.104 229.225 39.104C230.168 39.104 230.891 38.768 231.395 38.096C231.908 37.4147 232.165 36.3973 232.165 35.044V33.742H232.305C232.249 34.2647 232.086 34.722 231.815 35.114C231.554 35.506 231.213 35.8047 230.793 36.01C230.382 36.2153 229.92 36.318 229.407 36.318C228.81 36.318 228.278 36.1873 227.811 35.926C227.354 35.6647 226.994 35.296 226.733 34.82C226.472 34.344 226.341 33.8073 226.341 33.21C226.341 32.5847 226.476 32.034 226.747 31.558C227.027 31.0727 227.405 30.6947 227.881 30.424C228.366 30.144 228.922 30.004 229.547 30.004C230.751 30.004 231.675 30.424 232.319 31.264C232.972 32.104 233.299 33.2893 233.299 34.82C233.299 35.9493 233.136 36.9107 232.809 37.704C232.482 38.4973 232.016 39.0993 231.409 39.51C230.802 39.9207 230.07 40.126 229.211 40.126ZM229.645 35.352C230.074 35.352 230.452 35.2587 230.779 35.072C231.106 34.8853 231.358 34.6287 231.535 34.302C231.722 33.9753 231.815 33.5973 231.815 33.168C231.815 32.7293 231.722 32.3467 231.535 32.02C231.358 31.6933 231.106 31.4367 230.779 31.25C230.452 31.0633 230.074 30.97 229.645 30.97C229.216 30.97 228.833 31.0633 228.497 31.25C228.17 31.4367 227.914 31.6933 227.727 32.02C227.55 32.3467 227.461 32.7293 227.461 33.168C227.461 33.5973 227.55 33.9753 227.727 34.302C227.914 34.6287 228.17 34.8853 228.497 35.072C228.833 35.2587 229.216 35.352 229.645 35.352ZM237.605 40.126C237.092 40.126 236.574 40.0187 236.051 39.804C235.529 39.58 235.095 39.2907 234.749 38.936L235.183 38.026C235.538 38.39 235.925 38.6607 236.345 38.838C236.765 39.0153 237.19 39.104 237.619 39.104C238.562 39.104 239.285 38.768 239.789 38.096C240.303 37.4147 240.559 36.3973 240.559 35.044V33.742H240.699C240.643 34.2647 240.48 34.722 240.209 35.114C239.948 35.506 239.607 35.8047 239.187 36.01C238.777 36.2153 238.315 36.318 237.801 36.318C237.204 36.318 236.672 36.1873 236.205 35.926C235.748 35.6647 235.389 35.296 235.127 34.82C234.866 34.344 234.735 33.8073 234.735 33.21C234.735 32.5847 234.871 32.034 235.141 31.558C235.421 31.0727 235.799 30.6947 236.275 30.424C236.761 30.144 237.316 30.004 237.941 30.004C239.145 30.004 240.069 30.424 240.713 31.264C241.367 32.104 241.693 33.2893 241.693 34.82C241.693 35.9493 241.53 36.9107 241.203 37.704C240.877 38.4973 240.41 39.0993 239.803 39.51C239.197 39.9207 238.464 40.126 237.605 40.126ZM238.039 35.352C238.469 35.352 238.847 35.2587 239.173 35.072C239.5 34.8853 239.752 34.6287 239.929 34.302C240.116 33.9753 240.209 33.5973 240.209 33.168C240.209 32.7293 240.116 32.3467 239.929 32.02C239.752 31.6933 239.5 31.4367 239.173 31.25C238.847 31.0633 238.469 30.97 238.039 30.97C237.61 30.97 237.227 31.0633 236.891 31.25C236.565 31.4367 236.308 31.6933 236.121 32.02C235.944 32.3467 235.855 32.7293 235.855 33.168C235.855 33.5973 235.944 33.9753 236.121 34.302C236.308 34.6287 236.565 34.8853 236.891 35.072C237.227 35.2587 237.61 35.352 238.039 35.352ZM246 40.126C245.487 40.126 244.969 40.0187 244.446 39.804C243.923 39.58 243.489 39.2907 243.144 38.936L243.578 38.026C243.933 38.39 244.32 38.6607 244.74 38.838C245.16 39.0153 245.585 39.104 246.014 39.104C246.957 39.104 247.68 38.768 248.184 38.096C248.697 37.4147 248.954 36.3973 248.954 35.044V33.742H249.094C249.038 34.2647 248.875 34.722 248.604 35.114C248.343 35.506 248.002 35.8047 247.582 36.01C247.171 36.2153 246.709 36.318 246.196 36.318C245.599 36.318 245.067 36.1873 244.6 35.926C244.143 35.6647 243.783 35.296 243.522 34.82C243.261 34.344 243.13 33.8073 243.13 33.21C243.13 32.5847 243.265 32.034 243.536 31.558C243.816 31.0727 244.194 30.6947 244.67 30.424C245.155 30.144 245.711 30.004 246.336 30.004C247.54 30.004 248.464 30.424 249.108 31.264C249.761 32.104 250.088 33.2893 250.088 34.82C250.088 35.9493 249.925 36.9107 249.598 37.704C249.271 38.4973 248.805 39.0993 248.198 39.51C247.591 39.9207 246.859 40.126 246 40.126ZM246.434 35.352C246.863 35.352 247.241 35.2587 247.568 35.072C247.895 34.8853 248.147 34.6287 248.324 34.302C248.511 33.9753 248.604 33.5973 248.604 33.168C248.604 32.7293 248.511 32.3467 248.324 32.02C248.147 31.6933 247.895 31.4367 247.568 31.25C247.241 31.0633 246.863 30.97 246.434 30.97C246.005 30.97 245.622 31.0633 245.286 31.25C244.959 31.4367 244.703 31.6933 244.516 32.02C244.339 32.3467 244.25 32.7293 244.25 33.168C244.25 33.5973 244.339 33.9753 244.516 34.302C244.703 34.6287 244.959 34.8853 245.286 35.072C245.622 35.2587 246.005 35.352 246.434 35.352ZM252.085 40V30.13H253.247V34.61H253.275L258.007 30.13H259.491L254.045 35.226L254.059 34.638L259.883 40H258.357L253.275 35.352H253.247V40H252.085Z" fill="black"/>
</svg>
