<svg width="36" height="12" viewBox="0 0 36 12" fill="none" xmlns="http://www.w3.org/2000/svg">
<path d="M4.39949 11L0.955492 1.13H2.17349L5.18349 10.02H4.69349L7.85749 1.13H8.78149L11.7775 10.02H11.3295L14.4235 1.13H15.5715L12.0995 11H11.0635L8.15149 2.446H8.44549L5.40749 11H4.39949ZM19.2214 11.126C18.5494 11.126 17.9614 10.9813 17.4574 10.692C16.9628 10.3933 16.5801 9.97333 16.3094 9.432C16.0388 8.88133 15.9034 8.23267 15.9034 7.486C15.9034 6.73 16.0388 6.08133 16.3094 5.54C16.5801 4.99867 16.9628 4.58333 17.4574 4.294C17.9614 3.99533 18.5494 3.846 19.2214 3.846C19.9028 3.846 20.4908 3.99533 20.9854 4.294C21.4894 4.58333 21.8768 4.99867 22.1474 5.54C22.4274 6.08133 22.5674 6.73 22.5674 7.486C22.5674 8.23267 22.4274 8.88133 22.1474 9.432C21.8768 9.97333 21.4894 10.3933 20.9854 10.692C20.4908 10.9813 19.9028 11.126 19.2214 11.126ZM19.2214 10.202C19.8934 10.202 20.4254 9.97333 20.8174 9.516C21.2094 9.04933 21.4054 8.37267 21.4054 7.486C21.4054 6.59 21.2048 5.91333 20.8034 5.456C20.4114 4.98933 19.8841 4.756 19.2214 4.756C18.5588 4.756 18.0314 4.98933 17.6394 5.456C17.2474 5.91333 17.0514 6.59 17.0514 7.486C17.0514 8.37267 17.2474 9.04933 17.6394 9.516C18.0314 9.97333 18.5588 10.202 19.2214 10.202ZM24.3075 11V5.666C24.3075 5.386 24.2982 5.10133 24.2795 4.812C24.2702 4.52267 24.2515 4.24267 24.2235 3.972H25.3155L25.4555 5.68L25.2595 5.694C25.3528 5.274 25.5162 4.92867 25.7495 4.658C25.9828 4.38733 26.2582 4.18667 26.5755 4.056C26.8928 3.916 27.2242 3.846 27.5695 3.846C27.7095 3.846 27.8308 3.85067 27.9335 3.86C28.0455 3.86933 28.1482 3.89267 28.2415 3.93L28.2275 4.938C28.0875 4.89133 27.9568 4.86333 27.8355 4.854C27.7235 4.83533 27.5928 4.826 27.4435 4.826C27.0328 4.826 26.6735 4.924 26.3655 5.12C26.0668 5.316 25.8382 5.568 25.6795 5.876C25.5302 6.184 25.4555 6.51067 25.4555 6.856V11H24.3075ZM29.4214 11V0.695999H30.5554V7.094H30.5834L33.8454 3.972H35.2734L31.4234 7.64L31.4514 7.066L35.6374 11H34.1674L30.5834 7.696H30.5554V11H29.4214Z" fill="black"/>
</svg>
