<svg width="203" height="39" viewBox="0 0 203 39" fill="none" xmlns="http://www.w3.org/2000/svg">
<rect width="203" height="39" rx="8" fill="#7B855F"/>
<path d="M86.0983 24.628C85.7996 24.628 85.5703 24.5427 85.4103 24.372C85.2503 24.2013 85.1703 23.9667 85.1703 23.668V14.052C85.1703 13.7427 85.2556 13.508 85.4263 13.348C85.5969 13.1773 85.8316 13.092 86.1303 13.092C86.3969 13.092 86.6049 13.1453 86.7543 13.252C86.9143 13.348 87.0583 13.5187 87.1863 13.764L91.1383 21.076H90.6263L94.5783 13.764C94.7063 13.5187 94.8449 13.348 94.9943 13.252C95.1436 13.1453 95.3516 13.092 95.6183 13.092C95.9169 13.092 96.1463 13.1773 96.3063 13.348C96.4663 13.508 96.5463 13.7427 96.5463 14.052V23.668C96.5463 23.9667 96.4663 24.2013 96.3063 24.372C96.1569 24.5427 95.9276 24.628 95.6183 24.628C95.3196 24.628 95.0903 24.5427 94.9303 24.372C94.7703 24.2013 94.6903 23.9667 94.6903 23.668V16.26H95.0423L91.6823 22.388C91.5756 22.5693 91.4636 22.7027 91.3463 22.788C91.2289 22.8733 91.0689 22.916 90.8663 22.916C90.6636 22.916 90.4983 22.8733 90.3703 22.788C90.2423 22.692 90.1303 22.5587 90.0343 22.388L86.6423 16.244H87.0263V23.668C87.0263 23.9667 86.9463 24.2013 86.7863 24.372C86.6369 24.5427 86.4076 24.628 86.0983 24.628ZM100.821 27.508C100.586 27.508 100.394 27.444 100.245 27.316C100.096 27.1987 100.005 27.0387 99.9729 26.836C99.9515 26.6333 99.9889 26.42 100.085 26.196L101.173 23.78V24.612L98.2609 17.876C98.1649 17.6413 98.1329 17.4227 98.1649 17.22C98.1969 17.0173 98.2929 16.8573 98.4529 16.74C98.6235 16.612 98.8529 16.548 99.1409 16.548C99.3862 16.548 99.5835 16.6067 99.7329 16.724C99.8822 16.8307 100.016 17.0387 100.133 17.348L102.293 22.74H101.813L104.021 17.332C104.138 17.0333 104.277 16.8307 104.437 16.724C104.597 16.6067 104.81 16.548 105.077 16.548C105.312 16.548 105.498 16.612 105.637 16.74C105.776 16.8573 105.861 17.0173 105.893 17.22C105.925 17.412 105.888 17.6253 105.781 17.86L101.893 26.74C101.754 27.0387 101.605 27.2413 101.445 27.348C101.285 27.4547 101.077 27.508 100.821 27.508ZM112.819 24.628C112.488 24.628 112.232 24.5373 112.051 24.356C111.88 24.164 111.795 23.9027 111.795 23.572V14.26C111.795 13.9187 111.885 13.6627 112.067 13.492C112.248 13.3107 112.504 13.22 112.835 13.22H116.691C117.928 13.22 118.883 13.5293 119.555 14.148C120.227 14.7667 120.562 15.6307 120.562 16.74C120.562 17.8493 120.227 18.7187 119.555 19.348C118.883 19.9667 117.928 20.276 116.691 20.276H113.843V23.572C113.843 23.9027 113.757 24.164 113.587 24.356C113.416 24.5373 113.16 24.628 112.819 24.628ZM113.843 18.66H116.371C117.096 18.66 117.645 18.5 118.019 18.18C118.392 17.8493 118.579 17.3693 118.579 16.74C118.579 16.1107 118.392 15.636 118.019 15.316C117.645 14.996 117.096 14.836 116.371 14.836H113.843V18.66ZM125.217 24.66C124.407 24.66 123.703 24.4947 123.105 24.164C122.508 23.8333 122.044 23.364 121.713 22.756C121.383 22.1373 121.217 21.412 121.217 20.58C121.217 19.9507 121.308 19.3907 121.489 18.9C121.681 18.3987 121.953 17.972 122.305 17.62C122.657 17.2573 123.079 16.9853 123.569 16.804C124.06 16.612 124.609 16.516 125.217 16.516C126.028 16.516 126.732 16.6813 127.329 17.012C127.927 17.3427 128.391 17.812 128.721 18.42C129.052 19.028 129.217 19.748 129.217 20.58C129.217 21.2093 129.121 21.7747 128.929 22.276C128.748 22.7773 128.481 23.2093 128.129 23.572C127.777 23.924 127.356 24.196 126.865 24.388C126.375 24.5693 125.825 24.66 125.217 24.66ZM125.217 23.14C125.612 23.14 125.959 23.044 126.257 22.852C126.556 22.66 126.785 22.3773 126.945 22.004C127.116 21.62 127.201 21.1453 127.201 20.58C127.201 19.7267 127.02 19.092 126.657 18.676C126.295 18.2493 125.815 18.036 125.217 18.036C124.823 18.036 124.476 18.132 124.177 18.324C123.879 18.5053 123.644 18.788 123.473 19.172C123.313 19.5453 123.233 20.0147 123.233 20.58C123.233 21.4227 123.415 22.0627 123.777 22.5C124.14 22.9267 124.62 23.14 125.217 23.14ZM131.86 24.612C131.54 24.612 131.295 24.516 131.124 24.324C130.953 24.132 130.868 23.8653 130.868 23.524V17.652C130.868 17.3 130.953 17.0333 131.124 16.852C131.295 16.66 131.54 16.564 131.86 16.564C132.18 16.564 132.425 16.66 132.596 16.852C132.777 17.0333 132.868 17.3 132.868 17.652V23.524C132.868 23.8653 132.783 24.132 132.612 24.324C132.441 24.516 132.191 24.612 131.86 24.612ZM131.86 15.076C131.487 15.076 131.193 14.9853 130.98 14.804C130.777 14.612 130.676 14.3507 130.676 14.02C130.676 13.6787 130.777 13.4173 130.98 13.236C131.193 13.0547 131.487 12.964 131.86 12.964C132.244 12.964 132.537 13.0547 132.74 13.236C132.943 13.4173 133.044 13.6787 133.044 14.02C133.044 14.3507 132.943 14.612 132.74 14.804C132.537 14.9853 132.244 15.076 131.86 15.076ZM135.938 24.628C135.618 24.628 135.373 24.5427 135.202 24.372C135.032 24.1907 134.946 23.9347 134.946 23.604V17.556C134.946 17.2253 135.032 16.9747 135.202 16.804C135.373 16.6333 135.613 16.548 135.922 16.548C136.232 16.548 136.472 16.6333 136.642 16.804C136.813 16.9747 136.898 17.2253 136.898 17.556V18.644L136.722 18.244C136.957 17.6787 137.32 17.252 137.81 16.964C138.312 16.6653 138.877 16.516 139.506 16.516C140.136 16.516 140.653 16.6333 141.058 16.868C141.464 17.1027 141.768 17.46 141.97 17.94C142.173 18.4093 142.274 19.0067 142.274 19.732V23.604C142.274 23.9347 142.189 24.1907 142.018 24.372C141.848 24.5427 141.602 24.628 141.282 24.628C140.962 24.628 140.712 24.5427 140.53 24.372C140.36 24.1907 140.274 23.9347 140.274 23.604V19.828C140.274 19.22 140.157 18.7773 139.922 18.5C139.698 18.2227 139.346 18.084 138.866 18.084C138.28 18.084 137.81 18.2707 137.458 18.644C137.117 19.0067 136.946 19.492 136.946 20.1V23.604C136.946 24.2867 136.61 24.628 135.938 24.628ZM147.89 24.66C147.196 24.66 146.615 24.5427 146.146 24.308C145.687 24.0733 145.346 23.732 145.122 23.284C144.898 22.8253 144.786 22.26 144.786 21.588V18.18H143.954C143.698 18.18 143.5 18.116 143.362 17.988C143.223 17.8493 143.154 17.6627 143.154 17.428C143.154 17.1827 143.223 16.996 143.362 16.868C143.5 16.74 143.698 16.676 143.954 16.676H144.786V15.22C144.786 14.8893 144.871 14.6387 145.042 14.468C145.223 14.2973 145.474 14.212 145.794 14.212C146.114 14.212 146.359 14.2973 146.53 14.468C146.7 14.6387 146.786 14.8893 146.786 15.22V16.676H148.482C148.738 16.676 148.935 16.74 149.074 16.868C149.212 16.996 149.282 17.1827 149.282 17.428C149.282 17.6627 149.212 17.8493 149.074 17.988C148.935 18.116 148.738 18.18 148.482 18.18H146.786V21.476C146.786 21.988 146.898 22.372 147.122 22.628C147.346 22.884 147.708 23.012 148.21 23.012C148.391 23.012 148.551 22.996 148.69 22.964C148.828 22.932 148.951 22.9107 149.058 22.9C149.186 22.8893 149.292 22.932 149.378 23.028C149.463 23.1133 149.506 23.2947 149.506 23.572C149.506 23.7853 149.468 23.9773 149.394 24.148C149.33 24.308 149.207 24.42 149.026 24.484C148.887 24.5267 148.706 24.564 148.482 24.596C148.258 24.6387 148.06 24.66 147.89 24.66Z" fill="#FFFBFB"/>
</svg>
