<svg width="68" height="57" viewBox="0 0 68 57" fill="none" xmlns="http://www.w3.org/2000/svg">
<path d="M22.6703 40.9302L67.8638 40.9302V30.5435L22.6703 30.5435V40.9302Z" fill="#D7CEAF"/>
<path d="M59.4275 40.9302H63.8434V30.5435H59.4275V40.9302Z" fill="#37474F"/>
<path d="M55.9453 40.9302H57.7886V30.5435H55.9453V40.9302Z" fill="#37474F"/>
<path d="M26.7786 40.9302H31.1945V30.5435H26.7786V40.9302Z" fill="#37474F"/>
<path d="M15.4217 4.13785L3.81622 55.0122L10.2222 56.9947L21.8276 6.12038L15.4217 4.13785Z" fill="#37474F"/>
<path d="M5.98139 45.5149L4.84741 50.4858L11.2533 52.4684L12.3873 47.4974L5.98139 45.5149Z" fill="#D7CEAF"/>
<path d="M14.3667 8.76537L13.2327 13.7363L19.6387 15.7189L20.7726 10.7479L14.3667 8.76537Z" fill="#D7CEAF"/>
<path d="M13.1048 56.7749L65.4471 56.7749V51.5828L13.1048 51.5828V56.7749Z" fill="#D7CEAF"/>
<path d="M51.6437 56.7749H53.777V51.5828H51.6437V56.7749Z" fill="#A6A6A6"/>
<path d="M55.1874 56.7749H57.3206V51.5828H55.1874V56.7749Z" fill="#A6A6A6"/>
<path d="M18.327 56.7749H20.4602V51.5828H18.327V56.7749Z" fill="#A6A6A6"/>
<path d="M21.8684 56.7749H24.0016V51.5828H21.8684V56.7749Z" fill="#A6A6A6"/>
<path d="M49.3896 22.7949H18.0391V30.5433H49.3896V22.7949Z" fill="#455A64"/>
<path d="M67.2596 22.7949H49.3875V30.5433H67.2596V22.7949Z" fill="#455A64"/>
<path d="M49.3896 23.5981H18.0391V29.7396H49.3896V23.5981Z" fill="white"/>
<path d="M20.067 24.8623C22.51 24.818 24.9537 24.7881 27.3982 24.7728L34.7272 24.7446L42.0584 24.7728C44.5014 24.7881 46.9444 24.818 49.3875 24.8623C46.9444 24.905 44.5014 24.9357 42.0584 24.9545L34.7272 24.9801L27.3894 24.9519C24.9522 24.9365 22.5114 24.9067 20.067 24.8623Z" fill="#DBDBDB"/>
<path d="M20.067 26.0674C22.51 26.0248 24.9537 25.9941 27.3982 25.9753L34.7272 25.9497L42.0584 25.9753C44.5014 25.9941 46.9444 26.0248 49.3875 26.0674C46.9444 26.1101 44.5014 26.1399 42.0584 26.157L34.7272 26.1851L27.3894 26.157C24.9522 26.1416 22.5114 26.1118 20.067 26.0674Z" fill="#DBDBDB"/>
<path d="M20.067 27.273C22.51 27.2303 24.9537 27.1996 27.3982 27.1809L34.7272 27.1553L42.0584 27.1809C44.5014 27.1962 46.9444 27.2269 49.3875 27.273C46.9444 27.3173 44.5014 27.3472 42.0584 27.3625L34.7272 27.3907L27.3894 27.3625C24.9522 27.3472 22.5114 27.3173 20.067 27.273Z" fill="#DBDBDB"/>
<path d="M20.067 28.4782C22.51 28.4338 24.9537 28.4031 27.3982 28.3861L34.7272 28.3579L42.0584 28.3861C44.5014 28.4014 46.9444 28.4321 49.3875 28.4782C46.9444 28.5225 44.5014 28.5524 42.0584 28.5677L34.7272 28.5959L27.3894 28.5677C24.9522 28.5524 22.5114 28.5225 20.067 28.4782Z" fill="#DBDBDB"/>
<path d="M46.7511 0H21.0929V5.5631H46.7511V0Z" fill="#A6A6A6"/>
<path d="M61.3784 0H46.7511V5.5631H61.3784V0Z" fill="#A6A6A6"/>
<path d="M46.7511 0.578125H21.0929V4.98715H46.7511V0.578125Z" fill="white"/>
<path d="M22.7538 1.48386C24.7545 1.45315 26.7544 1.43183 28.7537 1.41989L34.7535 1.39941L40.7534 1.41989C42.7526 1.43012 44.7518 1.45145 46.7511 1.48386C44.7518 1.51457 42.7526 1.53675 40.7534 1.55039L34.7535 1.5683L28.7537 1.55039C26.7544 1.53845 24.7545 1.51627 22.7538 1.48386Z" fill="#DBDBDB"/>
<path d="M22.7538 2.34909C24.7545 2.31839 26.7544 2.29706 28.7537 2.28512L34.7535 2.26465L40.7534 2.28512C42.7526 2.29536 44.7518 2.31668 46.7511 2.34909C44.7518 2.3798 42.7526 2.40198 40.7534 2.41562L34.7535 2.43354L28.7537 2.41562C26.7544 2.40368 24.7545 2.38151 22.7538 2.34909Z" fill="#DBDBDB"/>
<path d="M22.7538 3.21433C24.7545 3.18362 26.7544 3.1623 28.7537 3.15035L34.7535 3.12988L40.7534 3.15035C42.7526 3.16059 44.7518 3.18191 46.7511 3.21433C44.7518 3.24674 42.7526 3.26892 40.7534 3.28086L34.7535 3.29877L28.7537 3.28086C26.7544 3.26892 24.7545 3.24674 22.7538 3.21433Z" fill="#DBDBDB"/>
<path d="M22.7538 4.09177C24.7545 4.06106 26.7544 4.03974 28.7537 4.0278L34.7535 4.00732L40.7534 4.0278C42.7526 4.03803 44.7518 4.05936 46.7511 4.09177C44.7518 4.12589 42.7526 4.14806 40.7534 4.1583L34.7535 4.17621L28.7537 4.1583C26.7544 4.13783 24.7545 4.11565 22.7538 4.09177Z" fill="#DBDBDB"/>
<path d="M13.2498 14.069L7.00168 41.4111L3.43823 57.0001L0 55.933L3.56345 40.344L9.81158 13.002L13.2498 14.069Z" fill="#D7CEAF"/>
<path opacity="0.1" d="M13.2498 14.069L7.00168 41.4111L3.43823 57.0001L0 55.933L3.56345 40.344L9.81158 13.002L13.2498 14.069Z" fill="black"/>
<path d="M6.64315 41.2945L12.8934 13.9531L10.1675 13.1077L3.91724 40.4491L6.64315 41.2945Z" fill="white"/>
<path d="M11.9272 15.5532C11.4614 17.6891 10.9884 19.8215 10.508 21.9505L9.05798 28.3478L7.58603 34.7451C7.09098 36.8742 6.59008 39.0015 6.08331 41.1271C6.552 38.9895 7.02581 36.8571 7.50474 34.7298L8.95253 28.3325L10.4267 21.9352C10.9217 19.8062 11.4219 17.6788 11.9272 15.5532Z" fill="#DBDBDB"/>
<path d="M11.3934 15.3867C10.9262 17.526 10.4524 19.6584 9.97196 21.784L8.52417 28.1813L7.05002 34.5786C6.55644 36.7077 6.05626 38.835 5.5495 40.9606C6.01672 38.8247 6.49053 36.6923 6.97093 34.5633L8.41872 28.166L9.89287 21.7687C10.3879 19.6396 10.8881 17.5123 11.3934 15.3867Z" fill="#DBDBDB"/>
<path d="M10.8595 15.2227C10.3923 17.3602 9.91848 19.4926 9.43808 21.62L7.99029 28.0173L6.51614 34.4146C6.02256 36.5436 5.52239 38.6701 5.01562 40.794C5.48138 38.6564 5.95445 36.524 6.43485 34.3967L7.88484 27.9994L9.3568 21.602C9.85038 19.4816 10.3513 17.3551 10.8595 15.2227Z" fill="#DBDBDB"/>
<path d="M10.3234 15.0566C9.85769 17.1925 9.38461 19.3249 8.90421 21.4539L7.45422 27.8513L5.98227 34.2486C5.48868 36.3776 4.98778 38.504 4.47955 40.628C4.94677 38.4921 5.42058 36.3597 5.90098 34.2306L7.34877 27.8333L8.82292 21.436C9.31797 19.307 9.81814 17.1805 10.3234 15.0566Z" fill="#DBDBDB"/>
<path d="M35.5774 51.5801L61.8419 51.5801V40.9298H35.5774V51.5801Z" fill="#263238"/>
<path d="M17.1296 51.5801H35.5774V40.9298H17.1296V51.5801Z" fill="#263238"/>
<path d="M35.5774 50.4746L61.8419 50.4746V42.0353H35.5774V50.4746Z" fill="white"/>
<path d="M60.1415 48.7398C58.091 48.7824 56.0442 48.8123 54.001 48.8293L47.8605 48.8575L41.7091 48.8293C39.6586 48.814 37.6081 48.7841 35.5576 48.7398C37.6081 48.6971 39.6586 48.6664 41.7091 48.6477L47.8605 48.6221L54.001 48.6477C56.0486 48.6664 58.0954 48.6971 60.1415 48.7398Z" fill="#DBDBDB"/>
<path d="M60.1415 47.0816C58.091 47.1242 56.0442 47.1541 54.001 47.1711L47.8605 47.1993L41.7091 47.1711C39.6586 47.1558 37.6081 47.1259 35.5576 47.0816C37.6081 47.0389 39.6586 47.0082 41.7091 46.9895L47.8605 46.9639L54.001 46.9895C56.0486 47.0065 58.0954 47.0372 60.1415 47.0816Z" fill="#DBDBDB"/>
<path d="M60.1415 45.4289C58.091 45.4715 56.0442 45.5014 54.001 45.5184L47.8605 45.5466L41.7091 45.5184C39.6586 45.5031 37.6081 45.4732 35.5576 45.4289C37.6081 45.3845 39.6586 45.3538 41.7091 45.3367L47.8605 45.3086L54.001 45.3367C56.0486 45.3521 58.0954 45.3828 60.1415 45.4289Z" fill="#DBDBDB"/>
<path d="M60.1415 43.7731C58.091 43.8175 56.0442 43.8473 54.001 43.8627L47.8605 43.8908L41.7091 43.8627C39.6586 43.8473 37.6081 43.8175 35.5576 43.7731C37.6081 43.727 39.6586 43.6963 41.7091 43.681L47.8605 43.6528L54.001 43.681C56.0486 43.6963 58.0954 43.727 60.1415 43.7731Z" fill="#DBDBDB"/>
<path d="M68 15.5684H19.7945V22.8255H68V15.5684Z" fill="#C7C7C7"/>
<path d="M42.8669 17.0503H24.3268V21.4056H42.8669V17.0503Z" fill="white"/>
<path d="M64.7463 17.0503H47.342V17.7233H64.7463V17.0503Z" fill="white"/>
<path d="M64.7463 18.8618H47.342V19.5348H64.7463V18.8618Z" fill="white"/>
<path d="M64.7463 20.6709H47.342V21.3439H64.7463V20.6709Z" fill="white"/>
<path d="M58.6739 5.56299H23.1273V15.5351H58.6739V5.56299Z" fill="#D7CEAF"/>
<path d="M54.9039 5.56299H51.5909V15.5351H54.9039V5.56299Z" fill="#263238"/>
<path d="M49.4182 5.56299H48.133V15.5351H49.4182V5.56299Z" fill="#263238"/>
</svg>
